<svg xmlns="http://www.w3.org/2000/svg" viewBox="0 0 46.6 46.6"><defs><style>.cls-1,.cls-2{fill:#fff;}.cls-2{opacity:0;}</style></defs><title>f2</title><g id="图层_2" data-name="图层 2"><g id="图层_1-2" data-name="图层 1"><path class="cls-1" d="M21.86,27.34,3.34,11.08c0-2.62,2-2.73,2-2.73h36s2,.11,2,2.73L24.83,27.34a3.25,3.25,0,0,1-.49.2h0a2.93,2.93,0,0,1-2,0h0a3.29,3.29,0,0,1-.5-.2Zm1.48,5a4.38,4.38,0,0,1-2.76-1.22C18.47,29.27,3.34,15.62,3.34,15.62V36a2.24,2.24,0,0,0,2.33,2.26H40.92A2.24,2.24,0,0,0,43.26,36V15.62s-15,13.64-17.15,15.48a4.38,4.38,0,0,1-2.76,1.22Z"/><rect class="cls-2" width="46.6" height="46.6"/></g></g></svg>