<?xml version="1.0" encoding="utf-8"?>
<!-- Generator: Adobe Illustrator 22.0.0, SVG Export Plug-In . SVG Version: 6.00 Build 0)  -->
<svg version="1.1" id="图层_1" xmlns="http://www.w3.org/2000/svg" xmlns:xlink="http://www.w3.org/1999/xlink" x="0px" y="0px"
	 viewBox="0 0 183 34" style="enable-background:new 0 0 183 34;" xml:space="preserve">
<style type="text/css">
	.st0{fill:#FF0000;}
</style>
<title>资源 1</title>
<path class="st0" d="M33.5,15.9c0-0.2,0-0.3,0.1-0.5c-0.5,0-1,0-1.6-0.1c-0.9-0.3-1.7-1-0.9-2.2c0.1-0.1,0.1-0.2,0.2-0.3
	c-1,0.6-2,1.1-3.1,1.5c-1,0.4-3.8,0.7-3.9,0.5s1.3-2.1,2.6-3.1c1-0.7,2-1.5,2.9-2.3c0,0-2.3,0.6-2.5-1.1c-0.1-0.5,0.5-1.1,0.7-1.5
	S28.5,6,28.5,6s-0.8,0.8-1,0.3c-0.3-0.7-0.4-1.6-0.4-2.4c0,0-0.8,0.6-0.9,0.3c0-0.5,0.1-1.1,0.3-1.6c0,0-1,0.8-1.5,0.8
	c-0.6,0-1.1-0.3-1.4-0.8c0,0-1,1.6-1.8,1.8c-1.7,0.4-2.9-2-2.9-2c-0.2,1.4-0.5,2.9-0.8,4.3c-0.5,1.8-1.2,3.3-1.4,3.3
	s-0.4-1.3-0.2-2.6c0.2-1.2,0.6-2.5,1-3.6c0,0-1.1,1.1-2,0.4c-0.6-0.5-0.9-1.2-1-2c0,0-0.3,0.5-0.7,0.2L13.1,2c0,0-0.4,0.6-0.5-0.1
	S12.3,0.6,12,0c0,0-0.3,2.4-1.1,3.1C10.4,3.6,10,3.3,10,3.3S9.8,4.9,9.3,5.1C8.7,5.3,8.1,5.4,7.5,5.3C7.7,5.5,7.9,5.8,8,6.1
	c0.1,0.4,0.2,0.8,0.2,1.3c0.1,0.6,0.1,1.2,0,1.8c0,0.1-0.1,0.2-0.1,0.4C8.1,9.7,6.7,9.1,6,9S5.1,9.2,4,9C3.5,8.8,3,8.6,2.5,8.4
	C2.2,8.3,1.9,8.2,1.6,8.2c0.4,0.2,0.7,0.4,1,0.7C2.8,9.1,2.9,9.4,3,9.7c0.2,0.4,0.3,0.8,0.4,1.2c0,0.3,0,0.7,0.1,1
	c0.2,0.3,0.3,0.6,0.5,1c0,0.3,0,0.5-0.2,0.8C3.6,13.8,3.3,14,3,14s-0.6,0-0.9,0c0.2,0.2,0.4,0.3,0.6,0.4c0.7,0.2,1.4,0.5,2,0.9
	c0.4,0.3,0.8,0.7,1.1,1c0.5,0.5-0.3,1.1-0.9,1.6c-0.4,0.5-0.9,0.9-1.5,1.2c-0.2,0.2-0.5,0.3-0.8,0.3c0.3,0,0.7,0,1,0
	c0.4,0,0.8,0,1.1,0c0.8,0.2,1.6,0.5,2.3,1c0.4,0.1,0.9,0.1,1.3,0c1.1-0.4,3.3,0,3.4,0.7c0.1,1.1-1.5,3-4.2,5.3
	C5.9,27.8,0.1,32-0.1,32C0.5,32.5,2,34,2,34c2.5-2,5-4.2,7.3-6.5c4.7-4.7,4.8-4.7,5.1-4.7c0.4,0,0.7,0.3,0.7,0.7l0,0
	c0.1,1.4,0.5,2.7,1.1,3.9c0.4,0.5,0.7,1.1,1,1.6c0.2,0.7,0.4,1.5,0.6,2.3c0-0.6,0.1-1.2,0.3-1.8c0.2-0.8,0.7-1.4,1.3-1.9
	c1.2-0.4,2.7,1.5,3.2,2c0.3,0.3,0.6,0.6,1,0.8c-0.2-0.4-0.3-0.8-0.3-1.2c0.1-0.6,0.6-1.1,1.3-1.1c0.1,0,0.2,0,0.3,0.1
	c0.6,0.2,1.1,0.4,1.5,0.2c0.1-0.1,0.3-0.5,0.8-0.7c0.5-0.1,1-0.1,1.5,0s1.2,0.1,1.7,0.2l1,0.2c-0.5-0.2-1-0.5-1.4-0.8
	c-0.4-0.2-0.7-0.5-1-0.9s-0.5-1-0.6-1.5c0-0.3,0.1-0.6,0.3-0.9c0-0.1,0-0.1-0.4-0.3S27,23.3,27,23.3c1-0.2,1.9-0.3,2.9-0.3
	c1.1,0.2,2.2,0.4,3.2,0.8c-0.6-0.6-1-1.3-1.5-2c-0.2-0.7-0.4-1.3,1.6-2.7c1-0.8,1.8-1.7,2.5-2.2l0.2-0.1c-0.6,0-1.2-0.1-1.8-0.2
	C33.7,16.4,33.5,16.3,33.5,15.9z"/>
<g>
	<path class="st0" d="M54.4,15.1c0,2.6-2.1,4.8-4.8,4.8h-4.5v7.6h-1.7V7.9h6.2c2.6,0,4.8,2.1,4.8,4.8V15.1z M52.7,12.7
		c0-1.7-1.4-3.1-3.1-3.1h-4.3v8.6h4.3c1.7,0,3.1-1.4,3.1-3.1V12.7z"/>
	<path class="st0" d="M57.8,27.3V7.9h1.7v19.4H57.8z"/>
	<path class="st0" d="M68.7,9.6v17.9h-1.7V9.6h-4.6V7.9h11v1.7H68.7z"/>
	<path class="st0" d="M85.3,27.3v-8.9h-7.4v8.9h-1.7V7.9h1.7v8.9h7.4V7.9h1.7v19.4H85.3z"/>
	<path class="st0" d="M96.7,18v9.3H95V18L90,7.9h1.9l4,8.1l4-8.1h1.9L96.7,18z"/>
	<path class="st0" d="M121.4,22.8c0,2.6-2.1,4.8-4.8,4.8h-1.4c-2.6,0-4.8-2.1-4.8-4.8V12.4c0-2.6,2.1-4.8,4.8-4.8h1.4
		c2.6,0,4.8,2.1,4.8,4.8v0.9l-1.7,0.3v-1c0-1.7-1.4-3.1-3.1-3.1h-1.2c-1.7,0-3.1,1.4-3.1,3.1V23c0,1.7,1.4,3.1,3.1,3.1h1.2
		c1.7,0,3.1-1.4,3.1-3.1v-1l1.7,0.3V22.8z"/>
	<path class="st0" d="M136.1,22.8c0,2.6-2.1,4.8-4.8,4.8h-1.4c-2.6,0-4.8-2.1-4.8-4.8V12.4c0-2.6,2.1-4.8,4.8-4.8h1.4
		c2.6,0,4.8,2.1,4.8,4.8V22.8z M134.3,12.4c0-1.7-1.4-3.1-3.1-3.1H130c-1.7,0-3.1,1.4-3.1,3.1v10.5c0,1.7,1.4,3.1,3.1,3.1h1.2
		c1.7,0,3.1-1.4,3.1-3.1V12.4z"/>
	<path class="st0" d="M140,27.3V7.9h1.7v17.9h7.4v1.7H140V27.3z"/>
	<path class="st0" d="M162.5,22.8c0,2.6-2.1,4.8-4.8,4.8h-1.4c-2.6,0-4.8-2.1-4.8-4.8V12.4c0-2.6,2.1-4.8,4.8-4.8h1.4
		c2.6,0,4.8,2.1,4.8,4.8V22.8z M160.8,12.4c0-1.7-1.4-3.1-3.1-3.1h-1.2c-1.7,0-3.1,1.4-3.1,3.1v10.5c0,1.7,1.4,3.1,3.1,3.1h1.2
		c1.7,0,3.1-1.4,3.1-3.1V12.4z"/>
	<path class="st0" d="M175.9,27.3l-5.3-8.3h-2.4v8.3h-1.7V7.9h6.2c2.6,0,4.8,2.1,4.8,4.8v1.5c0,2.6-2.1,4.8-4.8,4.8l5.3,8.3H175.9z
		 M175.8,12.7c0-1.7-1.4-3.1-3.1-3.1h-4.3v7.7h4.3c1.7,0,3.1-1.4,3.1-3.1V12.7z"/>
</g>
</svg>
