<?xml version="1.0" encoding="utf-8"?>
<!-- Generator: Adobe Illustrator 22.0.0, SVG Export Plug-In . SVG Version: 6.00 Build 0)  -->
<svg version="1.1" id="图层_1" xmlns="http://www.w3.org/2000/svg" xmlns:xlink="http://www.w3.org/1999/xlink" x="0px" y="0px"
	 viewBox="0 0 210 210" style="enable-background:new 0 0 210 210;" xml:space="preserve">
<style type="text/css">
	.st0{fill:#FF0000;}
</style>
<title>phone</title>
<g>
	<path class="st0" d="M178.7,121.5l-22.3-15c-2.7-1.8-6.4-1.5-8.7,0.9l-2.2,2.2l31.9,25.5c1-1.2,2-2.5,3-3.7c2.3-3,1.7-7.3-1.3-9.6
		C178.9,121.7,178.8,121.6,178.7,121.5L178.7,121.5z M102.3,62.1c2.3-2.3,2.7-6,0.9-8.7l-15-22.3c-2.1-3.2-6.3-4.1-9.5-2
		c-0.1,0.1-0.3,0.2-0.4,0.3c-0.8,0.6-1.7,1.3-2.6,2l23.9,33.3L102.3,62.1z"/>
	<path class="st0" d="M139.7,115.3c-5.1,5.1-20.9,13-41-9c-20.5-22.4-9.7-31-4.5-36.2l2.9-2.9l-24-33.6c-2.3,2-4.4,3.8-5.6,5.1
		C47.2,59,54,98.6,82.6,127.2s68.2,35.4,88.4,15.1c1-1,2.5-2.6,4.1-4.5L143,112.1L139.7,115.3z"/>
</g>
</svg>
