<?xml version="1.0" encoding="utf-8"?>
<!-- Generator: Adobe Illustrator 22.0.0, SVG Export Plug-In . SVG Version: 6.00 Build 0)  -->
<svg version="1.1" id="图层_1" xmlns="http://www.w3.org/2000/svg" xmlns:xlink="http://www.w3.org/1999/xlink" x="0px" y="0px"
	 viewBox="0 0 1172.9 866.3" style="enable-background:new 0 0 1172.9 866.3;" xml:space="preserve">
<style type="text/css">
	.st0{fill-opacity:0;}
	.st1{opacity:0.1;fill:#FF0000;enable-background:new    ;}
	.st2{opacity:0.5;}
	.st3{fill:#EF313D;}
	.st4{fill:none;stroke:#535461;stroke-width:2;stroke-miterlimit:10;}
	.st5{fill:#FF0000;}
	.st6{fill:#FFD037;}
	.st7{opacity:0.1;enable-background:new    ;}
	.st8{fill:#A8A8A8;}
	.st9{opacity:0.2;enable-background:new    ;}
	.st10{opacity:0.1;fill:#EF313D;enable-background:new    ;}
	.st11{fill:#E6E6F0;}
	.st12{fill:#FDC2CC;}
	.st13{fill:#565171;}
	.st14{fill:#B45181;}
	.st15{opacity:0.1;}
	.st16{fill:#F569BC;}
	.st17{fill:#F7DF1E;}
	.st18{fill:url(#SVGID_1_);}
	.st19{fill:#4F4D59;}
	.st20{fill:#C48C96;}
	.st21{fill:#714B4F;}
	.st22{fill:#BA7855;}
	.st23{fill:#503F43;}
	.st24{fill:#E44D26;}
	.st25{fill:#F16529;}
	.st26{fill:#EBEBEB;}
	.st27{fill:#FFFFFF;}
	.st28{fill:url(#SVGID_2_);}
	.st29{opacity:5.000000e-02;enable-background:new    ;}
	.st30{fill:#264DE4;}
	.st31{fill:#2965F1;}
	.st32{fill:#47465A;}
	.st33{opacity:0.3;fill:#FFFFFF;enable-background:new    ;}
	.st34{fill:#E1A0A7;}
	.st35{fill:#8F5A6A;}
	.st36{opacity:5.000000e-02;}
</style>
<title>s1</title>
<g id="图层_2_1_">
	<g id="_03030b4a-9996-4111-83fa-29dc66776d7b">
		<rect class="st0" width="1172.9" height="866.3"/>
		<ellipse class="st1" cx="886.1" cy="652.9" rx="211.4" ry="41.1"/>
		<g class="st2">
			<path class="st3" d="M705,171.2c-2.8,0.8-6.3,2.9-8.1,8.7c-3.4,11.3,4.5,19,1.9,30.8c-0.7,3.1-2.1,6.1-4,8.6
				c-3.2,4.3-6.6,6.3-9.9,9.3c-4.2,3.8-7.2,8.8-8.7,14.3c-1.6,6.1-1.7,12.4-0.4,18.5c1.2,5.1,3.2,8.9,5,13
				c2.2,5.3,3.9,10.8,5.2,16.4c0.7,2.7,1,5.5,1.1,8.3c0,3.7-0.4,7.4-1,11.1l-4.8,33.4c-0.7,4.4-1.2,8.8-1.3,13.2
				c0.1,4.4,0.6,8.9,1.5,13.2c1.7,8.8,3.5,18,7.3,22.7s10.4,3,14.4-6.5c3.8-9.1,3.9-21.1,7.3-30.8c5.3-15.3,15.9-17.3,21.8-31.9
				c5.6-14,3.9-31.1,6.8-47c2-11.4,6.4-21.8,9-33.1c3.7-16.2,3.3-33.1,0.4-45.6c-2.3-10.3-7.1-19.7-14.2-27.5
				c-2.5-2.8-5.2-5.2-8.3-5.4c-3.3-0.3-6.2,3.9-9.5,5.2C712.7,171.6,708.9,170.1,705,171.2z"/>
			<path class="st4" d="M723.1,165.8c0,0-5.6,144.3-29.4,229.5"/>
			<path class="st4" d="M696.8,180.6c0,0,25.3,23.1,20.5,67"/>
			<path class="st4" d="M675.6,246.3c0,0,41.6,8.4,38.5,33.3"/>
			<path class="st4" d="M748.6,197.7c0,0-16.8,14.7-31.8,56.5"/>
			<path class="st4" d="M732.2,323.8c0,0-11.5,9-20.7-22.5"/>
			<path class="st4" d="M682.6,342.3c0,0,23.4-3.1,25.6-17.7"/>
		</g>
		<path class="st5" d="M761.7,74.4c-5.8,0.9-12.8,3.6-15.7,11.8c-5.6,16.3,11.5,28.6,7.5,45.6c-1.2,4.7-3.7,8.9-7.1,12.3
			c-6,5.9-12.9,8.5-19.4,12.5s-13.3,10.3-16.3,20c-2.9,9.3-1.7,19.6,1.4,27.3s7.7,13.4,11.8,19.7c5,7.8,9.2,16.1,12.5,24.7
			c1.7,3.9,2.8,8.1,3.3,12.3c0.5,5.2-0.1,10.8-0.8,16.3l-6,48.7c-0.8,6.5-1.6,13.1-1.1,19.3c0.5,7.2,2.6,13.5,4.7,19.6
			c4.5,13.2,9.4,27,17.9,34.3s21.9,5.7,29.1-7.8c6.9-12.9,5.6-30.7,11.5-44.5c9.2-21.8,30.9-23.6,41.3-44.3
			c10-19.9,4.4-45.3,8.4-68.4c2.9-16.6,10.7-31.4,14.7-47.6c5.8-23.5,3-48.3-4.6-67s-19.7-32-32.6-42.2c-5.5-4.3-11.3-8.3-17.8-9
			c-6.9-0.8-12.5,5.1-19.1,6.5C777.6,75.9,769.5,73.2,761.7,74.4z"/>
		<path class="st4" d="M798.4,68.6c0,0,5.5,211.9-33.6,334.4"/>
		<path class="st4" d="M745.8,87.3c0,0,55.2,37,50.5,101.2"/>
		<path class="st4" d="M709.6,181.4c0,0,87.1,17.3,83.7,53.6"/>
		<path class="st4" d="M855,118.5c0,0-33.1,19.7-59.2,79.4"/>
		<path class="st4" d="M835.9,302.4c0,0-22.7,12-45.5-35.6"/>
		<path class="st4" d="M735.4,323.6c0,0,48.1-1.7,50.9-23.1"/>
		<path class="st3" d="M138.7,646.3c0,0,8.4,11-3.9,27.5s-22.4,30.5-18.3,40.8c0,0,18.5-30.7,33.5-31.2S155.2,664.7,138.7,646.3z"/>
		<path class="st1" d="M138.7,646.3c0.7,1.1,1.3,2.2,1.8,3.4c14.7,17.2,22.5,33.3,8.4,33.7c-13.1,0.4-28.9,23.9-32.7,29.8
			c0.1,0.5,0.3,0.9,0.4,1.3c0,0,18.5-30.7,33.5-31.2S155.2,664.7,138.7,646.3z"/>
		<path class="st6" d="M154.3,660.2c0,3.9-0.4,7-1,7s-1-3.1-1-7s0.5-2,1.1-2S154.3,656.4,154.3,660.2z"/>
		<path class="st6" d="M159.6,664.8c-3.4,1.8-6.3,3-6.6,2.5s2.3-2.3,5.7-4.2s2.1-0.5,2.3,0S163,663,159.6,664.8z"/>
		<path class="st5" d="M94.4,646.3c0,0-8.4,11,3.9,27.5s22.3,30.5,18.3,40.8c0,0-18.5-30.7-33.5-31.2S77.9,664.7,94.4,646.3z"/>
		<path class="st7" d="M94.4,646.3c-0.7,1.1-1.3,2.2-1.7,3.4C78,666.9,70.2,683,84.3,683.4c13.1,0.4,28.9,23.9,32.7,29.8
			c-0.1,0.5-0.3,0.9-0.4,1.3c0,0-18.5-30.7-33.6-31.2S77.9,664.7,94.4,646.3z"/>
		<path class="st6" d="M78.8,660.2c0,3.9,0.4,7,1,7s1-3.1,1-7s-0.5-2-1.1-2S78.8,656.4,78.8,660.2z"/>
		<path class="st6" d="M73.5,664.8c3.4,1.8,6.3,3,6.6,2.5s-2.3-2.3-5.7-4.2s-2.1-0.5-2.3,0S70.1,663,73.5,664.8z"/>
		<path class="st8" d="M81.5,713.2c0,0,23.4-0.7,30.5-5.8s36-11,37.8-3s35.2,40.1,8.8,40.3s-61.5-4.1-68.5-8.4
			S81.5,713.2,81.5,713.2z"/>
		<path class="st9" d="M159,741.9c-26.4,0.2-61.5-4.1-68.5-8.4c-5.4-3.3-7.5-15-8.2-20.4h-0.8c0,0,1.5,18.9,8.5,23.2
			s42.1,8.6,68.5,8.4c7.6-0.1,10.3-2.8,10.1-6.8C167.6,740.4,164.7,741.9,159,741.9z"/>
		<path class="st5" d="M1053.8,641.7c1.8-1.5,3.2-3.5,3.8-5.8c0.5-2.3-0.5-5-2.7-5.9c-2.5-0.9-5.1,0.8-7.1,2.5s-4.3,3.7-6.9,3.3
			c2.7-2.5,4-6.2,3.2-9.8c-0.1-0.7-0.4-1.4-0.9-2c-1.4-1.5-3.8-0.8-5.5,0.3c-5.2,3.7-6.7,10.7-6.7,17.1c-0.5-2.3-0.1-4.7-0.1-7
			s-0.7-5-2.6-6.2c-1.2-0.7-2.6-1-4-1c-2.3-0.1-4.9,0.2-6.5,1.9c-2,2.1-1.5,5.7,0.3,8s4.3,3.8,6.8,5.4c1.9,1.2,3.6,2.7,4.8,4.6
			c0.1,0.3,0.3,0.5,0.4,0.8h14.7C1048,646.3,1051.1,644.2,1053.8,641.7z"/>
		<path class="st1" d="M218.1,548c31.8,40.5,19.5,99.6-0.8,146.9c-6.8,15.8-14.4,32.6-11.6,49.6c3.5,20.8,22,36,41.5,44
			c35.5,14.7,78,11.2,110.6-9.1c28.2-17.5,48.4-46.1,77-62.8c48-28,109.1-17.4,161.2,1.9c36.9,13.6,77.2,31.4,113.9,17.1
			c25.8-10,43.6-34.5,53.3-60.4c4.7-12.5,8.1-26,17-36c5.3-5.9,12.3-10.1,19.4-13.6c65-32.2,147-15,210.1-50.7
			c42.6-24.1,69.9-69.6,82-117.1s10.7-97.2,7.6-146.1c-2.2-34.7-6.1-71.8-28.3-98.6c-23.5-28.4-63.8-38.9-100.2-33.5
			s-69.5,24.7-98.5,47.3c-36.3,28.3-69.9,63.5-114.5,74.9c-30.3,7.8-62.3,3.5-93.6,2.1c-52.3-2.5-104.7,3-156.7,9
			c-49.8,5.8-100,12.1-147.4,28.3c-33.6,11.5-60.5,32.3-92.2,46.8c-20.7,9.5-43.2,12.1-62.8,24.2c-24.1,14.9-46.2,40.7-40,71
			C171.1,512.1,201.3,526.5,218.1,548z"/>
		<ellipse class="st10" cx="623.8" cy="506.9" rx="427.7" ry="41.1"/>
		<ellipse class="st10" cx="295.1" cy="743.9" rx="211.4" ry="41.1"/>
		<path class="st11" d="M511.1,494.1l-3.4,4.9c0,0,3.6,4.9,4,5.5s10.6-0.3,10.6-0.3l0.9-3.6l-1.5-4.3L511.1,494.1z"/>
		<polygon class="st12" points="398.5,491.3 391.8,492.5 396.1,500.8 400.6,503.2 404.9,506.2 406.1,502.9 403.1,496.5 		"/>
		<path class="st13" d="M508.1,412.2c0,0,35.6,8.5,42.3,18c0,0,6.1,5.2,0,14.6s-14.6,30.8-14.6,30.8s-6.1,20.7-8.5,22.2
			s-16.4,2.7-17.7-3c0,0,7.9-12.5,7.9-18.3s13.1-33.2,13.1-33.2s-29.8-3.4-39.3-1.2S495.6,408.8,508.1,412.2z"/>
		<path class="st7" d="M508.1,412.2c0,0,35.6,8.5,42.3,18c0,0,6.1,5.2,0,14.6s-14.6,30.8-14.6,30.8s-6.1,20.7-8.5,22.2
			s-16.4,2.7-17.7-3c0,0,7.9-12.5,7.9-18.3s13.1-33.2,13.1-33.2s-29.8-3.4-39.3-1.2S495.6,408.8,508.1,412.2z"/>
		<path class="st13" d="M500.8,420.4c-0.1,1.8-0.3,3.8-0.5,5.9c-2,15.5-8.3,38.5-8.3,38.5s-6.4,13.7-8.2,22.5s-14.3,11-14.3,11
			s-34.1,4-41.1,2.4s-18,4.6-23.4,3.6s-8.8-13.7-8.8-13.7c9.4,0.1,18.8-1.9,27.4-5.8c14-6.4,34.1-3.4,34.1-3.4c3-0.9,5.6-3,7-5.8
			c2.1-4.6,2.1-32.3,1.5-34.1c-4-12-3.7-19.7-2.5-24.2c0.4-2,1.3-3.8,2.5-5.3L500.8,420.4z"/>
		<path class="st7" d="M500.8,420.4c-0.1,1.8-0.3,3.8-0.5,5.9c-3.1,0.2-11.6,0.5-18-3.5c-6-3.7-14.7-4.9-18.7-5.3
			c0.4-2,1.3-3.8,2.5-5.3L500.8,420.4z"/>
		<path class="st11" d="M505,416.6c-1.4,4-3.6,8.7-3.6,8.7s-11.3,1.5-19.2-3.4s-20.7-5.5-20.7-5.5c2.1-1.3,3.5-5.1,4.3-8.5
			c0.5-1.9,0.9-3.8,1.1-5.8c0,0,37.4,7.6,39,8.8C506.6,411.5,506,413.9,505,416.6z"/>
		<path class="st12" d="M571.7,288.3l-45.4,27.4l-4.5,2.7V305l3.1-1.5l38.3-18.3c0,0,1.8-33.2,6.7-28S571.7,288.3,571.7,288.3z"/>
		<path class="st7" d="M526.3,315.7l-4.5,2.7V305l3.1-1.5C525.1,307.6,525.6,311.7,526.3,315.7z"/>
		<path class="st14" d="M491.4,320.6l32.6-18.9c0,0,0.6,18.3,4.3,21c0,0-13.4,4-18.6,12.5L491.4,320.6z"/>
		<path class="st7" d="M491.4,320.6l32.6-18.9c0,0,0.6,18.3,4.3,21c0,0-13.4,4-18.6,12.5L491.4,320.6z"/>
		<path class="st12" d="M571.4,336.7c0,0-15.5,6.8-25.8,9.2c-2.3,0.7-4.7,1-7.1,0.8c-7-1.2,1.8-10,1.8-10l3.7-0.6l19.8-3.1
			c0,0,2.1-30.4,5.8-28S571.4,336.7,571.4,336.7z"/>
		<path class="st12" d="M506,309.3c0,0-13.1,9.7-8.2,21.9s-25.3-7.3-25.3-7.3s9.7-14.6,11.9-25.6S506,309.3,506,309.3z"/>
		<path class="st7" d="M505,416.6c-5.7-2.1-11.6-3.5-17.6-4.1c-8.8-1-16.9-2.7-21.5-4.5c0.5-1.9,0.9-3.8,1.1-5.8
			c0,0,37.4,7.6,39,8.8C506.6,411.5,506,413.9,505,416.6z"/>
		<path class="st7" d="M545.7,345.9c-2.3,0.7-4.7,1-7.1,0.8c-7-1.2,1.8-10,1.8-10l3.7-0.6C545.6,338.5,547.2,342.2,545.7,345.9z"/>
		<path class="st14" d="M484.7,314.8c0,0-11.9-0.3-16.1,4.6s-3.4,18-3.4,18s-0.9,26.3,5.8,41c0.2,0.5,0.2,1,0.1,1.5
			c-0.1,0.2-0.1,0.1-0.1,0.1s-4.3,19.2-8.5,22.5s9.1,7.3,25,9.1s22.2,6.4,22.2,6.4s2.7-3,3-9.7s-4.2-55.7-4.2-55.7
			s16.7,4.3,26.8-0.9c0,0,4.6,2.4,8.8-4.3s-3-14-3-14s-6.7,6.7-25.3-2.1S490.4,314.5,484.7,314.8z"/>
		<path class="st11" d="M393.6,491.9H390v5.2l3.6,8.2c0,0,4.9,0.9,5.2,0.9s4.3-0.9,4.3-0.9l1.2-2.1
			C404.3,503.2,390.9,498,393.6,491.9z"/>
		<path class="st14" d="M508.1,496.8l-5.5,12.2l23.1,11l18.3,0.6c0,0,1.5-4.3-4.6-6.4l-4.9-0.9c0,0-6.4-11.6-7-17c0,0-6.1,1.2-7,5.8
			C520.6,502,512.1,506.2,508.1,496.8z"/>
		<path class="st14" d="M390.9,490.7l-1.9,1.5l-8.2,6.7l18.9,25c0,0,10.6,4.6,15.5,0c0,0,3-3-3.6-5.5c0,0-5.2,0.9-5.2-4.3
			s1.2-10.6,3-11.9c0,0-4.6-1.5-5.8-0.3c-0.9,1-1.7,2.1-2.4,3.4C401.2,505.4,390.3,501.1,390.9,490.7z"/>
		<path class="st7" d="M483.8,298.9c-0.3,1.5-0.7,3.1-1.2,4.6c3.3,7.9,12.3,11.8,20.3,8.7c0.8-0.8,1.7-1.6,2.6-2.3
			C505.4,309.9,485.9,288,483.8,298.9z"/>
		<path class="st7" d="M482.1,339.6c0,0,9.4,12.5,23.1,12.8"/>
		<g class="st15">
			<path d="M538.5,351.8c-0.2-0.1-0.4-0.1-0.6-0.2c-0.3,0.2-0.6,0.3-0.9,0.4C537.5,352,538,351.9,538.5,351.8z"/>
			<path d="M541.7,334.6c-0.3-0.4-0.7-0.8-1.1-1.2c0,0-2,2-6.9,2.4C536.5,336,539.2,335.6,541.7,334.6z"/>
			<path d="M511.1,352.5l0.1,0.6c4,0.7,8.1,1.1,12.2,1C519.3,354,515.2,353.5,511.1,352.5z"/>
			<path d="M490.1,411.6c-15.8-1.8-29.2-5.8-25-9.1s8.5-22.5,8.5-22.5s0,0.1,0.1-0.1c0.2-0.5,0.1-1-0.1-1.5c-6.7-14.8-5.8-41-5.8-41
				s-0.9-13.1,3.4-18c3.2-3.6,10.6-4.4,14.1-4.5c-0.3,0-0.7,0-1,0c0,0-11.9-0.3-16.1,4.6s-3.4,18-3.4,18s-0.9,26.3,5.8,41
				c0.2,0.5,0.2,1,0.1,1.5c-0.1,0.2-0.1,0.1-0.1,0.1s-4.2,19.1-8.5,22.5s9.1,7.3,25,9.1s22.2,6.4,22.2,6.4c0.3-0.4,0.6-0.8,0.8-1.2
				C507.1,415.2,500.7,412.8,490.1,411.6z"/>
		</g>
		
			<ellipse transform="matrix(0.1602 -0.9871 0.9871 0.1602 125.0518 740.5807)" class="st12" cx="497.8" cy="296.8" rx="15.8" ry="15.8"/>
		<path class="st7" d="M520.3,289.7c-1.3,3.3-5.2,4.5-8.6,5.4c-4.9,1.2-10.2,2.4-14.9,0.5c-0.6-0.3-1.3-0.5-2-0.4
			c-0.6,0.2-1,0.6-1.3,1.1c-5.2,7.4-4.3,17.2-5.7,26.1c-0.4,2.8-1.1,5.6-3,7.7c-3.6,4-10.5,3.9-13.9,8.1c-2.2,2.8-2.2,6.7-2.2,10.3
			c0,3.8,0,7.6-0.1,11.4c-0.1,2.5-0.2,5.1-1.3,7.3c-1.9,3.8-6.2,5.5-10.1,7c-2.5,0.9-5,1.9-7.6,1.6s-5.3-2-5.6-4.6
			c-0.5-3.6,3.2-6.1,5.8-8.7c4.1-4.1,5.7-10.1,5.9-15.9c0.1-2.3-0.2-4.7-1-6.9c-0.9-2.3-2.6-4.2-3.6-6.4c-3.1-6.9,0.7-14.9,5.3-20.9
			s10.1-11.9,11.1-19.4c0.1-1.6,0.3-3.2,0.7-4.8c0.7-2.2,2.4-8.2,4.2-9.6c2.9-2.2,6.4-3.6,10-4.2c2.8-0.4,5.7-0.3,8.5-0.8
			c3.3-0.6,6.3-2.2,9.5-2.8c7-1.3,14.7,6.9,17.8,13.4C518.8,286.3,521.1,287.7,520.3,289.7z"/>
		<path class="st16" d="M520.3,289.1c-1.3,3.3-5.2,4.5-8.6,5.4c-4.9,1.2-10.2,2.4-14.9,0.5c-0.6-0.3-1.3-0.5-2-0.4
			c-0.6,0.2-1,0.6-1.3,1.1c-5.2,7.4-4.3,17.2-5.7,26.1c-0.4,2.8-1.1,5.6-3,7.7c-3.6,4-10.5,3.9-13.9,8.1c-2.2,2.8-2.2,6.7-2.2,10.3
			c0,3.8,0,7.6-0.1,11.4c-0.1,2.5-0.2,5.1-1.3,7.3c-1.9,3.8-6.2,5.5-10.1,7c-2.5,0.9-5,1.9-7.6,1.6s-5.3-2-5.6-4.6
			c-0.5-3.6,3.2-6.1,5.8-8.7c4.1-4.1,5.7-10.1,5.9-15.9c0.1-2.3-0.2-4.7-1-6.9c-0.9-2.3-2.6-4.2-3.6-6.4c-3.1-6.9,0.7-14.9,5.3-20.9
			s10.1-11.9,11.1-19.4c0.1-1.6,0.3-3.2,0.7-4.8c0.7-2.2,2.4-8.2,4.2-9.6c2.9-2.2,6.4-3.6,10-4.2c2.8-0.4,5.7-0.3,8.5-0.8
			c3.3-0.6,6.3-2.2,9.5-2.8c7-1.3,14.7,6.9,17.8,13.4C518.8,285.7,521.1,287.1,520.3,289.1z"/>
		<path class="st17" d="M571.4,258.7h263.2v263.2H571.4V258.7z"/>
		<path d="M640.6,478.6l20.1-12.2c3.9,6.9,7.4,12.7,15.9,12.7c8.1,0,13.3-3.2,13.3-15.5v-84.1h24.7v84.4c0,25.6-15,37.3-36.9,37.3
			C658,501.2,646.5,490.9,640.6,478.6 M728.1,475.9l20.1-11.7c5.3,8.7,12.2,15,24.4,15c10.3,0,16.8-5.1,16.8-12.2
			c0-8.5-6.7-11.5-18-16.4l-6.2-2.6c-17.8-7.6-29.7-17.1-29.7-37.3c0-18.5,14.1-32.7,36.2-32.7c15.7,0,27,5.5,35.2,19.8l-19.3,12.4
			c-4.2-7.6-8.8-10.6-15.9-10.6c-7.2,0-11.8,4.6-11.8,10.6c0,7.4,4.6,10.4,15.2,15l6.2,2.6c21,9,32.9,18.2,32.9,38.9
			c0,22.3-17.5,34.5-41,34.5C750.1,501.2,735.3,490.2,728.1,475.9"/>
		
			<linearGradient id="SVGID_1_" gradientUnits="userSpaceOnUse" x1="960.5837" y1="-991.8002" x2="960.5837" y2="-1330.3275" gradientTransform="matrix(1 0 0 1 -84.99 1676.23)">
			<stop  offset="0" style="stop-color:#808080;stop-opacity:0.25"/>
			<stop  offset="0.54" style="stop-color:#808080;stop-opacity:0.12"/>
			<stop  offset="1" style="stop-color:#808080;stop-opacity:0.1"/>
		</linearGradient>
		<path class="st18" d="M950,667.9c0,0-10.3,0.7-16.6-10.3c-1.2-2.2-2.7-4.3-4.4-6.2c-2-3.4-3.1-7.2-3-11.1
			c0.3-8.2-8.2-52.8-8.2-52.8s1.1-17-7.4-27.6c-5.6-7-13.7-27-18.5-39.9c0.3,0.3,0.7,0.5,1.1,0.6l-0.2-1.1h0.2l-2.5-13.8
			c-3.7-4.2-6.7-8.9-9.2-13.9l0.6-0.1l7.5-1.6c0,0,12.2-17.4,13-25.9h2.4c11.3-0.1,22.6,0.5,33.9,1.8l0,0c0,0-0.1-0.3-0.2-0.6l0,0
			c-0.5-1.7-0.8-3.5-1.1-5.2h0.7l7-0.5c0,0,24.1-26.9,15.2-31.9S942.3,450,942.3,450l-3,0.5l-0.8,0.1c0.1-0.1,0.2-0.2,0.3-0.3
			s-39.3-1.8-45.4-11.3c0,0-17.4-13.8-18.1-23c-0.3-3.9-2.7-7.3-6.2-8.8c-2.1-1-4.5-1.5-6.9-1.3l-8.1,0.6l0.6,1h-0.2
			c-0.5-1.2-0.9-2.4-1.3-3.6h0.2c-0.1-0.3-0.1-0.5-0.2-0.8c10.3-2.4,16.6-12.7,14.2-23c0-0.2-0.1-0.4-0.1-0.5
			c0.8,0.1,1.6,0.1,2.4-0.1c3-0.6,5.1-3.6,5.2-6.7v-0.7c-0.1-3.1-1.5-6-4-7.9c-1.6-1.4-3.6-2.3-5-3.8c-1.8-1.8-2.7-4.2-4.1-6.3
			c-2.3-3.5-5.7-6.1-9.6-7.5c-2.9-1-6.5-1.1-8.8,1c-1.2,1.1-1.8,2.7-3.1,3.6c-1.9,1.3-4.4,0.9-6.7,1.2c-4.2,0.6-7.8,3.4-9.6,7.2
			c-1.1,2.4-1.7,5-1.6,7.6c0,1.8,0.2,3.6,0.6,5.4c0.4,1.7,1.1,3.4,1.6,5.2c1,3.6,1.2,7.4,2.4,10.9c0.8,2.6,2.3,5,4.4,6.7l-0.3,1.5
			c-0.2,0-5.7,1.2-9.5,9.6c-3,6.6-13.2,13.4-17.7,16.1c-1.7,1-2.9,2.7-3.3,4.6c-0.4,1.9-0.6,3.9-0.6,5.9c-0.1,4.3,0.8,10.2,4.2,17.7
			c7.8,17,13.5,24.4,13.5,24.4s0.4,5.2,0.5,10.7c0,4.1-0.3,8.2-1.2,10.2c-0.7,1.7-1,6.1-0.9,11.1c0,9.6,0.9,22.2,0.9,22.2
			s2.7,0.5,6.9,1.1l2.6,45.9c0.3,5.6-1.5,11-5,15.3c-1.8,2.3-3.9,4.3-6.3,6c-7.4,5.3-23.3,61.3-23.3,61.3c0.7,0,1.4,0.1,2.1,0.2
			l-4.9,13.7c0,0,19.6,15,31.5,10.9c1.3-0.4,2.6-0.6,4-0.6c2.3,0,7.4-1.9,4.6-4.3c-5.4-5-10.5-10.3-15.3-15.9
			c0.4,0.2,0.8,0.4,1.1,0.7v-0.1l0.2,0.1c0-0.5,0.1-1,0.1-1.5l-0.2-0.1c0.4-3.7,1.5-13,3.8-14.1c2.8-1.4,23.7-42.9,23.7-42.9
			l20.9-53.8c0,0,16.6,28.7,30.8,33.7v12c0,0,7.8,35.4,10.6,39.3s0,19.5,0,19.5c0.6,0.6,1.2,1.2,1.9,1.7l-2.3,12.8
			c0,0,16.3-0.7,43.9,7.8C948.3,678.1,958.9,673.5,950,667.9z M884.9,482.6l-3.5,0.9l-0.7,0.2c-0.1-0.4-0.1-0.7-0.1-0.7
			c-0.8,0.4-1.6,0.6-2.5,0.6c-1.2-3.9-1.9-7.9-2.1-12c-1.2-4.9-1.9-9.8-2.1-14.8c0-2.6,0.4-4.8,1.4-6.1l1.2,0.1l0.8,0.8h0.1l0.4,0.4
			l0,0l0.4,0.4l0.1,0.1l0.5,0.4l0.1,0.1l0.5,0.4l0,0l0.5,0.4l0.1,0.1l0.6,0.5l0,0l0.5,0.4l0.1,0.1l0.6,0.5l0.1,0.1l0.6,0.4l0.1,0.1
			l0.7,0.5l0.2,0.1l0.7,0.5h0.1l0.7,0.5l0.2,0.1l0.7,0.5l0.2,0.1l0.7,0.4l0.1,0.1l0.8,0.5l0.2,0.1l0.8,0.5h0.1l0.8,0.4l0.2,0.1
			l0.8,0.4l0.2,0.1l0.8,0.4l0.2,0.1l0.9,0.4l0.2,0.1l0.9,0.4l0,0C887.8,468.1,884.9,482.6,884.9,482.6z"/>
		<path class="st19" d="M797.5,650.8l-6.6,18.3c0,0,18,13.8,29.7,10.9c1.8-0.4,3.6-0.7,5.4-0.9c2.4-0.2,6.6-2,4-4.2
			c-8.3-7.3-19.4-20.8-19.4-20.8L797.5,650.8z"/>
		<path class="st19" d="M906.8,649l-3.1,17.6c0,0,15.9-0.7,42.9,7.6c0,0,10.4-4.5,1.7-10c0,0-10,0.7-16.3-10s-10-9.3-10-9.3
			L906.8,649z"/>
		<path class="st20" d="M824.4,521.1l3,53.7c0.3,5.7-1.6,11.3-5.3,15.7c-1.7,2-3.6,3.8-5.7,5.3c-7.3,5.2-22.8,59.8-22.8,59.8
			s17.6,1,22.5,4.5c0,0,1-13.8,3.8-15.2S843,603,843,603l20.4-52.6c0,0,16.3,28,30.1,32.9V595c0,0,7.6,34.6,10.4,38.4s0,19,0,19
			s8,10,26.3-0.7c0,0-5.9-6.6-5.5-14.5s-8-51.5-8-51.5s1-16.6-7.3-27s-22-50.1-22-50.1l-9.5-20.5L824.4,521.1z"/>
		<g class="st15">
			<path d="M797,655.6c0,0,15.6-54.6,22.8-59.8c2.2-1.6,4.2-3.5,6-5.7c3.5-4.3,5.3-9.8,5-15.3l-3-53.7l51-31.4l-0.7-1.5l-53.4,32.9
				l3,53.7c0.3,5.6-1.5,11-5,15.3c-1.8,2.1-3.8,4-6,5.7c-7.3,5.2-22.8,59.8-22.8,59.8s17.6,1,22.5,4.5c0-0.5,0.1-0.9,0.1-1.4
				C809.7,656.3,797,655.6,797,655.6z"/>
			<path d="M907.3,652.5c0,0,2.8-15.2,0-19s-10.4-38.4-10.4-38.4v-11.8c-13.8-4.8-30.1-32.9-30.1-32.9l-1.2,3.1
				c4.7,7.4,17.2,25.9,28.2,29.7v11.8c0,0,7.6,34.6,10.4,38.4s0,19,0,19s3.9,4.9,12.4,4.2C910.2,656.2,907.3,652.5,907.3,652.5z"/>
		</g>
		<path class="st21" d="M943.4,460.9l-6.8,0.5l-3.6,0.2v-8.6l4.7-0.9l2.9-0.5c0,0,9-26.6,17.6-21.8S943.4,460.9,943.4,460.9z"/>
		<path class="st21" d="M834.5,389.6c0,0-4.5,17.3-5.9,28s32.2,2.1,32.2,2.1s-12.8-15.6-5.5-23.9L834.5,389.6z"/>
		<path class="st11" d="M870.8,461.6l0.7,6.6l-10.7-0.7l-10.7-9.3L839.3,428l-6.9-10.7l-5.2-6.6l2.1-8c0,0,1,0.8,2.5,2
			c5.3,4,17.6,12.4,26.7,10.1c0.4-0.1,0.8-0.2,1.2-0.4l13.5,23.2L870.8,461.6z"/>
		<path class="st7" d="M832.1,400.7c0,0-5.5,1-9.3,9.3c-2.9,6.4-12.8,13-17.2,15.7c-1.7,1-2.9,2.7-3.3,4.7
			c-0.9,3.9-1.2,11.3,3.6,21.9c7.6,16.6,13.1,23.9,13.1,23.9s1.4,16.6-0.7,21.4s0,31.5,0,31.5s36.3,6.9,48.4,0s10.4-33.5,10.4-33.5
			s11.4,24.2,15.6,24.9l-2.4-13.5c0,0-13.5-14.5-14.2-33.2c0,0-4.2-17-0.7-21.4c0,0,58.5,4.8,61.9,0.7c0,0-38.4-1.7-44.3-11.1
			c0,0-17-13.5-17.6-22.5c-0.2-3.4-2.2-6.5-5.2-8.1c-2.4-1.3-5.1-1.9-7.8-1.7l-7.8,0.5c0,0,13.5,23.9,12.8,27s0.7,28.4,0.7,28.4
			s-15.6-33.6-22.4-37.4s-14.9-19.4-14.9-19.4L832.1,400.7"/>
		<path class="st7" d="M870.8,461.6l0.7,6.6l-10.7-0.7l-10.7-9.3L839.3,428l-6.9-10.7l-5.2-6.6l2.1-8c0,0,1,0.8,2.5,2l-0.5,2.7
			c0,0,8,15.6,14.9,19.4s22.5,37.4,22.5,37.4s-1.4-25.3-0.7-28.4c0.5-2.1-5.6-13.8-9.5-21.1c0.4-0.1,0.8-0.2,1.2-0.4l13.5,23.2
			L870.8,461.6z"/>
		<path class="st7" d="M936.6,461.3l-3.6,0.2v-8.6l4.7-0.9C936.1,454.2,936.2,458.1,936.6,461.3z"/>
		<path class="st20" d="M832.1,399.7c0,0-5.5,1-9.3,9.3c-2.9,6.4-12.8,13-17.2,15.7c-1.7,1-2.9,2.7-3.3,4.7
			c-0.9,3.9-1.2,11.3,3.6,21.9c7.6,16.6,13.1,23.9,13.1,23.9s1.4,16.6-0.7,21.4s0,31.5,0,31.5s36.3,6.9,48.4,0s10.4-33.5,10.4-33.5
			s11.4,24.2,15.6,24.9l-2.4-13.5c0,0-13.5-14.5-14.2-33.2c0,0-4.2-17-0.7-21.4c0,0,13.5,14.5,28.7,14.2c11.1-0.1,22.2,0.5,33.2,1.7
			c0,0-3.5-11.1,0-15.2c0,0-38.4-1.7-44.3-11.1c0,0-17-13.5-17.6-22.5c-0.2-3.4-2.2-6.5-5.2-8.1c-2.4-1.3-5.1-1.9-7.8-1.7l-7.8,0.5
			c0,0,13.5,23.9,12.8,27s0.7,28.4,0.7,28.4s-15.6-33.6-22.5-37.4s-14.9-19.4-14.9-19.4L832.1,399.7"/>
		<path class="st7" d="M824.4,436c0,0,8.3,28,13.1,31.5s34.2,21.1,42.9,17c0,0,2.1,10.4-1,12.8c0,0-32.3-1.3-32.5-1.4
			c0,0-21.1-2.8-24.6-13.1s-7.6-28-7.6-28L824.4,436z"/>
		<ellipse class="st22" cx="868.7" cy="465.9" rx="1.2" ry="1.7"/>
		<ellipse class="st22" cx="872.2" cy="478" rx="1.2" ry="1.7"/>
		<g class="st15">
			<path d="M820.7,527.6c0,0-2.1-26.6,0-31.5s0.7-21.4,0.7-21.4s-5.5-7.3-13.1-23.9c-4.8-10.6-4.5-17.9-3.6-21.9
				c0.5-2,1.7-3.6,3.4-4.7c4.4-2.7,14.3-9.3,17.2-15.7c2.2-4.7,4.8-7,6.8-8.2l0.1-0.8c0,0-5.5,1-9.3,9.3c-2.9,6.4-12.8,13-17.2,15.7
				c-1.7,1-2.9,2.7-3.3,4.7c-0.9,3.9-1.2,11.3,3.6,21.9C813.4,467.8,819,475,819,475s1.4,16.6-0.7,21.4s0,31.5,0,31.5
				s25.9,4.9,41.3,2.3C844,532.1,820.7,527.6,820.7,527.6z"/>
			<path d="M867.3,436c-0.5,2.1,0,14.7,0.4,22.3c1.7,3.4,2.7,5.7,2.7,5.7s-1.4-25.3-0.7-28.4s-11.5-24.7-12.7-26.8l-2.5,0.2
				C854.5,409,868,432.9,867.3,436z"/>
			<path d="M906.4,465c-15.2,0.4-28.7-14.2-28.7-14.2c-0.4,0.6-0.7,1.2-0.9,1.9c4,3.7,15,12.9,27.2,12.6c11.1-0.1,22.2,0.5,33.2,1.7
				c0,0-0.1-0.2-0.2-0.6C926.9,465.4,916.6,464.9,906.4,465z"/>
			<path d="M879.4,494.1c0,0,0.1,2.2,0.1,5.4c3.6,7.1,10.2,19.3,13.1,19.8l-0.5-2.8C887,510.2,879.4,494.1,879.4,494.1z"/>
		</g>
		<path class="st21" d="M889.1,490.6l-7.3,1.5l-5.8,1.2l3.1-8.6l2.2-0.5l3.4-0.8c0,0,4.8-24.2,14.5-22.5S889.1,490.6,889.1,490.6z"
			/>
		<path class="st7" d="M881.8,492.2l-5.8,1.2l3.1-8.6l2.2-0.5C881.8,486.8,881.9,489.5,881.8,492.2z"/>
		<path class="st20" d="M824.4,435.3c0,0,8.3,28,13.1,31.5s34.2,21.1,42.9,17c0,0,2.1,10.4-1,12.8c0,0-32.3-1.3-32.5-1.4
			c0,0-21.1-2.8-24.6-13.1s-7.6-28-7.6-28L824.4,435.3z"/>
		<path class="st7" d="M834.8,390.3c0,0-0.7,2.7-1.6,6.6c3.9,7.5,12.4,11.4,20.6,9.5c-0.8-3.5-0.7-7.1,1.8-9.9L834.8,390.3z"/>
		<circle class="st21" cx="849.4" cy="387.6" r="18.7"/>
		<path class="st7" d="M865.6,382.4c1.4,0.4,2.8,0.5,4.2,0.3c3-0.8,5-3.5,5.1-6.5c-0.1-3-1.5-5.9-3.8-7.7c-1.6-1.3-3.5-2.3-4.9-3.7
			c-1.7-1.8-2.7-4.1-4-6.1c-2.2-3.4-5.5-6-9.4-7.3c-2.9-1-6.4-1.1-8.6,1c-1.1,1.1-1.8,2.6-3,3.5c-1.8,1.3-4.3,0.9-6.5,1.2
			c-4.1,0.6-7.6,3.2-9.4,7c-1.7,3.8-2,8-0.9,12c0.4,1.7,1.1,3.3,1.5,5c1,3.5,1.2,7.2,2.3,10.7s3.4,6.9,6.9,7.9
			c-0.3-3.9,0.5-7.8,2.2-11.3c0.3-0.8,0.9-1.4,1.6-1.8c0.6-0.2,1.3-0.2,1.9,0c4.4,0.6,8.9-0.3,12.7-2.6c1.3-0.8,3.4-3.6,4.8-3.8
			C860,379.8,863.7,382,865.6,382.4z"/>
		<path class="st23" d="M865.6,381.7c1.4,0.4,2.8,0.5,4.2,0.3c3-0.8,5-3.5,5.1-6.5c-0.1-3-1.5-5.9-3.8-7.7c-1.6-1.3-3.5-2.3-4.9-3.7
			c-1.7-1.8-2.7-4.1-4-6.1c-2.2-3.4-5.5-6-9.4-7.3c-2.9-1-6.4-1.1-8.6,1c-1.1,1.1-1.8,2.6-3,3.5c-1.8,1.3-4.3,0.9-6.5,1.2
			c-4.1,0.6-7.6,3.2-9.4,7c-1.7,3.8-2,8-0.9,12c0.4,1.7,1.1,3.3,1.5,5c1,3.5,1.2,7.2,2.3,10.7s3.4,6.9,6.9,7.9
			c-0.3-3.9,0.5-7.8,2.3-11.3c0.3-0.8,0.9-1.4,1.6-1.8c0.6-0.2,1.3-0.2,1.9,0c4.4,0.6,8.9-0.3,12.7-2.6c1.3-0.8,3.4-3.6,4.8-3.8
			C860,379.1,863.7,381.3,865.6,381.7z"/>
		<path class="st24" d="M1051.9,320.1l-15.2,170.7l-68.5,19l-68.3-19l-15.2-170.7L1051.9,320.1z"/>
		<path class="st25" d="M968.3,495.3l55.3-15.3l13-145.9h-68.3V495.3z"/>
		<path class="st26" d="M938.7,375.9h29.6V355h-52.5l0.5,5.6l5.2,57.7h46.9v-21h-27.7L938.7,375.9z M943.4,428.8h-21l2.9,32.9
			l42.8,11.9h0.1v-21.9h-0.1l-23.3-6.3L943.4,428.8z"/>
		<path d="M900.2,273.7h10.6v10.5h9.7v-10.5h10.6v31.8h-10.6v-10.7h-9.7v10.7h-10.6V273.7z M945.2,284.2h-9.4v-10.6h29.4v10.6h-9.4
			v21.3h-10.6L945.2,284.2L945.2,284.2L945.2,284.2z M969.9,273.7H981l6.8,11.2l6.8-11.2h11.1v31.8h-10.6v-15.8l-7.3,11.3h-0.2
			l-7.3-11.3v15.8h-10.4V273.7z M1011,273.7h10.6V295h15v10.5h-25.6L1011,273.7L1011,273.7z"/>
		<path class="st27" d="M968.2,418.3H994l-2.4,27.2l-23.3,6.3v21.8l42.9-11.9l0.3-3.5l4.9-55.1l0.5-5.6h-48.7V418.3L968.2,418.3z
			 M968.2,375.9L968.2,375.9h50.6l0.4-4.7l1-10.6l0.5-5.6h-52.5V375.9L968.2,375.9z"/>
		
			<linearGradient id="SVGID_2_" gradientUnits="userSpaceOnUse" x1="447.9309" y1="-916.58" x2="447.9309" y2="-1311.79" gradientTransform="matrix(1 0 0 1 -84.99 1676.23)">
			<stop  offset="0" style="stop-color:#808080;stop-opacity:0.25"/>
			<stop  offset="0.54" style="stop-color:#808080;stop-opacity:0.12"/>
			<stop  offset="1" style="stop-color:#808080;stop-opacity:0.1"/>
		</linearGradient>
		<path class="st28" d="M438.1,446.1c-2-5.7-4.8-13-7-14.7c-0.1-0.1-0.3-0.2-0.4-0.3h-0.3v-7l-5.3,0.8c-0.8-2.5-1.5-5.2-1.9-7.8
			c1,1.1,2.6,1.4,4,0.8c-0.1-0.1-0.2-0.3-0.2-0.4l0.2-0.1c-0.8-1.5-1.3-3.1-1.3-4.8c0-1.5,0.3-3.1,0.7-4.5c0.9-3.3,2.5-6.3,3.4-9.5
			c0.6-2.1,0.8-4.3,0.8-6.5c0-3.7-0.8-7.3-2.5-10.6c-0.4-1-1-1.8-1.9-2.4c-0.7-0.4-1.5-0.8-2.3-1.1c-1.3-0.9-2.4-2-3.3-3.3
			c-3.7-4.6-8.8-7.9-14.4-9.6c-1.5-0.5-3.1-0.7-4.6-0.4c-3.5,1-4.8,5.3-7.7,7.6c-2.5,2-6,2.2-9.2,2.9c-3.2,0.6-6.2,2.1-8.5,4.5
			c-1.5,1.7-2.3,3.9-2.3,6.2c-0.2,2.2,0.8,4.2,2.5,5.5c2,1.3,4.4,1.7,6.7,1c-3.5,12.1,3.5,24.7,15.5,28.2c0.6,0.2,1.1,0.3,1.7,0.4
			l0.6,1.1l0,0c1.9,3.5,3.3,7.3,4.3,11.2c-4.8,2.8-10.1,5.3-13.3,5.6c-0.1,1.2-0.4,2.5-0.7,3.7c-0.7,3-2.2,5.9-4.2,8.3
			c-4.3,4.9-23.9,41.8-23.9,41.8s-0.6,1.5-1.6,4c-12.1,1.5-31.9,3.6-37.5,2.5l-21.7-20.6c0,0-7,5.4-6.4,11.9l-3.9-3.7
			c0,0-20.6,15.7,11.9,26l49.5,5.8c-4.7,14.2-9.1,30.8-7.8,39.8h0.4c0.9,0,1.9-0.1,2.8-0.2l-0.1,1.6l-4.8,85.4
			c0,0-1.1,15.7,13.6,22.8c0,0,17.9,52.6,10.9,58.6c0,0,0.8,0.4,2.3,1.1l-14.7,13c0,0-10.9,2.7-16.8,2.2c-2.2-0.3-4.2,1.1-4.8,3.2
			c0,0.1,0,0.2-0.1,0.3v1c0,0.1,0,0.2,0.1,0.3v0.1c0,0.1,0.1,0.2,0.1,0.4v0.1c0,0.1,0.1,0.2,0.2,0.4v0.1c0.1,0.1,0.1,0.2,0.2,0.4
			l0.1,0.1c0.1,0.1,0.2,0.3,0.3,0.4l0.1,0.1c0.1,0.1,0.2,0.3,0.4,0.4h0.1l0.4,0.3l0.1,0.1l0.5,0.3l0.1,0.1l0.6,0.3h0.1l0.6,0.3h0.1
			l0.7,0.3l0.1,0.1l0.8,0.3h0.1l0.9,0.2h0.1l1,0.2h0.2l1,0.2h0.2l1.1,0.1c2.2,0.2,5.2,0.2,8.7,0.2l0,0v0.6c0,0.1,0,0.2,0.1,0.3v0.1
			c0,0.1,0.1,0.2,0.1,0.4v0.1c0,0.1,0.1,0.2,0.2,0.4v0.1c0.1,0.1,0.1,0.2,0.2,0.4l0.1,0.1c0.1,0.1,0.2,0.3,0.3,0.4l0.1,0.1
			c0.1,0.1,0.2,0.3,0.4,0.4l0,0l0.4,0.3l0.1,0.1l0.5,0.3l0.1,0.1l0.6,0.3h0.1l0.6,0.3h0.1l0.7,0.3l0.1,0.1l0.8,0.3h0.1l0.9,0.2h0.1
			l1,0.2h0.2l1,0.2h0.2l1.1,0.1c14.1,1.1,59.1-2.2,59.1-2.2v-0.1l0,0v-0.2l0,0c0.5-2.1,2.6-14.3-5.1-23.3c0.2-0.2,0.5-0.5,0.7-0.8
			c0.3-0.4-6-10.3-2.7-13.6s-15.9-59.2-15.9-59.2s-10.3-16.3-4.3-34.7s-0.5-38.5-0.5-38.5s14.3-4.2,14.5-21.8V563
			c0.3,0,0.6,0.1,0.9,0.1c0.2,0,0.4,0,0.6,0c0,0-2.7-9.8,0.5-16.8s10.3-0.5,16.8-29.3c4.7-20.8,8.9-44.7,10.8-56.4
			C440.1,455.7,439.7,450.7,438.1,446.1z M314.3,507.1l-5-4.7c1.6,0.7,3.5,1.3,5.5,2l18.6,2.2C325.1,507.3,317.4,507.8,314.3,507.1
			L314.3,507.1z"/>
		<path class="st12" d="M361.6,504.4c0,0-38.4,5.3-46.4,3.7l-21.3-20.3c0,0-20.3,15.5,11.7,25.6l59.7,6.9L361.6,504.4z"/>
		<path class="st29" d="M361.6,504.4c0,0-38.4,5.3-46.4,3.7l-21.3-20.3c0,0-20.3,15.5,11.7,25.6l59.7,6.9L361.6,504.4z"/>
		<path class="st30" d="M286.4,517.8l-82.9-23L185,287.5h203.1l-18.5,207.3L286.4,517.8z"/>
		<path class="st31" d="M353.8,481.6l15.8-177.1h-83v195.7L353.8,481.6z"/>
		<path class="st26" d="M227.4,381.3l2.3,25.4h56.9v-25.4H227.4z M222.8,329.9l2.3,25.4h61.4v-25.4L222.8,329.9L222.8,329.9z
			 M286.6,447.4h-0.1l-28.3-7.6l-1.8-20.3h-25.6l3.6,39.9l52.1,14.5h0.1L286.6,447.4z"/>
		<path d="M232.8,231.1h30.8V244h-17.9v12.9h17.9v12.9h-30.8V231.1z M269.8,231.1h30.8v11.2h-18v2.2h17.9v25.8h-30.8v-11.8h17.9
			v-2.2h-17.9L269.8,231.1L269.8,231.1z M306.8,231.1h30.8v11.2h-18v2.2h17.9v25.8h-30.8v-11.8h17.9v-2.2h-17.9v-25.2L306.8,231.1z"
			/>
		<path class="st27" d="M345.6,381.3l4.6-51.5h-63.7v25.4h35.8l-2.3,26h-33.5v25.4h31.3l-3,33l-28.3,7.7v26.5l52.1-14.5l0.4-4.3
			l6-66.9L345.6,381.3L345.6,381.3z"/>
		<path class="st32" d="M375.4,720.8l-18.7,16.5c0,0-10.7,2.7-16.5,2.1s-8.5,9.1,5.3,10.1s58.1-2.1,58.1-2.1s4.3-17.1-8.5-26.7
			L375.4,720.8z"/>
		<path class="st29" d="M375.4,720.8l-18.7,16.5c0,0-10.7,2.7-16.5,2.1s-8.5,9.1,5.3,10.1s58.1-2.1,58.1-2.1s4.3-17.1-8.5-26.7
			L375.4,720.8z"/>
		<path class="st33" d="M404.3,740.1c0,1.9-0.3,3.9-0.7,5.8c0,0-44.2,3.2-58.1,2.1c-6.7-0.5-9.5-3-10-5.4c-0.6,2.7,1.8,6.3,10,7
			c13.9,1.1,58.1-2.1,58.1-2.1C404.2,745,404.4,742.5,404.3,740.1z"/>
		<path class="st12" d="M397.3,418.6c0,0,11.7,16.5,7.5,27.7s22.4-11.7,22.4-11.7s-8.5-15-4.3-31L397.3,418.6z"/>
		<path class="st32" d="M394.1,727.2l-18.6,16.5c0,0-10.7,2.7-16.5,2.1s-8.5,9.1,5.3,10.1s58.1-2.1,58.1-2.1s4.3-17.1-8.5-26.7
			H394.1z"/>
		<path class="st13" d="M399.4,723.5c-2.8,3.4-6.7,4.8-10.8,5c-9.3,0.4-19.6-5-19.6-5c6.9-5.9-10.7-57.6-10.7-57.6
			c-14.4-6.9-13.3-22.4-13.3-22.4l4.7-83.9l1.2-21.1l14.9-9.1l11.8,9l11.2,8.6c0.7,2.7,1.2,5.5,1.4,8.3
			c1.3,19.6-14.2,24.2-14.2,24.2s6.4,19.7,0.5,37.8s4.3,34.1,4.3,34.1s19.2,55.4,16,58.6S399.4,723.5,399.4,723.5z"/>
		<path class="st29" d="M399.4,723.5c-2.8,3.4-6.7,4.8-10.8,5c-9.3,0.4-19.6-5-19.6-5c6.9-5.9-10.7-57.6-10.7-57.6
			c-14.4-6.9-13.3-22.4-13.3-22.4l4.7-83.9l1.2-21.1l14.9-9.1l11.8,9l11.2,8.6c0.7,2.7,1.2,5.5,1.4,8.3
			c1.3,19.6-14.2,24.2-14.2,24.2s6.4,19.7,0.5,37.8s4.3,34.1,4.3,34.1s19.2,55.4,16,58.6S399.4,723.5,399.4,723.5z"/>
		<path class="st13" d="M418.1,729.8c-9.1,11.2-30.4,0-30.4,0c0.4-0.4,0.7-0.9,0.9-1.5c3.9-10.6-13.2-61.5-13.2-61.5
			c-14.4-6.9-16-23.5-16-23.5l-3.8-85.4l-0.5-11.1l22.4-8.6l6.9-2.6l23,17.6c1,3.6,1.5,7.4,1.4,11.2c-0.3,17.2-14.3,21.4-14.3,21.4
			s6.4,19.7,0.5,37.8s4.3,34.1,4.3,34.1s19.2,55.4,16,58.6S418.1,729.8,418.1,729.8z"/>
		<path class="st7" d="M408.9,564.6c-4.6-0.7-13.9-6.2-18.7-9.2c-1.8-1.2-3-1.9-3-1.9s-4.8-13.3-17.6-3.2c-4.2,3.4-8.9,6-13.9,7.9
			c-1.9,0.7-3.9,1.2-5.9,1.5l1.2-21.1l14.9-9.1l11.8,9l6.9-2.6l23,17.6C408.4,557.1,408.9,560.8,408.9,564.6z"/>
		<path class="st34" d="M437.7,462.3c-1.9,11.4-6,35-10.6,55.4c-6.4,28.3-13.3,21.8-16.5,28.8s-0.5,16.5-0.5,16.5
			c-5.3,0.5-22.9-11.2-22.9-11.2s-4.8-13.3-17.6-3.2s-22.9,9.6-22.9,9.6c-2.7-17.6,17.1-64.5,17.1-64.5s19.2-36.3,23.5-41
			c2-2.3,3.4-5.1,4.1-8.1c0.3-1.2,0.6-2.4,0.7-3.6c6.9-0.5,24-12.3,24-12.3l13.3-2.1v6.9c0.2,0.1,0.3,0.2,0.4,0.3
			c2.2,1.7,5,8.8,6.9,14.4C438.1,452.7,438.5,457.6,437.7,462.3z"/>
		<path class="st12" d="M375.4,512.4l-6.9-0.8l-52.8-6.1c-32-10.1-11.7-25.6-11.7-25.6l21.3,20.3c6.1,1.2,30.3-1.6,41.1-3l5.3-0.7
			L375.4,512.4z"/>
		<path class="st7" d="M427.1,440.4c0,0-13.9-11.2-34.7,25s-25.6,30.4-25.6,30.4s4.3,16,2.1,19.2c0,0,14.4-1.1,19.7,0
			s38.4-40.5,38.4-40.5S444.2,451.1,427.1,440.4z"/>
		<path class="st7" d="M426.6,438.3c0,0-13.9-11.2-34.6,25s-25.6,30.4-25.6,30.4s16.5,18.1,21.9,19.2c5.3,1.1,38.4-40.5,38.4-40.5
			S443.6,448.9,426.6,438.3z"/>
		<path class="st7" d="M368.5,511.6c0.2-4-1.3-10.9-2.1-14.5l5.3-0.7l3.7,16L368.5,511.6z"/>
		<path class="st34" d="M427.1,439.3c0,0-13.9-11.2-34.7,25.1s-25.6,30.4-25.6,30.4s4.3,16,2.1,19.2c0,0,14.4-1.1,19.7,0
			s38.4-40.5,38.4-40.5S444.2,450,427.1,439.3z"/>
		<path class="st7" d="M423.4,404.7l-25.6,14.9c1.1,1.6,2.1,3.2,3,4.9c1.5,0.3,3,0.5,4.5,0.5c6.8,0,10-7.2,14.1-12
			C419.1,409.1,422.3,409,423.4,404.7z"/>
		<circle class="st12" cx="404.7" cy="401.5" r="22.4"/>
		<path class="st7" d="M376.4,383.4c2.3-2.3,5.2-3.9,8.4-4.4c3.1-0.7,6.5-0.9,9-2.9c2.8-2.3,4.1-6.5,7.5-7.5
			c1.5-0.3,3.1-0.2,4.5,0.4c5.5,1.7,10.5,4.9,14.1,9.4c0.9,1.3,2,2.4,3.3,3.3c0.8,0.3,1.5,0.7,2.2,1.1c0.8,0.6,1.4,1.5,1.8,2.4
			c2.5,5,3.1,10.8,1.6,16.3c-0.9,3.2-2.4,6.2-3.4,9.4s-1.2,6.8,0.5,9.7c-1.6,0.8-3.7-0.2-4.7-1.8s-1.3-3.4-1.9-5.2
			c-1.1-3.5-3.1-6.6-5.8-9c-1.7-1.5-4.7-2.5-5.9-0.6c-0.5,0.7-0.4,1.7-0.8,2.5c-0.8,1.5-3,1.8-4.4,1c-1.4-1-2.4-2.4-2.8-4.1
			c-2.2-7.4-5.9-12.1-13.9-8.9c-3,1.2-6.5,2-9.3,0C373,391.7,373.7,386.4,376.4,383.4z"/>
		<path class="st35" d="M376.4,382.8c2.3-2.3,5.2-3.9,8.4-4.4c3.1-0.7,6.5-0.9,9-2.9c2.8-2.3,4.1-6.5,7.5-7.5
			c1.5-0.3,3.1-0.2,4.5,0.4c5.5,1.7,10.5,4.9,14.1,9.4c0.9,1.3,2,2.4,3.3,3.3c0.8,0.3,1.5,0.7,2.2,1.1c0.8,0.6,1.4,1.5,1.8,2.4
			c2.5,5,3.1,10.8,1.6,16.3c-0.9,3.2-2.4,6.2-3.4,9.4s-1.2,6.8,0.5,9.7c-1.6,0.8-3.7-0.2-4.7-1.8s-1.3-3.4-1.9-5.2
			c-1.1-3.5-3.1-6.6-5.8-9c-1.7-1.5-4.7-2.5-5.9-0.6c-0.5,0.7-0.4,1.7-0.8,2.5c-0.8,1.5-3,1.8-4.4,1c-1.4-1-2.4-2.4-2.8-4.1
			c-2.2-7.4-5.9-12.1-13.9-8.9c-3,1.2-6.5,2-9.3,0C373,391.2,373.7,385.9,376.4,382.8z"/>
		<path class="st29" d="M429.7,433.7h-10.8c0,0-21.3,10.7-21.9,10.1c-0.4-0.4-3.7,0.3-5.8,0.7c0.3-1.2,0.6-2.4,0.7-3.6
			c6.9-0.5,24-12.3,24-12.3l13.3-2.1v6.9C429.4,433.5,429.6,433.6,429.7,433.7z"/>
		<path class="st33" d="M423,746.5c0,1.9-0.3,3.9-0.7,5.8c0,0-44.2,3.2-58.1,2.1c-6.7-0.5-9.5-3-10-5.4c-0.6,2.7,1.8,6.3,10,7
			c13.9,1.1,58.1-2.1,58.1-2.1C422.9,751.4,423.1,748.9,423,746.5z"/>
		<g class="st36">
			<path d="M364.5,548.1c-5.2,4.3-11.2,7.3-17.7,9c0,0.4,0.1,0.8,0.1,1.2c0,0,10.1,0.5,22.9-9.6c2-1.7,4.3-2.9,6.9-3.6
				C373.9,543.7,369.9,543.8,364.5,548.1z"/>
			<path d="M436.8,448.1c-1.9-5.6-4.7-12.7-6.9-14.4c-0.1-0.1-0.3-0.2-0.4-0.3c0,0-4.4,0.1-4.3,0.3c2.2,1.7,4.3,8.3,6.2,13.9
				c1.5,4.6,1.9,9.4,1.2,14.2c-1.9,11.4-6,35-10.6,55.4c-6.4,28.3-13.3,21.8-16.5,28.8c-2.6,5.7-1.3,13.1-0.7,15.7
				c1.7,0.9,3.6,1.3,5.5,1.4c0,0-2.7-9.6,0.5-16.5s10.1-0.5,16.5-28.8c4.6-20.4,8.7-44,10.6-55.4
				C438.8,457.5,438.4,452.7,436.8,448.1z"/>
		</g>
		<path class="st5" d="M498.8,547.7c1.8-1.5,3.2-3.5,3.8-5.8c0.5-2.3-0.5-5-2.7-5.9c-2.5-0.9-5.1,0.8-7.1,2.5s-4.3,3.7-6.9,3.3
			c2.7-2.5,4-6.2,3.2-9.8c-0.1-0.7-0.4-1.4-0.9-2c-1.4-1.5-3.8-0.8-5.5,0.3c-5.2,3.7-6.6,10.7-6.7,17.1c-0.5-2.3-0.1-4.7-0.1-7
			s-0.7-5-2.6-6.2c-1.2-0.7-2.6-1-4-1c-2.3-0.1-4.9,0.2-6.5,1.9c-2,2.1-1.5,5.7,0.3,8s4.4,3.8,6.8,5.4c1.9,1.2,3.6,2.7,4.8,4.6
			c0.1,0.3,0.3,0.5,0.4,0.8h14.6C493,552.2,496.1,550.2,498.8,547.7z"/>
		<path class="st5" d="M525.7,735.5c2.3-2.2,4.5-4.7,5.2-7.8s-0.7-6.8-3.6-8c-3.3-1.3-6.9,1-9.6,3.4s-5.8,5-9.3,4.5
			c3.7-3.4,5.4-8.4,4.4-13.3c-0.2-1-0.6-1.9-1.2-2.7c-1.9-2-5.2-1.1-7.4,0.4c-7,5-9,14.5-9,23.2c-0.7-3.1-0.1-6.3-0.1-9.5
			s-0.9-6.7-3.6-8.4c-1.7-0.9-3.6-1.3-5.5-1.3c-3.2-0.1-6.7,0.2-8.9,2.5c-2.7,2.9-2,7.7,0.4,10.9s5.9,5.2,9.2,7.3
			c2.6,1.6,4.9,3.7,6.5,6.3c0.2,0.4,0.4,0.7,0.5,1.1h19.9C517.9,741.7,522,738.8,525.7,735.5z"/>
	</g>
</g>
</svg>
