<?xml version="1.0" encoding="utf-8"?>
<!-- Generator: Adobe Illustrator 22.0.0, SVG Export Plug-In . SVG Version: 6.00 Build 0)  -->
<svg version="1.1" id="图层_1" xmlns="http://www.w3.org/2000/svg" xmlns:xlink="http://www.w3.org/1999/xlink" x="0px" y="0px"
	 viewBox="0 0 1172.9 866.3" style="enable-background:new 0 0 1172.9 866.3;" xml:space="preserve">
<style type="text/css">
	.st0{fill-opacity:0;}
	.st1{opacity:0.1;fill:#FF0000;enable-background:new    ;}
	.st2{opacity:0.2;}
	.st3{fill:none;stroke:#535461;stroke-width:2;stroke-miterlimit:10;}
	.st4{fill:#EF313D;}
	.st5{fill:url(#SVGID_1_);}
	.st6{fill:#F6F7F9;}
	.st7{fill:#FF0000;}
	.st8{fill:url(#SVGID_2_);}
	.st9{fill:#797C9C;}
	.st10{opacity:5.000000e-02;enable-background:new    ;}
	.st11{fill:none;stroke:#535461;stroke-miterlimit:10;}
	.st12{opacity:0.25;enable-background:new    ;}
	.st13{fill:url(#SVGID_3_);}
	.st14{fill:#E8EAF1;}
	.st15{fill:#FFB9B9;}
	.st16{fill:#E4E2F3;}
	.st17{fill:#4C4C78;}
	.st18{opacity:0.1;enable-background:new    ;}
	.st19{fill:#B36362;}
	.st20{fill:url(#SVGID_4_);}
	.st21{fill:#DB8B8B;}
	.st22{fill:#474463;}
	.st23{fill:#CBCDDA;}
	.st24{fill:#472727;}
</style>
<title>s2</title>
<g id="图层_2_1_">
	<g id="_03030b4a-9996-4111-83fa-29dc66776d7b">
		<rect class="st0" width="1172.9" height="866.3"/>
		<path class="st1" d="M113.7,528.5c-12,2-27,7.5-26.9,20.5c0.1,6.6,4.4,12.2,8.7,17c18.1,20.6,38.7,38.8,61.3,54.2
			c10.8,7.3,22.4,14.3,29.6,25.7s9,25.8,9.6,39.5c1.4,32.5-2.4,65-11.3,96.3c35.2,6.7,74.5,12.6,103.9-8.6
			c17.6-12.7,29.5-34,49.1-42.8c13.1-5.9,27.9-5.4,42.1-4.6c67.5,3.6,134.8,10.2,202,20c28.1,4.1,56.8,8.7,84.6,3.4
			s55.2-22.6,65.5-50.6c1.6-4.3,3-9.1,6.5-11.7c3.2-2.3,7.4-2.3,11.3-2.1l235.1,8.1c12.9,0.4,26.2,0.8,38-4.5
			c11.4-5.1,20.2-15,28.7-24.7c19.3-22.1,40.2-49.2,34.5-79.1c-4.6-24-24.9-40.8-45.1-52.5s-42.4-21.4-57.2-40.1
			c-22.5-28.6-21.7-69.5-23.1-106.5c-1.3-33.6-5.4-67-12.3-99.8c-6.1-28.9-14.6-57.8-30.5-82.2s-40.2-43.9-67.8-47.5
			c-35.9-4.6-72.1,17.7-107.2,8.2c-29.7-8-50.1-36.4-74.8-56.1c-43.7-35-101.1-42.3-155.3-43c-57.5-0.7-116.5,5.1-167.8,32.1
			c-11.7,6.2-23.2,13.7-31.4,24.6c-12.5,16.7-15.5,39.2-23.6,58.8c-32.9,78.8-139.7,95.8-174.4,173.8c-12.3,27.7-12.2,59.9-3.2,89
			c9.7,31.3,36.8,48.5,47.6,75.8C148.3,526.3,127.7,526.3,113.7,528.5z"/>
		<g class="st2">
			<path class="st3" d="M971.6,435.6c0,0,4.8-63.8,40.8-98.4c15.2-14.4,25.3-33.4,28.8-54.1c1.6-9.8,2.2-19.8,2-29.7"/>
			<path class="st4" d="M1065.9,231.4c-2.7,7-23.1,22.6-23.1,22.6s-5-25.2-2.4-32.2c2.7-7,10.5-10.6,17.6-7.9
				C1065,216.5,1068.5,224.3,1065.9,231.4L1065.9,231.4z"/>
			<path class="st4" d="M1072.2,278.3c-6.1,4.5-31.7,6.4-31.7,6.4s9.5-23.9,15.5-28.4c6.1-4.5,14.6-3.2,19,2.9
				C1079.5,265.3,1078.2,273.8,1072.2,278.3L1072.2,278.3z"/>
			<path class="st4" d="M1046.1,344.5c-7.5,0.8-30.6-10.5-30.6-10.5s20.3-15.8,27.7-16.6c7.5-0.6,14.1,5,14.7,12.5
				C1058.5,337.1,1053.3,343.6,1046.1,344.5L1046.1,344.5L1046.1,344.5z"/>
			<path class="st4" d="M1015.1,390.2c-7.2,2-31.9-5.1-31.9-5.1s17.3-19,24.5-21.1c7.2-2,14.8,2.2,16.8,9.4
				C1026.5,380.6,1022.3,388.1,1015.1,390.2L1015.1,390.2L1015.1,390.2z"/>
			<path class="st4" d="M1013.3,276c3.2,6.8,24.8,20.8,24.8,20.8s3.1-25.5-0.1-32.3c-3.2-6.8-11.3-9.7-18.1-6.5
				C1013,261.1,1010.1,269.2,1013.3,276z"/>
			<path class="st4" d="M977.6,329.8c5.1,5.5,29.8,12.4,29.8,12.4s-4.7-25.3-9.8-30.8c-5.1-5.5-13.7-5.9-19.2-0.8
				C972.9,315.7,972.5,324.3,977.6,329.8L977.6,329.8z"/>
			<path class="st4" d="M950.2,386.9c4.1,6.3,27.3,17.3,27.3,17.3s-0.4-25.7-4.4-32c-4.2-6.2-12.7-7.8-18.9-3.6
				C948.2,372.7,946.5,380.7,950.2,386.9L950.2,386.9z"/>
		</g>
		
			<linearGradient id="SVGID_1_" gradientUnits="userSpaceOnUse" x1="620.56" y1="-1214.1699" x2="620.56" y2="-1675.1699" gradientTransform="matrix(1 0 0 1 0 1827.6599)">
			<stop  offset="0" style="stop-color:#808080;stop-opacity:0.25"/>
			<stop  offset="0.54" style="stop-color:#808080;stop-opacity:0.12"/>
			<stop  offset="1" style="stop-color:#808080;stop-opacity:0.1"/>
		</linearGradient>
		<polygon class="st5" points="250.2,152.5 250.2,188.5 250.2,613.5 991,613.5 991,188.5 991,152.5 		"/>
		<rect x="258" y="157.4" class="st6" width="725.2" height="35.2"/>
		<g class="st2">
			<rect x="258" y="157.4" class="st7" width="725.2" height="35.2"/>
		</g>
		<rect x="258" y="192.6" class="st6" width="725.2" height="416"/>
		<circle class="st6" cx="275.4" cy="174.8" r="7.8"/>
		<circle class="st6" cx="296.2" cy="174.8" r="7.8"/>
		<circle class="st6" cx="317.1" cy="174.8" r="7.8"/>
		<g class="st2">
			<rect x="283.2" y="244.3" class="st7" width="373" height="27"/>
		</g>
		<g class="st2">
			<rect x="751.8" y="244.3" class="st7" width="195.6" height="27"/>
		</g>
		<g class="st2">
			<rect x="355.8" y="499.1" class="st7" width="26.1" height="86.1"/>
			<rect x="406.2" y="437.3" class="st7" width="26.1" height="147.8"/>
			<rect x="456.7" y="375.6" class="st7" width="26.1" height="209.5"/>
			<rect x="507.1" y="395.6" class="st7" width="26.1" height="189.6"/>
			<rect x="557.5" y="454.7" class="st7" width="26.1" height="130.4"/>
		</g>
		<g class="st2">
			<rect x="751.4" y="330.4" class="st7" width="195.6" height="240.4"/>
		</g>
		
			<linearGradient id="SVGID_2_" gradientUnits="userSpaceOnUse" x1="1114.8666" y1="-947.4875" x2="1114.8666" y2="-1355.6112" gradientTransform="matrix(1 0 0 1 -99.6 1747.0701)">
			<stop  offset="0" style="stop-color:#808080;stop-opacity:0.25"/>
			<stop  offset="0.54" style="stop-color:#808080;stop-opacity:0.12"/>
			<stop  offset="1" style="stop-color:#808080;stop-opacity:0.1"/>
		</linearGradient>
		<path class="st8" d="M1083.9,501.5c-1.3-6.4-3.7-12.6-3.7-19.1c-0.1-10.5,5.5-22.7-1.8-30.5c-1.7-1.8-3.9-3.1-5.2-5.2
			c-0.9-1.8-1.4-3.8-1.3-5.8c-0.1-12.3,6.6-24.7,2.6-36.4c-0.8-2.6-2.4-4.9-4.6-6.5c-2.3-1.5-5-1.8-7.9-1.8c-2.6,0-5.3,0.3-8,0.3
			c-1.5,0-3-0.2-4.5-0.6c-3.1-0.9-5.7-2.9-8.8-3.9c-1.6-0.5-3.3-0.8-5-0.7c-6.7-0.2-12.9,4.3-17.6,8.6c-2.4,2-4.9,3.8-7.5,5.5
			c0.4-0.3-9.3,6.4-5.7,6.5c2.6,0.1,5.1,1,7.2,2.5c-4.5,7-4.1,16.1,1,22.7c-1.6-1.6-3.3-3.3-5.2-5c-5.4-5.3-12.8-12.3-16.4-14.3
			c-5.8-3.1-14.1-9.9-14.1-9.9s-10.8,6-7.4,14.3c1.6,0.5,3.1,1.1,4.6,1.8c0,1.1,0.2,2.2,0.6,3.2c3.4,1.1,6.6,2.7,9.5,4.7
			c0.3,0.5,0.6,0.9,0.9,1.4c1.4,2.5,5.9,7,11.3,12.1c3.8,3.8,8.8,8.4,13.9,12.8c-1.5,3-3.1,6-3.4,9c-0.4-0.2-0.8-0.3-1.1-0.5
			c-7.4-4-24.8-3.6-24.8-3.6s-14.5-7.6-17.4-24.7c0,0-2.9-10.4-2.1-13.1l0,0l0.4-0.1l3.5-6.3c0.7-1.4,0.2-3-1.1-3.8
			c-0.3-0.2-0.7-0.3-1.1-0.3c-16.9-1.5-17.7,14-17.7,14h0.2v0.1c2.1,10,3.7,9.1,3.3,17.1l6.6,17.5c0,0,0.4,6,12.4,13.9
			s25.6,20.3,25.6,20.3s-7.2,3.8-4.5,21.1c3.3,21.2-1.7,51.3-1.7,51.3V590l0.9-0.3c-0.1,0.7-0.2,1.3-0.3,2.1
			c-1.5,9.8-1.7,19.8-0.6,29.6c2.5,20.7,12.4,49,12.4,49s3.7,10,4.5,17.9c0.1,1.6,0.5,3.1,1.1,4.6c1.9,4.4,2.8,9.1,2.9,13.8
			c0,11.9,2.1,23.8,6.4,34.9c4.2,10.6,5.8,16.9,6.2,20.5c-3,3.9-6.9,8.1-9.9,8.5c-5.8,0.8-17,1.6-9.5,11.1c0.3,0.3,0.5,0.6,0.9,0.9
			c-5.7,0.9-11.9,2.9-5.8,10.6c7.4,9.5,51.3,5.2,51.3,5.2s0.3-5.3,0-11.1c3.1-0.2,5-0.4,5-0.4s1.2-23.1-4.1-25.9
			c-1,0.1-2,0.3-2.9,0.7c-0.6-3.2-1-7.2-1.3-10.1l2.1-0.2v-0.2h0.1v-34.7c0,0-2.5-21.5-11.6-31c-1.2-1.2-2.2-2.5-3-4l-0.1-0.3
			c0.1-2.7,0.1-6.4,0-10.6l0.1-0.2c0.2-0.3,0.3-0.5,0.5-0.7c0.2-0.3,0.4-0.5,0.7-0.8l0.1-0.2l0,0c0,0,5-6,21.9-43.8
			c10.3-23.1,7.6-36,3.9-42.7c-0.8-3-2.4-9.7-4.4-21.2c-0.8-4.9-1.2-9.8-1.2-14.8c2.6,0.6,5.2,0.9,7.8,0.9c4.1,0.1,8.3-0.8,12-2.6
			c-2.7-3.9-5.5-8.6-4.2-13.1c1.5-5.2,7.6-7.5,11.2-11.7C1085,515,1085.1,507.8,1083.9,501.5z"/>
		<path class="st9" d="M979.1,412.3c0,0-10.3,5.9-7.1,14.2c0,0,10.7,3.2,15,11s37.9,36.3,37.9,36.3l24.5-12.2
			c0,0-8.5-11.4-35.4-19.3c0,0-15.9-17-21.4-20.2S979.1,412.3,979.1,412.3z"/>
		<path class="st10" d="M984.1,417.3c0,0-10.3,5.9-7.1,14.2c0,0,10.7,3.2,15,11s37.9,36.3,37.9,36.3l24.5-12.2
			c0,0-8.5-11.4-35.4-19.3c0,0-15.9-17-21.4-20.2S984.1,417.3,984.1,417.3z"/>
		<path class="st7" d="M101.6,708.5c0,0-57.6,34.8,48.6,88.4c0,0,23.4-43.5-2.5-78.9c-10.4-14.3-29.9-18.5-45.3-9.9L101.6,708.5z"/>
		<path class="st11" d="M102.3,707.7c0,0,49.3,37.8,48,89.1"/>
		<path class="st3" d="M153.1,797.5c0,0-18.1-61.4,3.4-106.5c9.1-18.9,11.9-40.2,7.8-60.8c-2-9.8-4.9-19.3-8.6-28.5"/>
		<path class="st4" d="M169,573.1c0,7.5-13.6,29.3-13.6,29.3s-13.6-21.8-13.6-29.3c0-7.5,6.1-13.6,13.6-13.6
			C162.9,559.5,169,565.6,169,573.1L169,573.1L169,573.1z"/>
		<path class="st4" d="M191.5,614.8c-4.1,6.3-27.4,17.2-27.4,17.2s0.4-25.7,4.5-32c4.1-6.3,12.5-8.1,18.8-4S195.6,608.5,191.5,614.8
			L191.5,614.8z"/>
		<path class="st4" d="M190.6,685.9c-6.7,3.4-32.3,1-32.3,1s13.3-22,20.1-25.4c6.7-3.4,14.9-0.7,18.3,6
			C200,674.3,197.3,682.5,190.6,685.9L190.6,685.9L190.6,685.9z"/>
		<path class="st4" d="M177.7,739.6c-6,4.5-31.7,6.5-31.7,6.5s9.4-23.9,15.5-28.4c6-4.5,14.6-3.2,19,2.8
			C185,726.6,183.7,735.1,177.7,739.6L177.7,739.6z"/>
		<path class="st4" d="M135.6,633.4c5.4,5.2,30.5,10.7,30.5,10.7s-6.1-25-11.6-30.2c-5.4-5.2-14-5.1-19.3,0.3
			S130.2,628.2,135.6,633.4L135.6,633.4L135.6,633.4z"/>
		<path class="st4" d="M121.3,696.4c6.7,3.4,32.3,1,32.3,1s-13.3-22-20.1-25.4c-6.7-3.4-14.9-0.7-18.3,6
			C111.9,684.8,114.6,693,121.3,696.4L121.3,696.4z"/>
		<path class="st4" d="M115.9,759.5c6,4.5,31.7,6.5,31.7,6.5s-9.4-23.9-15.5-28.4c-6-4.5-14.6-3.2-19,2.8
			C108.6,746.5,109.8,755,115.9,759.5C115.9,759.5,115.9,759.5,115.9,759.5z"/>
		<path class="st12" d="M169,573.1c0,7.5-13.6,29.3-13.6,29.3s-13.6-21.8-13.6-29.3c0-7.5,6.1-13.6,13.6-13.6
			C162.9,559.5,169,565.6,169,573.1L169,573.1L169,573.1z"/>
		<path class="st12" d="M191.5,614.8c-4.1,6.3-27.4,17.2-27.4,17.2s0.4-25.7,4.5-32c4.1-6.3,12.5-8.1,18.8-4
			S195.6,608.5,191.5,614.8L191.5,614.8z"/>
		<path class="st12" d="M190.6,685.9c-6.7,3.4-32.3,1-32.3,1s13.3-22,20.1-25.4c6.7-3.4,14.9-0.7,18.3,6
			C200,674.3,197.3,682.5,190.6,685.9L190.6,685.9L190.6,685.9z"/>
		<path class="st12" d="M177.7,739.6c-6,4.5-31.7,6.5-31.7,6.5s9.4-23.9,15.5-28.4c6-4.5,14.6-3.2,19,2.8
			C185,726.6,183.7,735.1,177.7,739.6L177.7,739.6z"/>
		<path class="st12" d="M135.6,633.4c5.4,5.2,30.5,10.7,30.5,10.7s-6.1-25-11.6-30.2c-5.4-5.2-14-5.1-19.3,0.3
			S130.2,628.2,135.6,633.4L135.6,633.4L135.6,633.4z"/>
		<path class="st12" d="M121.3,696.4c6.7,3.4,32.3,1,32.3,1s-13.3-22-20.1-25.4c-6.7-3.4-14.9-0.7-18.3,6
			C111.9,684.8,114.6,693,121.3,696.4L121.3,696.4z"/>
		<path class="st12" d="M115.9,759.5c6,4.5,31.7,6.5,31.7,6.5s-9.4-23.9-15.5-28.4c-6-4.5-14.6-3.2-19,2.8
			C108.6,746.5,109.8,755,115.9,759.5C115.9,759.5,115.9,759.5,115.9,759.5z"/>
		<path class="st3" d="M194.9,798.6c0,0-18.1-61.3,3.4-106.5c9.1-18.9,11.9-40.2,7.8-60.8c-2-9.8-4.9-19.3-8.6-28.5"/>
		<path class="st7" d="M210.8,574.3c0,7.5-13.6,29.3-13.6,29.3s-13.6-21.8-13.6-29.3c0-7.5,6.1-13.6,13.6-13.6
			C204.8,560.7,210.8,566.8,210.8,574.3L210.8,574.3z"/>
		<path class="st7" d="M233.4,615.9c-4.1,6.3-27.4,17.2-27.4,17.2s0.4-25.7,4.5-32c4.1-6.3,12.5-8.1,18.8-4S237.4,609.6,233.4,615.9
			L233.4,615.9z"/>
		<path class="st7" d="M232.4,687.1c-6.7,3.4-32.3,1-32.3,1s13.3-22,20.1-25.4c6.6-3.6,14.9-1.1,18.5,5.6c3.6,6.6,1.1,14.9-5.6,18.5
			C232.8,686.9,232.6,687,232.4,687.1z"/>
		<path class="st7" d="M219.5,740.8c-6,4.5-31.7,6.5-31.7,6.5s9.4-23.9,15.5-28.4c6-4.5,14.6-3.2,19,2.8
			C226.8,727.8,225.5,736.3,219.5,740.8L219.5,740.8z"/>
		<path class="st7" d="M177.4,634.6c5.4,5.2,30.5,10.7,30.5,10.7s-6.1-25-11.6-30.2c-5.4-5.2-14-5.1-19.3,0.3S172,629.3,177.4,634.6
			L177.4,634.6L177.4,634.6L177.4,634.6z"/>
		<path class="st7" d="M163.1,697.5c6.7,3.4,32.3,1,32.3,1s-13.3-22-20.1-25.4c-6.7-3.4-14.9-0.7-18.3,6
			C153.7,685.9,156.4,694.1,163.1,697.5L163.1,697.5L163.1,697.5L163.1,697.5z"/>
		<path class="st7" d="M157.7,760.7c6,4.5,31.7,6.5,31.7,6.5s-9.4-23.9-15.5-28.4c-6-4.5-14.6-3.2-19,2.8
			C150.4,747.7,151.6,756.2,157.7,760.7z"/>
		<rect x="110.6" y="796.5" class="st7" width="953" height="7"/>
		
			<linearGradient id="SVGID_3_" gradientUnits="userSpaceOnUse" x1="885.235" y1="-1173.9698" x2="885.235" y2="-1422.1699" gradientTransform="matrix(1 0 0 1 0 1827.6599)">
			<stop  offset="0" style="stop-color:#808080;stop-opacity:0.25"/>
			<stop  offset="0.54" style="stop-color:#808080;stop-opacity:0.12"/>
			<stop  offset="1" style="stop-color:#808080;stop-opacity:0.1"/>
		</linearGradient>
		<rect x="784.3" y="405.5" class="st13" width="202" height="248.2"/>
		<rect x="787.4" y="409.4" class="st7" width="195.6" height="240.4"/>
		<rect x="800.6" y="430.5" class="st14" width="40" height="40"/>
		<rect x="820.6" y="494.5" class="st14" width="142" height="8"/>
		<rect x="820.6" y="511.5" class="st14" width="142" height="8"/>
		<rect x="820.6" y="528.5" class="st14" width="142" height="8"/>
		<rect x="820.6" y="545.5" class="st14" width="142" height="8"/>
		<rect x="820.6" y="562.5" class="st14" width="142" height="8"/>
		<rect x="820.6" y="579.5" class="st14" width="142" height="8"/>
		<rect x="820.6" y="596.5" class="st14" width="142" height="8"/>
		<path class="st15" d="M1043.1,749c0,0,1.2,17.4,3.2,19.3s-17.8,3.2-17.8,3.2l2.8-22.5H1043.1z"/>
		<path class="st10" d="M1043.1,749c0,0,1.2,17.4,3.2,19.3s-17.8,3.2-17.8,3.2l2.8-22.5H1043.1z"/>
		<path class="st16" d="M1047.4,762.4c0,0-2.8,0-12.6,5.1c0,0-6.7-1.2-9.5-10.7c0,0-8.3,14.2-13.8,15s-16.2,1.6-9.1,11
			s48.9,5.1,48.9,5.1S1052.5,765.1,1047.4,762.4z"/>
		<path class="st10" d="M1047.4,762.4c0,0-2.8,0-12.6,5.1c0,0-6.7-1.2-9.5-10.7c0,0-8.3,14.2-13.8,15s-16.2,1.6-9.1,11
			s48.9,5.1,48.9,5.1S1052.5,765.1,1047.4,762.4z"/>
		<path class="st15" d="M1041.5,775.8l-2.8,7.5l-18.2-5.1l1-7.4l0.3-1.8l0.7-5c0,0,15.4-4,15.4-2c0.2,1.6,0.5,3.2,1,4.8
			c0.6,2.4,1.4,5.2,2,7C1041.3,775,1041.5,775.8,1041.5,775.8z"/>
		<path class="st17" d="M1031.6,672.9c-2,3.4-2,7.6,0,11c0.8,1.4,1.7,2.7,2.8,3.9c8.7,9.5,11.1,30.8,11.1,30.8v34.3l-5.9,0.5
			l-9.5,0.7l-14.2-58.4c0,0-8.3-42.6-4.3-50.1s7.5-54.5,7.5-54.5l3.3-3.4l7.8-8h22.5c1.8,1.3,3.3,3,4.4,4.9
			c3.8,6.3,7.2,19.3-3.2,43.3c-16.2,37.5-20.9,43.4-20.9,43.4C1032.4,671.7,1031.9,672.3,1031.6,672.9z"/>
		<path class="st10" d="M1031.7,672.7c-2,3.4-2,7.6,0,11c0.8,1.4,1.7,2.7,2.8,3.9c8.7,9.5,11.1,30.8,11.1,30.8v34.3l-5.9,0.5
			l-9.5,0.7l-14.2-58.4c0,0-8.3-42.6-4.3-50.1s7.5-54.5,7.5-54.5l3.3-3.4l7.8-8h22.5c1.8,1.3,3.3,3,4.4,4.9
			c3.8,6.3,7.2,19.3-3.2,43.3c-16.2,37.4-20.9,43.3-20.9,43.3C1032.5,671.5,1032.1,672.1,1031.7,672.7z"/>
		<path class="st18" d="M1038.9,766.8l-17.1,2.1l0.7-5c0,0,15.4-4,15.4-2C1038.1,763.6,1038.5,765.2,1038.9,766.8z"/>
		<path class="st17" d="M1030.4,622.3c0,0,1,31.1,1.1,50.6v11c0,1.5-0.1,2.9-0.3,4.3c-1.2,3.5,1.2,11.4,1.2,11.4
			c5.9,15.6,8.3,32.3,7.1,48.9v17.4l-18.9,2.4c0,0,3.2-2.4-5.5-25.3c-4.1-11.1-6.1-22.8-6.1-34.6c0-4.7-1-9.4-2.8-13.7
			c-0.5-1.5-0.9-3-1-4.6c-0.8-7.9-4.3-17.8-4.3-17.8s-9.5-28-11.8-48.5c-1.1-9.8-0.9-19.6,0.5-29.4c0.3-2.5,0.8-4.9,1.4-7.3
			c0,0,38.6-24.3,53.2-7.5c1.4,1.6,2.5,3.5,3.3,5.5c0.8,2,1.4,4,1.9,6.2C1053.8,613.6,1030.4,622.3,1030.4,622.3z"/>
		<circle class="st15" cx="1029.3" cy="429.3" r="20.1"/>
		<path class="st15" d="M1018.2,441.9c0,0,8.3,23.3,0,35.5s26.4,8.3,26.4,8.3l13.4-16.2c0,0-15.8,0-16.6-27.6
			S1018.2,441.9,1018.2,441.9z"/>
		<path class="st18" d="M1058.1,589.1c-2.9,1-5.8,1.7-8.8,2.2c-4.9,0.8-10.7,0.8-14.1-2.2c-2-1.8-7-2-12.9-1.4
			c-12.5,1.2-29.5,5.9-32.7,6.8c0.3-2.5,0.8-4.9,1.4-7.3c0,0,38.6-24.3,53.1-7.5h8.4c1.8,1.3,3.3,3,4.4,4.9
			C1057.6,587.7,1058.1,589.1,1058.1,589.1z"/>
		<path class="st18" d="M1041.5,775.8l-2.8,7.5l-18.2-5.1l1-7.4c3.1,6.9,8.4,7.8,8.4,7.8c3.5-1.9,7.1-3.5,10.9-4.8L1041.5,775.8z"/>
		<path class="st16" d="M1042.7,773.8c0,0-2.8,0-12.6,5.1c0,0-6.7-1.2-9.5-10.7c0,0-8.3,14.2-13.8,15s-16.2,1.6-9.1,11
			s48.9,5.1,48.9,5.1S1047.8,776.6,1042.7,773.8z"/>
		<path class="st15" d="M949,433.1c0,0,0.8-15.4,16.9-13.9c1.5,0.2,2.6,1.5,2.5,3c0,0.3-0.1,0.7-0.3,1l-3.3,6.2L949,433.1z"/>
		<path class="st9" d="M1042.3,474.3c0,0-19.3-3.2-24.5-7.1c0,0-4,7.5-11,3.5s-23.7-3.5-23.7-3.5c-8.8-5.4-14.8-14.3-16.6-24.5
			c0,0-2.8-10.3-2-13c0,0-10.3-10.7-15.4,3.5c2,9.9,3.5,9.1,3.2,17l6.3,17.4c0,0,0.4,5.9,11.8,13.8s24.5,20.1,24.5,20.1
			s-6.9,3.8-4.3,20.9c3.1,21-1.6,50.9-1.6,50.9v19.3c0,0,39.5-11.4,46.2-5.5s22.9,0,22.9,0s-2-6.7-4.7-22.9s0.4-32,0.4-32
			s10.3-27.2,15-38.3s-3.6-26-11.8-31.6s-11.4-2.2-11.4-2.2S1060,470.7,1042.3,474.3z"/>
		<path class="st10" d="M991.6,531.3c0,0,3.2-0.8,18.9-3.1c15.8-2.4,43.4,3.2,43.4,3.2"/>
		<path class="st18" d="M1005.2,416.3c9,0.2,15.7,11.3,11.7,19.3c-1.8,3.5-5.1,6.6-4.8,10.5c0.2,1.8,1.1,3.4,1.5,5.1
			c1.9,8-7.7,15.5-5.5,23.4c0.7,2.1,1.9,4.1,3.4,5.7l16.6,20.9c1,1.2,1.8,2.4,2.5,3.8c0.6,2,0.9,4.1,0.7,6.1
			c-0.1,10,0.6,20.7,6.5,28.8c7.1,9.7,21.5,13.2,32.3,7.8c-2.6-3.9-5.3-8.5-4-13c1.5-5.1,7.3-7.5,10.7-11.6c4.1-5,4.2-12.1,3-18.4
			s-3.5-12.5-3.5-18.9c-0.1-10.4,5.3-22.5-1.8-30.3c-1.6-1.8-3.8-3.1-4.9-5.1c-0.9-1.8-1.3-3.8-1.2-5.8c-0.1-12.2,6.3-24.5,2.5-36.1
			c-0.7-2.6-2.3-4.8-4.4-6.4c-5.5-3.7-13.1-0.1-19.4-2c-3-0.9-5.5-2.9-8.4-3.9c-7.9-2.7-15.2,2.7-20.7,7.8c-2.3,2-4.7,3.8-7.2,5.4
			C1011,409.6,1001.7,416.2,1005.2,416.3z"/>
		<path class="st19" d="M1006.2,416.3c9,0.2,15.7,11.3,11.7,19.3c-1.8,3.5-5.1,6.6-4.8,10.5c0.2,1.8,1.1,3.4,1.5,5.1
			c1.9,8-7.7,15.5-5.5,23.4c0.7,2.1,1.9,4.1,3.4,5.7l16.6,20.9c1,1.2,1.8,2.4,2.5,3.8c0.6,2,0.9,4.1,0.7,6.1
			c-0.1,10,0.6,20.7,6.5,28.8c7.1,9.7,21.5,13.2,32.3,7.8c-2.6-3.9-5.3-8.5-4-13c1.5-5.1,7.3-7.5,10.7-11.6c4.1-5,4.2-12.1,3-18.4
			s-3.5-12.5-3.5-18.9c-0.1-10.4,5.3-22.5-1.8-30.3c-1.6-1.8-3.8-3.1-4.9-5.1c-0.9-1.8-1.3-3.8-1.2-5.8c-0.1-12.2,6.3-24.5,2.5-36.1
			c-0.7-2.6-2.3-4.8-4.4-6.4c-5.5-3.7-13.1-0.1-19.4-2c-3-0.9-5.5-2.9-8.4-3.9c-7.9-2.7-15.2,2.7-20.7,7.8c-2.3,2-4.7,3.8-7.2,5.4
			C1012,409.6,1002.7,416.2,1006.2,416.3z"/>
		
			<linearGradient id="SVGID_4_" gradientUnits="userSpaceOnUse" x1="2311.3726" y1="-945.4534" x2="2311.3726" y2="-1339.8424" gradientTransform="matrix(1 0 0 1 -1655.6 1747.0701)">
			<stop  offset="0" style="stop-color:#808080;stop-opacity:0.25"/>
			<stop  offset="0.54" style="stop-color:#808080;stop-opacity:0.12"/>
			<stop  offset="1" style="stop-color:#808080;stop-opacity:0.1"/>
		</linearGradient>
		<path class="st20" d="M704.1,606.6c-2.3-2.1-4.3-4.6-5.9-7.3c-3.5-5.4-9.3-8.4-13.2-9.8v-1.8h0.2l-0.1-1.6h0.1l-0.3-4.3l0,0
			l-1.4-21.7c0,0-5.1-14.5,3.9-27.8s0.6-26.1-7.9-31c0,0-4-21.1-0.6-26.1c-4.6-2.7-9.3-5.1-14.2-7.2c-0.1-0.3-0.1-0.5-0.2-0.8
			c-0.1-2-0.2-3.9-0.3-5.9c0.1-1,0.3-2,0.6-3c0.1-0.4,0.2-0.8,0.4-1.3c8.3-3.2,13.8-11.2,13.9-20.1c0-2.5-0.5-5.1-1.3-7.4
			c0.4-0.7,0.8-1.5,1-2.4c0.4-2.4,0-4.9-1.3-6.9c-2.2-5-7.9-9.6-12-11.2c-5.9-2.4-14.7-1.8-20.8-1.1c-3.4,0.4-7.3,1.6-8.6,4.7
			c-0.3,1.2-0.6,2.4-0.8,3.6c-1.3,4.8-6.8,7.1-10.3,10.8c-3,3.3-4.4,7.7-5.3,12c-2.8,12.4-3.5,25.1-2,37.7c0.3,2.9,0.8,5.8,1.3,8.7
			c-2.1,2.9-3.9,8-3.1,17l-6.8,32.2l-2.8,18.8c-0.8,5.3,1.1,10.7,5.1,14.4c4.3,4.2,9.6,11.4,12.8,16.1c-1.4,4.1-2.1,8.4-2.1,12.8
			c0.1,2,0.2,3.9,0.3,5.7c0.3,3.8,1,7.6,2.2,11.3c0.8,7.7,2.4,17.6,5.4,24l1.1,33.8c0,0-1.7,31-5.1,37.2s7.3,57.7,7.3,57.7v7.2
			l-1.8,5.3l-0.5-0.3c-8.5,10.5,0,14.4,0,14.4s2.3,0.1,6,0.3c-0.6,3,0.8,6.1,3.6,7.5c0,0,48,2.2,56.5,0s6.2-10,1.7-9.4
			c-2.3,0.1-4.6-0.2-6.8-0.9c2.6-3.1,0.5-7.3-2.8-6.9c-4.5,0.5-14.7-3.5-14.7-3.5v0c-0.3-0.1-0.7-0.2-1-0.3
			c-3.8-0.9-7.5-1.9-11.2-3.2c-2.2-4.7-7.2-17.2-3.6-27c1.6-4.4,2.2-10.3,2.2-15.9c0.1-17.1,2.6-34.2,7.4-50.6l6.7-23.2
			c0,0,9.6-28.3,10.2-36l-0.1-11.3c7.9,5.1,14.2,3.6,18.3,1.2c2.1-1.2,2.8-3.8,1.6-5.9C704.7,607.3,704.4,606.9,704.1,606.6
			L704.1,606.6z M628.8,547.8c0.2-0.8,0.3-1.7,0.5-2.6h4c1.7,3.4,2.3,7.2,2,10.9C632.2,555.1,627.6,552.7,628.8,547.8z"/>
		<path class="st21" d="M634.1,770.9l-2.2,6.5l7,7.1l23.4,5.4l16.8-1.6l-1.1-6l0,0c-0.7-2.6-2.7-4.6-5.3-5.3
			c-6.9-1.6-20.1-5.3-22.9-10.5L634.1,770.9z"/>
		<path class="st18" d="M634.1,770.9l-2.2,6.5l7,7.1l23.4,5.4l16.8-1.6l-1.1-6l0,0c-0.7-2.6-2.7-4.6-5.3-5.3
			c-6.9-1.6-20.1-5.3-22.9-10.5L634.1,770.9z"/>
		<path class="st22" d="M673.8,786.7l-3.3-4.3l3.3-5c0,0,9.8,4,14.1,3.4s6.5,7.1-1.6,9.2s-54.3,0-54.3,0s-8.2-3.8,0-14.1l7.1,5.4
			c0,0,12,6.5,17.9,5.4L673.8,786.7z"/>
		<path class="st21" d="M688.4,795.9l-16.8,1.6l-23.3-5.5l-7.1-7l0.6-1.7l0.8-2.4l0.8-2.4l15.8-4.3c0.8,1.3,1.9,2.4,3.2,3.2
			c5.1,3.5,14.3,6,19.7,7.3c0.2,0.1,0.5,0.1,0.7,0.2c2.3,0.8,4.1,2.7,4.7,5.1L688.4,795.9z"/>
		<path class="st18" d="M688.4,795.9l-16.8,1.6l-23.3-5.5l-7.1-7l0.6-1.7l6.5,5c0,0,12,6.5,17.9,5.4H683l-3.3-4.3l2.9-4.5
			c2.3,0.8,4.1,2.7,4.7,5.1L688.4,795.9z"/>
		<path class="st22" d="M683,794.3l-3.3-4.3l3.3-5c0,0,9.8,4,14.1,3.4s6.5,7.1-1.6,9.2s-54.3,0-54.3,0s-8.2-3.8,0-14.1l7.1,5.4
			c0,0,12,6.5,17.9,5.4L683,794.3z"/>
		<path class="st21" d="M669.4,479.2c0,0-26.1,2.7-22.3-8.1c1.1-3.1,1.3-6.4,0.8-9.6c-0.7-4-2.3-7.7-4.6-11l24.5,3.8
			c-1.5,2.4-2.6,5.1-3.3,7.9C661.6,473.6,669.4,479.2,669.4,479.2z"/>
		<path class="st22" d="M624.9,603.1c0,0,0.5,23.4,6,34.8L632,671c0,0-1.6,30.4-4.9,36.4s7.1,56.5,7.1,56.5v8.7
			c0,0,17.4,6.5,22.3-1.1l-4.9-64.7l2.2-89.6L624.9,603.1z"/>
		<path class="st18" d="M624.9,603.1c0,0,0.5,23.4,6,34.8L632,671c0,0-1.6,30.4-4.9,36.4s7.1,56.5,7.1,56.5v8.7
			c0,0,17.4,6.5,22.3-1.1l-4.9-64.7l2.2-89.6L624.9,603.1z"/>
		<path class="st23" d="M614,528.1l-3.3,8.7l-2.7,18.5c-0.7,5.2,1.1,10.5,4.9,14.1c6.5,6.5,15.2,20.1,15.2,20.1l10.3-31
			c0,0-10.3-1.6-8.7-8.7s1.1-20.1,1.1-20.1L614,528.1z"/>
		<path class="st10" d="M614,527.1l-3.3,8.7l-2.7,18.5c-0.7,5.2,1.1,10.5,4.9,14.1c6.5,6.5,15.2,20.1,15.2,20.1l10.3-31
			c0,0-10.3-1.6-8.7-8.7s1.1-20.1,1.1-20.1L614,527.1z"/>
		<path class="st18" d="M662.3,777.4c-7,11-17.8,4.8-19.7,3.5l0.8-2.4l15.8-4.3C659.9,775.5,661,776.6,662.3,777.4z"/>
		<path class="st22" d="M684.1,624.2c-0.5,7.6-9.8,35.3-9.8,35.3l-6.5,22.8c-4.7,16.1-7.1,32.8-7.2,49.6c0,5.6-0.5,11.3-2.1,15.6
			c-4.3,12,4.3,28.3,4.3,28.3c-7.6,13.6-20.6,4.3-20.6,4.3v-8.7c0,0-10.3-47.3-7.6-56.5s3.8-34.2,3.8-34.2v-45.1
			c-8.7-8.7-14-20.2-14.9-32.4c-0.1-1.8-0.2-3.7-0.3-5.6c-0.4-12.3,7.9-26.6,11.2-31.8c0.8-1.2,1.3-1.9,1.3-1.9l48,19h0.1v6
			L684.1,624.2z"/>
		<path class="st18" d="M667.8,454.2c-1.5,2.4-2.6,5.1-3.3,7.9c-5.4,2-11.3,1.8-16.5-0.6c-0.7-4-2.3-7.7-4.6-11L667.8,454.2z"/>
		<circle class="st21" cx="656.9" cy="441.2" r="21.2"/>
		<path class="st18" d="M684.1,588.9h-0.2c-22.8,4.7-51.4-19.1-51.4-19.1c0.8-1.3,1.4-2.6,2-4c0.8-1.2,1.3-1.9,1.3-1.9l48,19
			l0.1,1.9L684.1,588.9z"/>
		<path class="st23" d="M678.1,478.6c0,0-30.4-18.5-40.2-10.9l-13.6,17.4c0,0-8.7,2.7-7.1,20.1l-6.5,31.5l19.6,4.9
			c0,0,11.4,10.9,2.2,26.6c0,0,28.8,23.9,51.6,19l-1.7-25.5c0,0-4.9-14.1,3.8-27.2s0.5-25.5-7.6-30.4
			C678.7,504.2,674.9,483.5,678.1,478.6z"/>
		<path class="st21" d="M679.8,589.5c0,0,11.4,2.2,16.8,10.9c1.6,2.6,3.5,5,5.7,7.1c1.8,1.6,1.9,4.3,0.3,6.1c-0.3,0.3-0.6,0.6-1,0.8
			c-4.3,2.6-11.3,4.2-20.2-3.1C666.2,598.7,679.8,589.5,679.8,589.5z"/>
		<path class="st18" d="M662.9,489c0,0-10.9-1.1-13.6,27.2c-2.7,28.2-7.1,34.8-7.1,34.8s-2.7,14.7,3.8,23.4s19,27.2,19,27.2
			s13.6,3.8,16.3-9.8l-16.8-31.5c0,0-2.7-10.9,3.8-18.5S679.8,483.5,662.9,489z"/>
		<path class="st23" d="M664,487.3c0,0-10.9-1.1-13.6,27.2s-7.1,34.8-7.1,34.8s-2.7,14.7,3.8,23.4s19,27.2,19,27.2
			s13.6,3.8,16.3-9.8l-16.8-31.5c0,0-2.7-10.9,3.8-18.4S680.8,481.9,664,487.3z"/>
		<path class="st18" d="M673,507.7c0,0,1.1,16.8-3.8,26.1s-4.9,21.2,0,27.7"/>
		<path class="st18" d="M675.7,487.1c0,0-4.3-4.4-16.8-4.9s-17.9-4.4-17.9-4.4"/>
		<path class="st18" d="M645.4,413.8c-3.3,0.4-7.1,1.5-8.3,4.6c-0.3,1.2-0.6,2.4-0.8,3.6c-1.2,4.8-6.6,7-9.9,10.6
			c-2.9,3.2-4.2,7.5-5.1,11.8c-2.7,12.1-3.4,24.6-1.9,36.9c1.1,9,3.2,17.9,3.8,26.9s-0.5,18.6-5.5,26.2c-2.1,3.3-4.9,6.1-6.4,9.7
			c3.1,2.5,7.4,2.9,11.4,3c4.7,0.2,9.3,0.2,14,0c2.5-0.1,5-0.2,7.1-1.5c1.6-1,2.9-2.4,3.7-4c2.7-4.5,3.3-10,3.2-15.3s-1-10.5-1-15.8
			c0-2.9,0.2-5.9,1.8-8.3c1.2-1.7,3-2.8,4.5-4.2c5.8-5.1,7.8-13.4,8-21.2s-1.1-15.5-0.4-23.3c0.3-3,1.4-6.7,4.4-7.3
			c1,0,1.9-0.2,2.8-0.4c2.4-0.9,2.2-4.3,2.8-6.8c0.8-2.8,3.1-4.9,3.8-7.7c1.6-6.6-6.8-14.4-12.3-16.7S651.3,413.1,645.4,413.8z"/>
		<path class="st24" d="M644.9,412.7c-3.3,0.4-7.1,1.5-8.3,4.6c-0.3,1.2-0.6,2.4-0.8,3.6c-1.2,4.8-6.6,7-9.9,10.6
			c-2.9,3.2-4.2,7.5-5.1,11.8c-2.7,12.1-3.3,24.6-1.9,36.9c1.1,9,3.2,17.9,3.8,26.9c0.6,9.1-0.5,18.6-5.5,26.2
			c-2.1,3.3-4.9,6.1-6.4,9.7c3.1,2.5,7.4,2.9,11.4,3c4.7,0.2,9.3,0.2,14,0c2.5-0.1,5-0.2,7.1-1.5c1.6-1,2.9-2.4,3.7-4
			c2.7-4.5,3.3-10,3.2-15.3s-1-10.5-1-15.8c0-2.9,0.2-5.9,1.8-8.3c1.2-1.7,3-2.8,4.5-4.2c5.8-5.1,7.8-13.4,8-21.2
			s-1.1-15.5-0.4-23.3c0.3-3,1.4-6.7,4.4-7.3c1,0,1.9-0.2,2.8-0.4c2.4-0.9,2.2-4.3,2.8-6.8c0.8-2.8,3.1-4.9,3.8-7.7
			c1.6-6.6-6.8-14.4-12.3-16.7C659.3,411.4,650.8,412,644.9,412.7z"/>
	</g>
</g>
</svg>
