<?xml version="1.0" encoding="utf-8"?>
<!-- Generator: Adobe Illustrator 22.0.0, SVG Export Plug-In . SVG Version: 6.00 Build 0)  -->
<svg version="1.1" id="图层_1" xmlns="http://www.w3.org/2000/svg" xmlns:xlink="http://www.w3.org/1999/xlink" x="0px" y="0px"
	 viewBox="0 0 1172.9 866.3" style="enable-background:new 0 0 1172.9 866.3;" xml:space="preserve">
<style type="text/css">
	.st0{fill-opacity:0;}
	.st1{opacity:0.2;fill:#FF0000;enable-background:new    ;}
	.st2{opacity:0.5;}
	.st3{fill:#FF0000;}
	.st4{fill:none;stroke:#535461;stroke-width:2;stroke-miterlimit:10;}
	.st5{opacity:0.1;fill:#FF0000;enable-background:new    ;}
	.st6{fill:#EF313D;}
	.st7{opacity:0.2;fill:#F5F5F5;enable-background:new    ;}
	.st8{fill:url(#SVGID_1_);}
	.st9{fill:#535461;}
	.st10{fill:#F1F1F4;}
	.st11{fill:#FFFFFF;}
	.st12{opacity:0.2;fill:#EF313D;enable-background:new    ;}
	.st13{fill:#E6E8EC;}
	.st14{opacity:0.1;enable-background:new    ;}
	.st15{fill:url(#SVGID_2_);}
	.st16{fill:url(#SVGID_3_);}
	.st17{fill:url(#SVGID_4_);}
	.st18{fill:#F7C4A7;}
	.st19{opacity:5.000000e-02;enable-background:new    ;}
	.st20{fill:#575988;}
	.st21{fill:#F3B5B7;}
	.st22{fill:url(#SVGID_5_);}
	.st23{fill:#DDDBE2;}
	.st24{fill:#B96B6B;}
	.st25{fill:url(#SVGID_6_);}
	.st26{fill:#4F4D59;}
	.st27{fill:#787C9C;}
	.st28{opacity:0.1;}
	.st29{fill:#714B4F;}
	.st30{fill:#E6E6F0;}
	.st31{fill:#67647E;}
	.st32{fill:#BA7855;}
	.st33{fill:url(#SVGID_7_);}
	.st34{fill:#503F43;}
	.st35{fill:url(#SVGID_8_);}
	.st36{fill:#FDC2CC;}
	.st37{fill:#47465A;}
	.st38{opacity:0.3;fill:#FFFFFF;enable-background:new    ;}
	.st39{fill:#565171;}
	.st40{fill:#F68080;}
	.st41{fill:url(#SVGID_9_);}
	.st42{opacity:5.000000e-02;}
</style>
<title>s3</title>
<g id="图层_2_1_">
	<g id="_03030b4a-9996-4111-83fa-29dc66776d7b">
		<rect class="st0" width="1172.9" height="866.3"/>
		<path class="st1" d="M196.6,82.3c-8.1-0.2-16.3,0-23.9,2.3c-20.6,6.3-30.3,27-27.1,44.9s16.2,33.4,29.7,47.7s28.2,28.3,35.6,45.3
			c3.7,8.5,5.4,18,1.7,26.5c-5.8,13.1-23.3,20.4-40.1,21.9s-33.6-1.4-50.5-2.4c-7.1-0.4-14.3-0.5-21,1.5c-7.3,2.1-13.4,6.3-19,10.8
			c-21.9,17.4-39.4,41.1-36.6,65.9c3.2,28.2,31.7,50.5,63,62.5c10.3,4,21.3,7.2,30.4,12.8c24,14.9,29.4,42.9,27,67.6
			s-10.5,49.5-6,73.9c5.3,28.5,28.9,54.2,60.7,66.3c28.4,10.7,63.8,10,89-5.1c12.3-7.4,21.5-17.6,29.6-28.2
			c12-15.7,21.9-32.8,29.5-51c3.5-8.5,6.8-17.6,15-23.5c5-3.6,11.5-5.7,17.9-7.2c19.3-4.8,39.7-6.1,59.2-10.3s39.1-12.1,49.7-26.3
			c15-20,8-45.6,8.1-69.1c0.1-53.7,39.1-101.7,53.5-154c4.7-17.1,6.5-36-4-51.3c-7.1-10.4-19.2-17.8-31.8-23.6
			c-27.8-12.7-59.4-18.3-90.5-23.8c-43.2-7.6-95.7-8.6-129.2-33.3C284.3,99.2,240.4,82.3,196.6,82.3z"/>
		<g class="st2">
			<path class="st3" d="M70.5,388c-2.1,3.2-3.9,7.8-1.1,13.1c5.5,10.5,19.1,8.3,25.7,18.4c1.8,2.8,2.8,6,2.9,9.3
				c0.3,5.7-1.5,10.2-2.4,15.2c-1.2,5.9-0.3,12,2.6,17.3c3.2,5.5,8.1,9.9,14,12.5c5.1,2.3,10,2.8,14.9,3.9c6.1,1.4,12,3.4,17.7,6
				c2.7,1.1,5.2,2.6,7.5,4.4c2.8,2.5,5.4,5.2,7.6,8.2l21.3,26.3c2.7,3.5,5.7,6.8,9,9.8c3.6,2.9,7.5,5.3,11.7,7.2
				c8.5,4.2,17.4,8.6,24.7,8.1s12.5-7.6,9-17.5c-3.3-9.5-12.6-17.4-16.8-26.9c-6.6-14.9,2.1-26-3.5-40.9
				c-5.3-14.3-20.3-23.9-29.9-37c-6.9-9.3-10.7-20.1-16.9-29.9c-9-14-22.4-24.7-35-30.1c-11.1-4.7-23.2-6.4-35.2-4.9
				c-4.6,0.5-9.1,1.4-12.3,4.1c-3.4,2.9-3,8.3-5.2,12.2C78.3,381.2,73.4,383.7,70.5,388z"/>
			<path class="st4" d="M83.8,367.9c0,0,106.5,99.5,149.4,177.1"/>
			<path class="st4" d="M69.8,401.7c0,0,42.6-8.3,72,24.9"/>
			<path class="st4" d="M100,464.2c0,0,47-32.9,63.3-13.8"/>
			<path class="st4" d="M133.4,365.2c0,0-4.9,25.2,12.9,66.3"/>
			<path class="st4" d="M215.2,462.8c0,0-4.2,16.5-37.6,4.4"/>
			<path class="st4" d="M181.3,520.5c0,0,20.4-23.6,11.1-35.2"/>
		</g>
		<path class="st3" d="M50.5,272.5c-5,5.9-9.7,14.1-6,22.2c7.1,15.8,33.3,8.1,42.6,22.8c2.8,4.4,3.2,9.8,2.5,14.6
			c-1.3,9.4-5.9,17.4-9.1,26s-4.9,19-0.3,28.1c4.4,8.8,13.6,14.3,22.5,16.5s17.9,1.7,26.8,2c10.6,0.4,21.1,2,31.4,4.6
			c4.5,1,8.8,2.8,12.8,5.1c4.6,2.9,8.2,7.2,11.8,11.4l32,37.3c4.3,5,8.6,10,13.9,13.7c6.1,4.2,13,6.4,19.8,8.5c14.6,4.5,30,9,44,5.9
			s25.8-16.5,22.3-31.9c-3.3-14.8-18.3-25.2-23.4-39.7c-8-22.8,11.8-43.9,5.8-67.1c-5.7-22.2-30.9-33.7-44.9-52.5
			c-10-13.5-13.9-30.3-22.7-44.7c-12.6-20.7-34.6-34.4-56.5-39.6s-43.9-2.8-64.5,2.4c-8.7,2.2-17.4,5-24.3,10.5
			c-7.3,5.9-8.2,14.8-13.5,21.9C67.2,258.9,57.2,264.5,50.5,272.5z"/>
		<path class="st4" d="M81.6,234.9c0,0,169.7,133.5,226.8,249.6"/>
		<path class="st4" d="M45,295.5c0,0,82.4-26.6,127.5,19.7"/>
		<path class="st4" d="M82.8,390.5c0,0,98.1-69,122.9-42.1"/>
		<path class="st4" d="M175.4,215.4c0,0-16.9,43.4,4,106.5"/>
		<path class="st4" d="M299.5,353.2c0,0-12.8,28.7-71.9,18.7"/>
		<path class="st4" d="M218.3,459.6c0,0,45.5-45.5,31.6-62"/>
		<ellipse class="st5" cx="661.1" cy="685.8" rx="465" ry="124.5"/>
		<path class="st3" d="M1023.3,39.1c0,0-35.8,35.8-15.6,89S973,269.7,973,269.7l1.7-0.3c73.6-13,110.2-97.2,69.2-159.7
			C1028.7,86.4,1016.2,59.2,1023.3,39.1z"/>
		<path class="st4" d="M1023.3,39.1c0,0-20.2,43.9,0,79.8c20.2,35.8,3.5,136.4-50.3,150.8"/>
		<path class="st6" d="M1087.1,184c0,0-40.9-6.5-44.6,30.1s-78.6,41.7-78.6,41.7l1.4,0.9c61.8,40.6,121,25.9,112-28
			C1074,208.7,1074.3,188.5,1087.1,184z"/>
		<path class="st7" d="M1087.1,184c0,0-40.9-6.5-44.6,30.1s-78.6,41.7-78.6,41.7l1.4,0.9c61.8,40.6,121,25.9,112-28
			C1074,208.7,1074.3,188.5,1087.1,184z"/>
		<path class="st4" d="M1087.1,184c0,0-31.7,7-29.1,35.8s-47.1,63.5-94.1,36"/>
		<path class="st4" d="M289.9,318.5c0,0-13.3-45,2.5-78.1c6.7-13.9,8.7-29.5,5.8-44.6c-1.5-7.2-3.6-14.2-6.3-20.9"/>
		<path class="st6" d="M301.6,153.8c0,5.5-10,21.5-10,21.5s-10-16-10-21.5c0-5.5,4.5-10,10-10S301.6,148.3,301.6,153.8z"/>
		<path class="st6" d="M318.1,184.4C315.1,189,298,197,298,197s0.3-18.9,3.3-23.5c2.7-4.8,8.8-6.5,13.6-3.8
			c4.8,2.7,6.5,8.8,3.8,13.6c0,0.1-0.1,0.2-0.1,0.2C318.4,183.9,318.3,184.1,318.1,184.4z"/>
		<path class="st6" d="M317.4,236.6c-4.9,2.5-23.7,0.8-23.7,0.8s9.8-16.1,14.7-18.6c4.8-2.7,10.9-1.1,13.7,3.7
			c2.7,4.8,1.1,10.9-3.7,13.7c-0.1,0-0.1,0.1-0.2,0.1C317.9,236.4,317.6,236.5,317.4,236.6L317.4,236.6z"/>
		<path class="st6" d="M307.9,276c-4.4,3.3-23.2,4.8-23.2,4.8s6.9-17.5,11.4-20.8c4.3-3.4,10.6-2.7,14,1.6
			c3.4,4.2,2.7,10.4-1.4,13.9C308.5,275.6,308.2,275.8,307.9,276z"/>
		<path class="st6" d="M277,198.1c4,3.8,22.4,7.8,22.4,7.8s-4.5-18.3-8.5-22.1c-3.7-4.1-10-4.5-14.1-0.8s-4.5,10-0.8,14.1
			c0.1,0.1,0.2,0.3,0.4,0.4C276.5,197.7,276.8,197.9,277,198.1L277,198.1z"/>
		<path class="st6" d="M266.6,244.3c4.9,2.5,23.7,0.8,23.7,0.8s-9.8-16.1-14.7-18.6c-5-2.3-11,0-13.2,5
			C260.2,236.2,262,241.8,266.6,244.3L266.6,244.3z"/>
		<path class="st6" d="M262.6,290.6c4.4,3.3,23.2,4.8,23.2,4.8s-6.9-17.5-11.4-20.8c-4.6-3.1-10.8-1.8-13.9,2.8
			C257.7,281.6,258.6,287.3,262.6,290.6z"/>
		
			<linearGradient id="SVGID_1_" gradientUnits="userSpaceOnUse" x1="730.755" y1="-1070.2799" x2="730.755" y2="-1554.6399" gradientTransform="matrix(1 0 0 1 -56.59 1706.1799)">
			<stop  offset="0" style="stop-color:#808080;stop-opacity:0.25"/>
			<stop  offset="0.54" style="stop-color:#808080;stop-opacity:0.12"/>
			<stop  offset="1" style="stop-color:#808080;stop-opacity:0.1"/>
		</linearGradient>
		<path class="st8" d="M1115.6,580.2h-85.1c2-3.9,3-8.3,3-12.7V180c0-15.7-12.8-28.4-28.5-28.5H346.3c-15.7,0-28.5,12.7-28.5,28.5
			v387.5c0,4.4,1,8.7,3,12.7h-88.1c-4.2,0-7.5,3.4-7.5,7.5l0,0l0,0v6.1c0,23.3,18.9,42.1,42.1,42.1h0H1081
			c23.3,0,42.1-18.9,42.1-42.1c0,0,0,0,0,0l0,0v-6.1C1123.1,583.5,1119.8,580.2,1115.6,580.2L1115.6,580.2L1115.6,580.2z
			 M591.3,604.3L584,596h181.1l-8.1,8.3L591.3,604.3z"/>
		<path class="st9" d="M349.2,157h652.9c12.8,0,23.3,10.4,23.3,23.3v387.9c0,12.8-10.4,23.3-23.3,23.3H349.2
			c-12.8,0-23.3-10.4-23.3-23.3V180.3C325.9,167.4,336.3,157,349.2,157z"/>
		<rect x="340.6" y="220.3" class="st10" width="668.5" height="354.9"/>
		<circle class="st11" cx="674.9" cy="189.4" r="5.9"/>
		<path class="st9" d="M778.1,575.9l-23,23.6h-162l-20.8-23.6H242.7c-4.1,0-7.4,3.3-7.4,7.4v5.9c0,22.7,18.4,41.2,41.2,41.2h795.3
			c22.7,0,41.2-18.4,41.2-41.2c0,0,0,0,0,0l0,0v-5.9c0-4.1-3.3-7.4-7.4-7.4H778.1z"/>
		<rect x="381.5" y="247.4" class="st11" width="182.8" height="137.7"/>
		<rect x="399.3" y="259.3" class="st12" width="60.9" height="34.4"/>
		<rect x="474.8" y="259.3" class="st13" width="71.5" height="8"/>
		<rect x="474.8" y="272.5" class="st13" width="50.3" height="8"/>
		<rect x="474.8" y="285.8" class="st13" width="71.5" height="8"/>
		<rect x="399.3" y="299" class="st13" width="147" height="8"/>
		<rect x="399.3" y="312.3" class="st13" width="147" height="8"/>
		<rect x="399.3" y="325.5" class="st13" width="147" height="8"/>
		<rect x="399.3" y="338.8" class="st13" width="135.1" height="8"/>
		<rect x="399.3" y="352" class="st13" width="147" height="8"/>
		<rect x="399.3" y="365.2" class="st13" width="147" height="8"/>
		<rect x="582.8" y="247.4" class="st11" width="182.8" height="137.7"/>
		<rect x="600.6" y="259.3" class="st12" width="60.9" height="34.4"/>
		<rect x="676.1" y="259.3" class="st13" width="71.5" height="8"/>
		<rect x="676.1" y="272.5" class="st13" width="50.3" height="8"/>
		<rect x="676.1" y="285.8" class="st13" width="71.5" height="8"/>
		<rect x="600.6" y="299" class="st13" width="147" height="8"/>
		<rect x="600.6" y="312.3" class="st13" width="147" height="8"/>
		<rect x="600.6" y="325.5" class="st13" width="147" height="8"/>
		<rect x="600.6" y="338.8" class="st13" width="135.1" height="8"/>
		<rect x="600.6" y="352" class="st13" width="147" height="8"/>
		<rect x="600.6" y="365.2" class="st13" width="147" height="8"/>
		<rect x="784.1" y="247.4" class="st11" width="182.8" height="137.7"/>
		<rect x="801.9" y="259.3" class="st12" width="60.9" height="34.4"/>
		<rect x="877.4" y="259.3" class="st13" width="71.5" height="8"/>
		<rect x="877.4" y="272.5" class="st13" width="50.3" height="8"/>
		<rect x="877.4" y="285.8" class="st13" width="71.5" height="8"/>
		<rect x="801.9" y="299" class="st13" width="147" height="8"/>
		<rect x="801.9" y="312.3" class="st13" width="147" height="8"/>
		<rect x="801.9" y="325.5" class="st13" width="147" height="8"/>
		<rect x="801.9" y="338.8" class="st13" width="135.1" height="8"/>
		<rect x="801.9" y="352" class="st13" width="147" height="8"/>
		<rect x="801.9" y="365.2" class="st13" width="147" height="8"/>
		<rect x="381.5" y="402.3" class="st11" width="182.8" height="137.7"/>
		<rect x="399.3" y="414.2" class="st12" width="60.9" height="34.4"/>
		<rect x="474.8" y="414.2" class="st13" width="71.5" height="8"/>
		<rect x="474.8" y="427.5" class="st13" width="50.3" height="8"/>
		<rect x="474.8" y="440.7" class="st13" width="71.5" height="8"/>
		<rect x="399.3" y="454" class="st13" width="147" height="8"/>
		<rect x="399.3" y="467.2" class="st13" width="147" height="8"/>
		<rect x="399.3" y="480.5" class="st13" width="147" height="8"/>
		<rect x="399.3" y="493.7" class="st13" width="135.1" height="8"/>
		<rect x="399.3" y="507" class="st13" width="147" height="8"/>
		<rect x="399.3" y="520.2" class="st13" width="147" height="8"/>
		<rect x="582.8" y="402.3" class="st11" width="182.8" height="137.7"/>
		<rect x="600.6" y="414.2" class="st12" width="60.9" height="34.4"/>
		<rect x="676.1" y="414.2" class="st13" width="71.5" height="8"/>
		<rect x="676.1" y="427.5" class="st13" width="50.3" height="8"/>
		<rect x="676.1" y="440.7" class="st13" width="71.5" height="8"/>
		<rect x="600.6" y="454" class="st13" width="147" height="8"/>
		<rect x="600.6" y="467.2" class="st13" width="147" height="8"/>
		<rect x="600.6" y="480.5" class="st13" width="147" height="8"/>
		<rect x="600.6" y="493.7" class="st13" width="135.1" height="8"/>
		<rect x="600.6" y="507" class="st13" width="147" height="8"/>
		<rect x="600.6" y="520.2" class="st13" width="147" height="8"/>
		<rect x="784.1" y="402.3" class="st14" width="182.8" height="137.7"/>
		
			<linearGradient id="SVGID_2_" gradientUnits="userSpaceOnUse" x1="400.795" y1="-970.0999" x2="400.795" y2="-1412.46" gradientTransform="matrix(1 0 0 1 -56.59 1706.1799)">
			<stop  offset="0" style="stop-color:#808080;stop-opacity:0.25"/>
			<stop  offset="0.54" style="stop-color:#808080;stop-opacity:0.12"/>
			<stop  offset="1" style="stop-color:#808080;stop-opacity:0.1"/>
		</linearGradient>
		<path class="st15" d="M485.2,293.7h-282c-14.3,0-25.9,11.5-25.9,25.8c0,0,0,0,0,0v390.8c0,14.3,11.6,25.8,25.9,25.8c0,0,0,0,0,0
			h282c14.3,0,25.8-11.5,25.9-25.8c0,0,0,0,0,0l0,0V319.5C511.1,305.3,499.5,293.7,485.2,293.7L485.2,293.7L485.2,293.7z"/>
		<path class="st9" d="M201.3,299h285.8c11,0,20,9,20,20v393.1c0,11-9,20-20,20H201.3c-11,0-20-9-20-20V319
			C181.3,308,190.3,299,201.3,299z"/>
		<rect x="197.9" y="340" class="st10" width="292.7" height="351.2"/>
		<circle class="st11" cx="342.9" cy="318.9" r="4"/>
		<circle class="st11" cx="342.9" cy="710.9" r="11.9"/>
		<rect x="210.5" y="375.9" class="st11" width="83.5" height="62.9"/>
		<rect x="218.7" y="381.3" class="st12" width="27.8" height="15.7"/>
		<rect x="253.2" y="381.3" class="st13" width="32.7" height="3.6"/>
		<rect x="253.2" y="387.4" class="st13" width="23" height="3.6"/>
		<rect x="253.2" y="393.4" class="st13" width="32.7" height="3.6"/>
		<rect x="218.7" y="399.5" class="st13" width="67.1" height="3.6"/>
		<rect x="218.7" y="405.5" class="st13" width="67.1" height="3.6"/>
		<rect x="218.7" y="411.6" class="st13" width="67.1" height="3.6"/>
		<rect x="218.7" y="417.6" class="st13" width="61.7" height="3.6"/>
		<rect x="218.7" y="423.7" class="st13" width="67.1" height="3.6"/>
		<rect x="218.7" y="429.7" class="st13" width="67.1" height="3.6"/>
		<rect x="302.5" y="375.9" class="st11" width="83.5" height="62.9"/>
		<rect x="310.6" y="381.3" class="st12" width="27.8" height="15.7"/>
		<rect x="345.1" y="381.3" class="st13" width="32.7" height="3.6"/>
		<rect x="345.1" y="387.4" class="st13" width="23" height="3.6"/>
		<rect x="345.1" y="393.4" class="st13" width="32.7" height="3.6"/>
		<rect x="310.6" y="399.5" class="st13" width="67.1" height="3.6"/>
		<rect x="310.6" y="405.5" class="st13" width="67.1" height="3.6"/>
		<rect x="310.6" y="411.6" class="st13" width="67.1" height="3.6"/>
		<rect x="310.6" y="417.6" class="st13" width="61.7" height="3.6"/>
		<rect x="310.6" y="423.7" class="st13" width="67.1" height="3.6"/>
		<rect x="310.6" y="429.7" class="st13" width="67.1" height="3.6"/>
		<rect x="394.4" y="375.9" class="st11" width="83.5" height="62.9"/>
		<rect x="402.6" y="381.3" class="st12" width="27.8" height="15.7"/>
		<rect x="437.1" y="381.3" class="st13" width="32.7" height="3.6"/>
		<rect x="437.1" y="387.4" class="st13" width="23" height="3.6"/>
		<rect x="437.1" y="393.4" class="st13" width="32.7" height="3.6"/>
		<rect x="402.6" y="399.5" class="st13" width="67.1" height="3.6"/>
		<rect x="402.6" y="405.5" class="st13" width="67.1" height="3.6"/>
		<rect x="402.6" y="411.6" class="st13" width="67.1" height="3.6"/>
		<rect x="402.6" y="417.6" class="st13" width="61.7" height="3.6"/>
		<rect x="402.6" y="423.7" class="st13" width="67.1" height="3.6"/>
		<rect x="402.6" y="429.7" class="st13" width="67.1" height="3.6"/>
		<rect x="210.5" y="446.6" class="st11" width="83.5" height="62.9"/>
		<rect x="218.7" y="452.1" class="st12" width="27.8" height="15.7"/>
		<rect x="253.2" y="452.1" class="st13" width="32.7" height="3.6"/>
		<rect x="253.2" y="458.1" class="st13" width="23" height="3.6"/>
		<rect x="253.2" y="464.2" class="st13" width="32.7" height="3.6"/>
		<rect x="218.7" y="470.3" class="st13" width="67.1" height="3.6"/>
		<rect x="218.7" y="476.3" class="st13" width="67.1" height="3.6"/>
		<rect x="218.7" y="482.4" class="st13" width="67.1" height="3.6"/>
		<rect x="218.7" y="488.4" class="st13" width="61.7" height="3.6"/>
		<rect x="218.7" y="494.5" class="st13" width="67.1" height="3.6"/>
		<rect x="218.7" y="500.5" class="st13" width="67.1" height="3.6"/>
		<rect x="302.5" y="446.6" class="st11" width="83.5" height="62.9"/>
		<rect x="310.6" y="452.1" class="st12" width="27.8" height="15.7"/>
		<rect x="345.1" y="452.1" class="st13" width="32.7" height="3.6"/>
		<rect x="345.1" y="458.1" class="st13" width="23" height="3.6"/>
		<rect x="345.1" y="464.2" class="st13" width="32.7" height="3.6"/>
		<rect x="310.6" y="470.3" class="st13" width="67.1" height="3.6"/>
		<rect x="310.6" y="476.3" class="st13" width="67.1" height="3.6"/>
		<rect x="310.6" y="482.4" class="st13" width="67.1" height="3.6"/>
		<rect x="310.6" y="488.4" class="st13" width="61.7" height="3.6"/>
		<rect x="310.6" y="494.5" class="st13" width="67.1" height="3.6"/>
		<rect x="310.6" y="500.5" class="st13" width="67.1" height="3.6"/>
		<rect x="394.4" y="446.6" class="st11" width="83.5" height="62.9"/>
		<rect x="402.6" y="452.1" class="st12" width="27.8" height="15.7"/>
		<rect x="437.1" y="452.1" class="st13" width="32.7" height="3.6"/>
		<rect x="437.1" y="458.1" class="st13" width="23" height="3.6"/>
		<rect x="437.1" y="464.2" class="st13" width="32.7" height="3.6"/>
		<rect x="402.6" y="470.3" class="st13" width="67.1" height="3.6"/>
		<rect x="402.6" y="476.3" class="st13" width="67.1" height="3.6"/>
		<rect x="402.6" y="482.4" class="st13" width="67.1" height="3.6"/>
		<rect x="402.6" y="488.4" class="st13" width="61.7" height="3.6"/>
		<rect x="402.6" y="494.5" class="st13" width="67.1" height="3.6"/>
		<rect x="402.6" y="500.5" class="st13" width="67.1" height="3.6"/>
		<rect x="210.5" y="520.2" class="st11" width="83.5" height="62.9"/>
		<rect x="218.7" y="525.7" class="st12" width="27.8" height="15.7"/>
		<rect x="253.2" y="525.7" class="st13" width="32.7" height="3.6"/>
		<rect x="253.2" y="531.7" class="st13" width="23" height="3.6"/>
		<rect x="253.2" y="537.8" class="st13" width="32.7" height="3.6"/>
		<rect x="218.7" y="543.8" class="st13" width="67.1" height="3.6"/>
		<rect x="218.7" y="549.9" class="st13" width="67.1" height="3.6"/>
		<rect x="218.7" y="555.9" class="st13" width="67.1" height="3.6"/>
		<rect x="218.7" y="562" class="st13" width="61.7" height="3.6"/>
		<rect x="218.7" y="568" class="st13" width="67.1" height="3.6"/>
		<rect x="218.7" y="574.1" class="st13" width="67.1" height="3.6"/>
		<rect x="302.5" y="520.2" class="st11" width="83.5" height="62.9"/>
		<rect x="310.6" y="525.7" class="st12" width="27.8" height="15.7"/>
		<rect x="345.1" y="525.7" class="st13" width="32.7" height="3.6"/>
		<rect x="345.1" y="531.7" class="st13" width="23" height="3.6"/>
		<rect x="345.1" y="537.8" class="st13" width="32.7" height="3.6"/>
		<rect x="310.6" y="543.8" class="st13" width="67.1" height="3.6"/>
		<rect x="310.6" y="549.9" class="st13" width="67.1" height="3.6"/>
		<rect x="310.6" y="555.9" class="st13" width="67.1" height="3.6"/>
		<rect x="310.6" y="562" class="st13" width="61.7" height="3.6"/>
		<rect x="310.6" y="568" class="st13" width="67.1" height="3.6"/>
		<rect x="310.6" y="574.1" class="st13" width="67.1" height="3.6"/>
		<rect x="394.4" y="520.2" class="st11" width="83.5" height="62.9"/>
		<rect x="402.6" y="525.7" class="st12" width="27.8" height="15.7"/>
		<rect x="437.1" y="525.7" class="st13" width="32.7" height="3.6"/>
		<rect x="437.1" y="531.7" class="st13" width="23" height="3.6"/>
		<rect x="437.1" y="537.8" class="st13" width="32.7" height="3.6"/>
		<rect x="402.6" y="543.8" class="st13" width="67.1" height="3.6"/>
		<rect x="402.6" y="549.9" class="st13" width="67.1" height="3.6"/>
		<rect x="402.6" y="555.9" class="st13" width="67.1" height="3.6"/>
		<rect x="402.6" y="562" class="st13" width="61.7" height="3.6"/>
		<rect x="402.6" y="568" class="st13" width="67.1" height="3.6"/>
		<rect x="402.6" y="574.1" class="st13" width="67.1" height="3.6"/>
		<rect x="210.5" y="591" class="st11" width="83.5" height="62.9"/>
		<rect x="218.7" y="596.5" class="st12" width="27.8" height="15.7"/>
		<rect x="253.2" y="596.5" class="st13" width="32.7" height="3.6"/>
		<rect x="253.2" y="602.5" class="st13" width="23" height="3.6"/>
		<rect x="253.2" y="608.6" class="st13" width="32.7" height="3.6"/>
		<rect x="218.7" y="614.6" class="st13" width="67.1" height="3.6"/>
		<rect x="218.7" y="620.7" class="st13" width="67.1" height="3.6"/>
		<rect x="218.7" y="626.7" class="st13" width="67.1" height="3.6"/>
		<rect x="218.7" y="632.8" class="st13" width="61.7" height="3.6"/>
		<rect x="218.7" y="638.8" class="st13" width="67.1" height="3.6"/>
		<rect x="218.7" y="644.9" class="st13" width="67.1" height="3.6"/>
		<rect x="302.5" y="591" class="st11" width="83.5" height="62.9"/>
		<rect x="310.6" y="596.5" class="st12" width="27.8" height="15.7"/>
		<rect x="345.1" y="596.5" class="st13" width="32.7" height="3.6"/>
		<rect x="345.1" y="602.5" class="st13" width="23" height="3.6"/>
		<rect x="345.1" y="608.6" class="st13" width="32.7" height="3.6"/>
		<rect x="310.6" y="614.6" class="st13" width="67.1" height="3.6"/>
		<rect x="310.6" y="620.7" class="st13" width="67.1" height="3.6"/>
		<rect x="310.6" y="626.7" class="st13" width="67.1" height="3.6"/>
		<rect x="310.6" y="632.8" class="st13" width="61.7" height="3.6"/>
		<rect x="310.6" y="638.8" class="st13" width="67.1" height="3.6"/>
		<rect x="310.6" y="644.9" class="st13" width="67.1" height="3.6"/>
		<rect x="394.4" y="591" class="st14" width="83.5" height="62.9"/>
		
			<linearGradient id="SVGID_3_" gradientUnits="userSpaceOnUse" x1="254.46" y1="-934.3499" x2="254.46" y2="-1280.02" gradientTransform="matrix(1 0 0 1 -56.59 1706.1799)">
			<stop  offset="0" style="stop-color:#808080;stop-opacity:0.25"/>
			<stop  offset="0.54" style="stop-color:#808080;stop-opacity:0.12"/>
			<stop  offset="1" style="stop-color:#808080;stop-opacity:0.1"/>
		</linearGradient>
		<path class="st16" d="M270.3,426.2H125.5c-7.9,0-14.3,6.4-14.3,14.3c0,0,0,0,0,0l0,0v317.1c0,7.9,6.4,14.3,14.3,14.3c0,0,0,0,0,0
			h144.8c7.9,0,14.3-6.4,14.4-14.3v0l0,0V440.5C284.6,432.6,278.2,426.1,270.3,426.2L270.3,426.2L270.3,426.2z"/>
		<path class="st9" d="M123.4,428.8h148.8c6.1,0,11,4.9,11,11v319.7c0,6.1-4.9,11-11,11H123.4c-6.1,0-11-4.9-11-11V439.8
			C112.4,433.7,117.4,428.8,123.4,428.8z"/>
		<rect x="125" y="460.6" class="st10" width="145.7" height="278.1"/>
		<circle class="st11" cx="180.6" cy="444.7" r="1.3"/>
		<path class="st11" d="M188.3,443.4h27.1c0.6,0,1,0.4,1,1v0.6c0,0.6-0.4,1-1,1h-27.1c-0.6,0-1-0.4-1-1v-0.6
			C187.3,443.8,187.7,443.4,188.3,443.4z"/>
		<circle class="st11" cx="197.2" cy="752" r="9.3"/>
		<rect x="148.2" y="477.3" class="st14" width="99.3" height="74.9"/>
		<rect x="148.2" y="561.5" class="st11" width="99.3" height="74.9"/>
		<rect x="157.9" y="568" class="st12" width="33.1" height="18.7"/>
		<rect x="198.9" y="568" class="st13" width="38.9" height="4.3"/>
		<rect x="198.9" y="575.2" class="st13" width="27.4" height="4.3"/>
		<rect x="198.9" y="582.3" class="st13" width="38.9" height="4.3"/>
		<rect x="157.9" y="589.5" class="st13" width="79.9" height="4.3"/>
		<rect x="157.9" y="596.8" class="st13" width="79.9" height="4.3"/>
		<rect x="157.9" y="604" class="st13" width="79.9" height="4.3"/>
		<rect x="157.9" y="611.2" class="st13" width="73.4" height="4.3"/>
		<rect x="157.9" y="618.3" class="st13" width="79.9" height="4.3"/>
		<rect x="157.9" y="625.5" class="st13" width="79.9" height="4.3"/>
		<rect x="148.2" y="645.9" class="st11" width="99.3" height="74.9"/>
		<rect x="157.9" y="652.4" class="st12" width="33.1" height="18.7"/>
		<rect x="198.9" y="652.4" class="st13" width="38.9" height="4.3"/>
		<rect x="198.9" y="659.6" class="st13" width="27.4" height="4.3"/>
		<rect x="198.9" y="666.8" class="st13" width="38.9" height="4.3"/>
		<rect x="157.9" y="674" class="st13" width="79.9" height="4.3"/>
		<rect x="157.9" y="681.2" class="st13" width="79.9" height="4.3"/>
		<rect x="157.9" y="688.4" class="st13" width="79.9" height="4.3"/>
		<rect x="157.9" y="695.6" class="st13" width="73.4" height="4.3"/>
		<rect x="157.9" y="702.8" class="st13" width="79.9" height="4.3"/>
		<rect x="157.9" y="710" class="st13" width="79.9" height="4.3"/>
		
			<linearGradient id="SVGID_4_" gradientUnits="userSpaceOnUse" x1="505.4306" y1="-923.9232" x2="505.4306" y2="-1116.967" gradientTransform="matrix(1 0 0 1 -56.59 1706.1799)">
			<stop  offset="0" style="stop-color:#808080;stop-opacity:0.25"/>
			<stop  offset="0.54" style="stop-color:#808080;stop-opacity:0.12"/>
			<stop  offset="1" style="stop-color:#808080;stop-opacity:0.1"/>
		</linearGradient>
		<path class="st17" d="M586.8,681.3c-6.7-8.2-14.9-17.5-13.7-28.4c0.9-8.8-1.3-16.9-0.8-25.7c0.6-12.5-1.9-22.3-10.9-30.4
			c-5.3-4.7-14.1-8.4-16.7-7.4c-5.2,1.9-10.9,1.2-16.2,2.4c-4.1,1-6.8,2.4-8.4,4.2c-3.4,3-3.4,7.3-1.9,11.8
			c-5.3,9.7-1.7,21.8,7.9,27.1c0.6,0.3,1.3,0.7,2,0.9c-3.8,1.6-7,5.2-8.3,12.5c-0.9,5-2.2,10-4,14.8c-0.8,0.4-1.6,0.7-2.4,1l0.6,0.2
			l-1.2,0.4c0.7,0.3,1.5,0.5,2.2,0.6c-2.7,7.1-6.4,13.8-10.9,19.9c0,0-11.3,2.5-15.7-1.9c0,0,0.7,0.8,1.7,2.1
			c-4.3-1.8-11.4-4.7-17.4-7.1c-4.4-1.7-5.5,0-5.5,2.4c-1.1,0.1-2.1,0.5-3.1,1c-1.3-0.8-2.7-1.6-4.1-2.2c-2.5-0.6-10.7-5-18.9,10
			c-4.8,8.7-17,24.7-26.4,36.4c-18.3,8.4-42,19-50.8,21.7h-5.6c-0.7-1.2-1.3-2-1.3-2l-0.4,0.3l-0.2-0.3c0,0-11.1,7.7-22.4,7.8
			c-1.6,0-3.2-0.2-4.8-0.6c-5.2-1.3-8.8-1.9-11.5-1.8c-3.1,0-4.8,0.7-5.9,2.1l0,0c-0.1,0.2-0.3,0.4-0.4,0.6l0,0
			c-0.1,0.2-0.2,0.4-0.3,0.6l0,0c-0.1,0.2-0.2,0.5-0.3,0.7c-0.1,0.4,0.1,0.9,0.4,1.2c0.2,0.2,0.3,0.4,0.5,0.6l0.3,0.3
			c2.2,2.1,4.7,4,7.2,5.6c0.9,0.6,1.9,1.3,2.9,1.9l2,1.2l1.7,1.1l0.7,0.4l0.8,0.5l1.4,0.8l0.8,0.5l1.6,0.9l1.3,0.8
			c3.3,2,6.6,3.8,9.6,5.5l2.1,1.2l0.2,0.1l1.3,0.7l2.3,1.3l1.6,0.9l0.7,0.4l0.8,0.4l0.2,0.1l1.4,0.8c0.6,0.1,1.2-0.1,1.6-0.4
			c0.4-1.7,1.4-5.3,2.4-5.6s5.6-8.2,6.9-13.5h12.3c2.4-0.2,4.8-0.6,7.2-1.1c-3.2,2.3-6.3,3.7-8.8,3.1c-5.2-1.3-10,1.9-10.5,5
			l-0.1,0.2v1.4c0,0.1,0,0.2,0.1,0.3c0.1,0.1,0,0.1,0,0.2c0,0.1,0.1,0.2,0.1,0.3v0c0.1,0.1,0.1,0.3,0.2,0.4l0.1,0.1l0.2,0.3l0.1,0.1
			l0.2,0.2l0.2,0.1l0.3,0.2l0.2,0.1l0.3,0.2l0.2,0.1l0.4,0.2l0.2,0.1c0.2,0.1,0.5,0.2,0.7,0.3s0.9,0.3,1.4,0.4l0.5,0.1l0.8,0.2
			l0.4,0.1l1.7,0.3l0.8,0.2l0.7,0.1l1.5,0.3l3,0.5l2.6,0.4l3.5,0.5l0.8,0.1l1.2,0.2l1.8,0.2l1.2,0.2l0,0l3.1,0.4l1,0.1l2,0.2
			c2.6,0.3,5.1,0.6,7.5,0.9l2.7,0.3l1.4,0.2l0.6,0.1l1.6,0.2l0.9,0.1l1.1,0.1l1.6,0.2h0.2l1,0.1l0,0c0.5,0.1,0.9-0.3,1-0.8
			c0,0,0,0,0,0c0,0,0,0,0-0.1l0,0V780c0.1-0.1,0.1-0.3,0.1-0.5c0-1.5,0.2-3,0.6-4.4c0.1-0.3,0.1-0.5,0.2-0.8l0.1-0.3
			c0.1-0.3,0.2-0.6,0.4-0.9c0.1-0.2,0.2-0.5,0.2-0.7l0.1-0.2c0-0.1,0-0.3,0.1-0.4c1.3-4.3-0.3-12.4-0.7-15.5c-0.1-1-0.4-2-0.7-3h0.2
			c0.7-0.2,1.3-0.6,1.8-1c9.3-3.3,17.1-7.1,19.6-10.9c4-1.1,8.3-0.6,12,1.3c4.8,2.4,41.1,14.2,58,19.7c3,2.6,5.4,4.2,6.7,4
			c0,0,21.5,3.5,30.2-3.3c0.8,0.5,1.3,0.8,1.3,0.8s12.6-6.3,14.5-14.4c0.6-2.6,1.2-6.5,1.7-10.8c2.9-2.9,4.6-6.9,4.6-11.1
			c0.4-13.7,5.7-29.2,9.6-43.1c4.8,0.4,6.6-0.5,11-2.7l-0.2-0.3L586.8,681.3z M514.7,701.7l-2.4-0.8c0.8-1.1,1.5-2.3,2.1-3.5
			L514.7,701.7z M501.1,707.4l14.6,8.8l0.1,1.8c-0.2,1.3-0.1,2.7,0.1,4C509.6,716.3,502.1,709.4,501.1,707.4L501.1,707.4z
			 M495.1,694.7c-1.6-0.7-2.9-1.3-3.8-1.7l3.4,0.2C494.9,693.7,495.1,694.2,495.1,694.7L495.1,694.7z M456.1,708.9
			c0,0,2.5-5.6,8.2,3.8c0.9,1.5,2.5,3.8,4.6,6.7l-16.5-2.2C454.2,714.7,455.4,711.9,456.1,708.9L456.1,708.9z"/>
		<path class="st18" d="M492.4,686.3c0,0-11.5-4.9-20.6-8.5s-3.6,8.5-3.6,8.5s15.2,4.3,15.2,4.9s12.8,1.2,12.8,1.2L492.4,686.3z"/>
		<path class="st19" d="M492.4,686.3c0,0-11.5-4.9-20.6-8.5s-3.6,8.5-3.6,8.5s15.2,4.3,15.2,4.9s12.8,1.2,12.8,1.2L492.4,686.3z"/>
		<path class="st20" d="M541.6,638.4c0,0-20.6-10.9-24.3,10.3c-2.3,12.9-7.5,25.2-15.1,35.8c0,0-10.9,2.4-15.2-1.8
			c0,0,10.3,12.1,5.5,13.4c0,0,10.9,7.9,15.8,5.5s8.5-18.8,10.3-23.1S527,637.2,541.6,638.4z"/>
		<path class="st14" d="M541.6,638.4c0,0-20.6-10.9-24.3,10.3c-2.3,12.9-7.5,25.2-15.1,35.8c0,0-10.9,2.4-15.2-1.8
			c0,0,10.3,12.1,5.5,13.4c0,0,10.9,7.9,15.8,5.5s8.5-18.8,10.3-23.1S527,637.2,541.6,638.4z"/>
		<path class="st18" d="M530,631.1c0,0,12.8,14.6,13.4,26.7s14.6-12.8,15.8-13.4s-12.2-21.2-13.4-27.9S530,631.1,530,631.1z"/>
		<polygon class="st18" points="538.8,637.3 530.8,644.6 534.6,659.9 544.9,650.2 543.7,640.5 		"/>
		<polygon class="st18" points="371,745.3 357,745.3 362.5,758.6 375.8,755 		"/>
		<path class="st14" d="M360.2,743.3c0,0-14.4,10.1-26.8,6.9s-15.7-2-17.1,2.1c-1.3,3.7,34.5,23.4,40.2,26.5
			c0.3,0.2,0.7,0.1,0.9-0.2c0-0.1,0.1-0.2,0.1-0.2c0.4-1.7,1.3-5.2,2.3-5.5c1.3-0.3,7.3-11.5,7-15.9S360.2,743.3,360.2,743.3z"/>
		<path class="st21" d="M359.6,743.3c0,0-14.4,10.1-26.8,6.9s-15.7-2-17.1,2.1c-1.3,3.7,34.5,23.4,40.2,26.5
			c0.3,0.2,0.7,0.1,0.9-0.2c0-0.1,0.1-0.2,0.1-0.2c0.4-1.7,1.3-5.2,2.3-5.5c1.3-0.3,7.3-11.5,7-15.9S359.6,743.3,359.6,743.3z"/>
		<path class="st20" d="M479,719.1l-40.7-5.5c0,0-66.2,31.6-74.1,32.2l1.8,14h12.1c4.9,0,52.2-10.3,58.9-20.6c3.9-1,8-0.6,11.5,1.2
			c6.1,3,64.4,21.9,64.4,21.9L479,719.1z"/>
		<path class="st14" d="M479,719.1l-40.7-5.5c0,0-66.2,31.6-74.1,32.2l1.8,14h12.1c4.9,0,52.2-10.3,58.9-20.6c3.9-1,8-0.6,11.5,1.2
			c6.1,3,64.4,21.9,64.4,21.9L479,719.1z"/>
		<polygon class="st18" points="406.8,738 400.1,746.5 406.8,750.1 416.5,742.8 		"/>
		<path class="st20" d="M522.8,728.2c0,0-21.8-18.7-23.4-22.1s-37.3-26.5-39.8-27.1s-10.3-4.9-18.2,9.7s-37,49.8-37,49.8
			s9.1,12.8,12.1,12.1s37-29.1,39.5-43.1c0,0,2.4-5.5,7.9,3.6s40.7,52.8,47.4,52.2c0,0,26.1,4.3,31.6-6.1S522.8,728.2,522.8,728.2z"
			/>
		
			<linearGradient id="SVGID_5_" gradientUnits="userSpaceOnUse" x1="425.72" y1="-1096.8251" x2="516.63" y2="-1096.8251" gradientTransform="matrix(1 0 0 1 0 1761.3)">
			<stop  offset="0" style="stop-color:#808080;stop-opacity:0.25"/>
			<stop  offset="0.54" style="stop-color:#808080;stop-opacity:0.12"/>
			<stop  offset="1" style="stop-color:#808080;stop-opacity:0.1"/>
		</linearGradient>
		<rect x="425.7" y="630.2" class="st22" width="90.9" height="68.5"/>
		<rect x="429.4" y="633" class="st11" width="83.5" height="62.9"/>
		<rect x="437.6" y="638.5" class="st12" width="27.8" height="15.7"/>
		<rect x="472.1" y="638.5" class="st13" width="32.7" height="3.6"/>
		<rect x="472.1" y="644.5" class="st13" width="23" height="3.6"/>
		<rect x="472.1" y="650.6" class="st13" width="32.7" height="3.6"/>
		<rect x="437.6" y="656.6" class="st13" width="67.1" height="3.6"/>
		<rect x="437.6" y="662.7" class="st13" width="67.1" height="3.6"/>
		<rect x="437.6" y="668.7" class="st13" width="67.1" height="3.6"/>
		<rect x="437.6" y="674.8" class="st13" width="61.7" height="3.6"/>
		<rect x="437.6" y="680.8" class="st13" width="67.1" height="3.6"/>
		<rect x="437.6" y="686.9" class="st13" width="67.1" height="3.6"/>
		<path class="st21" d="M535.2,639.3c0,0-7.6,3.3-8.2,17.3s-14,37.6-14,37.6l1.2,27.9c0,0,14.6,14.6,15.8,23.7s11.5,15.2,11.5,15.2
			s12.1-6.1,14-14s3-27.3,6.1-34.6s1.2-52.8,1.2-52.8l-9.1-15.8l-4.9-5.5l-12.8,14.6C536.1,652.9,529.1,643.5,535.2,639.3z"/>
		<path class="st14" d="M517.3,713.1c0,0-1.8-21.9,3.6-26.7l10.9-31c0,0,4-14.9,3.3-16.1s-14.3,11.8-14.3,11.8l-9.1,32.2l2.4,34
			L517.3,713.1z"/>
		<path class="st20" d="M516.7,713.1c0,0-1.8-21.9,3.6-26.7l10.9-31c0,0,4.3-15.2,3.6-16.4s-14.6,12.1-14.6,12.1l-9.1,32.2l2.4,34
			L516.7,713.1z"/>
		<path class="st18" d="M520.9,703.3c0,0-30.4-9.7-32.2-12.1s-21.3-18.2-27.9-7.3s24.9,14,24.9,14l32.2,19.4L520.9,703.3z"/>
		<path class="st14" d="M408.1,746.4l-9-1.6c0,0-14.7,18.8-22.4,16.9s-14.7,6.3-6.6,9c7.3,2.4,38.9,5.7,45,6.4
			c0.5,0.1,0.9-0.3,1-0.8c0,0,0-0.1,0-0.1c0-2.3,0.5-4.7,1.3-6.8c1.6-4,0-12.5-0.5-15.8c-0.3-1.9-0.9-3.8-1.8-5.5L408.1,746.4z"/>
		<path class="st21" d="M408,747l-9-1.6c0,0-14.7,18.9-22.4,16.9s-14.7,6.3-6.6,9c7.3,2.4,38.9,5.7,45,6.4c0.5,0.1,0.9-0.3,1-0.8
			c0,0,0-0.1,0-0.1c0-2.3,0.5-4.7,1.3-6.8c1.6-4,0-12.5-0.5-15.8c-0.3-1.9-0.9-3.8-1.8-5.5L408,747z"/>
		<circle class="st14" cx="534.6" cy="618.7" r="19.4"/>
		<circle class="st18" cx="532.8" cy="618.7" r="19.4"/>
		<path class="st20" d="M551.9,637.8c0,0,23.1,7.9,23.1,24.3s-12.8,42.5-13.4,63.8s-34,18.2-34,18.2s-4.9-71.6,0-77.1
			S554.3,640.2,551.9,637.8z"/>
		<path class="st14" d="M547.7,671.8c0,0-8.5,37.6-28.5,31c0,0-10.3,15.2-3,21.9c0,0,17.6,4.3,29.1-7.3s20-15.8,21.8-29.8
			s3-33.4-3-31.6S547.7,671.8,547.7,671.8z"/>
		<path class="st20" d="M548.3,671.2c0,0-8.5,37.6-28.5,31c0,0-10.3,15.2-3,21.9c0,0,17.6,4.3,29.1-7.3s20-15.8,21.9-29.8
			s3-33.4-3-31.6S548.3,671.2,548.3,671.2z"/>
		<path class="st23" d="M417.8,768c0,0.1,0,0.1-0.1,0.2c-0.4,1-0.8,2.1-1,3.2c0.1-0.5,0.3-1,0.5-1.5
			C417.5,769.3,417.6,768.7,417.8,768z"/>
		<path class="st23" d="M370.4,769.5c-2.5-0.8-3.5-2.2-3.6-3.6c-1,2-0.4,4.2,3.1,5.4c7.3,2.4,38.9,5.7,45,6.4c0.5,0.1,0.9-0.3,1-0.8
			c0,0,0-0.1,0-0.1l0,0c0-0.5-0.3-0.8-0.8-0.9C408.5,775.2,377.6,771.9,370.4,769.5z"/>
		<path class="st23" d="M316.5,751.3c0.2-0.4,0.4-0.9,0.6-1.3c-0.7,0.7-1.1,1.5-1.4,2.4c-1.3,3.7,34.5,23.4,40.2,26.5
			c0.3,0.2,0.7,0.1,0.9-0.2c0-0.1,0.1-0.1,0.1-0.2l0,0c0.1-0.3-0.1-0.6-0.3-0.7C350.2,774.2,315.2,755,316.5,751.3z"/>
		<path class="st23" d="M360,771.9c-0.3,0.1-0.6,0.5-0.9,1.1h0.1c0.3-0.1,0.7-0.6,1.3-1.4C360.3,771.7,360.2,771.8,360,771.9z"/>
		<path class="st14" d="M530.1,635.8c-1.7,3.8-2.1,8-3.3,12c-2.5,7.8-8.5,14.1-16.3,16.9c6.3,2.5,13.8-0.6,18.6-5.7
			s7.7-11.9,10.5-18.5c7.1,4.8,6.2,15.7,8.6,24.2c2.1,7.5,7.3,13.7,14.3,17.1c7,3.1,15,3,21.9-0.4c-6.5-7.9-15.7-18.8-14.6-29.3
			c0.9-8.5-5.2-15.1-4.8-23.6c0.6-12.2-4-18.3-12.8-26.1c-5.1-4.6,2.9-11-3.6-9.1c-2.6,0.7-5.3-2-7.8-1.1c-5,1.8-10.5,1.1-15.7,2.3
			C498.3,600.7,532.6,630.3,530.1,635.8z"/>
		<path class="st24" d="M530.7,635.2c-1.7,3.8-2.1,8-3.3,12c-2.5,7.8-8.5,14.1-16.3,16.8c6.3,2.5,13.8-0.6,18.6-5.7
			s7.7-11.9,10.5-18.5c7.1,4.8,6.2,15.7,8.6,24.2c2.1,7.5,7.3,13.7,14.3,17.1c7,3.1,15,3,21.9-0.4c-6.5-7.9-15.1-17-14-27.5
			c0.9-8.5-0.4-17.3,0-25.9c0.6-12.2-5.3-23.9-14.1-31.7c-5.1-4.6-13-5.1-15.6-4.2c-5,1.8-10.5,1.1-15.7,2.3
			C498.9,600.1,533.2,629.6,530.7,635.2z"/>
		
			<linearGradient id="SVGID_6_" gradientUnits="userSpaceOnUse" x1="-2859.7727" y1="-878.1763" x2="-2859.7727" y2="-1307.1974" gradientTransform="matrix(-1 0 0 1 -2560.6799 1706.1799)">
			<stop  offset="0" style="stop-color:#808080;stop-opacity:0.25"/>
			<stop  offset="0.54" style="stop-color:#808080;stop-opacity:0.12"/>
			<stop  offset="1" style="stop-color:#808080;stop-opacity:0.1"/>
		</linearGradient>
		<path class="st25" d="M207,820c35-10.8,55.7-9.9,55.7-9.9l-2.9-16.3c0.9-0.6,1.7-1.3,2.4-2.1c0,0-3.6-19.8,0-24.7
			s13.5-49.8,13.5-49.8V702c18-6.3,39-42.6,39-42.6l26.5,68.2c0,0,26.5,52.5,30.1,54.3c2.9,1.4,4.3,13.2,4.8,17.8l-0.2,0.1
			c0.1,1.1,0.2,1.8,0.2,1.8l0.2-0.1v0.1c0.4-0.3,0.9-0.6,1.4-0.8c-5.2,5.9-12.9,14.5-19.4,20.1c-3.5,3.1,2.8,5.5,5.8,5.5
			c1.7-0.1,3.4,0.2,5,0.7c15.1,5.2,39.9-13.8,39.9-13.8l-6.2-17.3c1.6-0.1,2.6-0.2,2.6-0.2s-20.2-70.9-29.6-77.7
			c-3-2.2-5.7-4.7-8-7.6c-4.5-5.5-6.7-12.4-6.3-19.4l3.3-58.2c5.3-0.8,8.8-1.4,8.8-1.4s1.2-15.9,1.2-28.1c0-6.3-0.3-11.9-1.2-14.1
			c-1.1-2.6-1.5-7.7-1.5-12.9c0-7,0.6-13.6,0.6-13.6s7.2-9.4,17.1-31c4.4-9.5,5.5-17,5.4-22.4c0.1-2.5-0.2-5-0.7-7.5
			c-0.6-2.4-2.1-4.6-4.2-5.9c-5.7-3.5-18.6-12.1-22.4-20.4c-4.8-10.6-11.8-12.1-12.1-12.1l-0.4-1.9c2.7-2.2,4.6-5.2,5.6-8.5
			c1.5-4.5,1.8-9.3,3-13.9c0.6-2.2,1.4-4.3,2-6.5c0.6-2.2,0.8-4.5,0.8-6.8c0.1-3.3-0.6-6.6-2-9.6c-2.3-4.8-6.9-8.5-12.2-9.1
			c-2.9-0.3-6.1,0.2-8.5-1.5c-1.6-1.2-2.5-3.2-4-4.5c-2.9-2.7-7.4-2.6-11.1-1.3c-5,1.7-9.3,5-12.2,9.5c-1.7,2.7-2.9,5.7-5.2,8
			c-1.9,1.9-4.3,3.1-6.4,4.8c-3.1,2.4-4.9,6.1-5,10v0.9c0.1,3.9,2.8,7.7,6.6,8.5c1,0.2,2,0.2,3,0.1c-3.5,12.9,4.1,26.2,17.1,29.7
			c0,0,0,0,0,0l0.9,0.2c-0.1,0.3-0.1,0.6-0.2,1h0.2c-0.4,1.5-0.9,3.1-1.5,4.5h-0.3l0.7-1.3l-10.3-0.7c-3-0.2-6,0.3-8.7,1.6
			c-4.5,2-7.6,6.3-7.9,11.2c-0.9,11.6-22.9,29.1-22.9,29.1c-7.6,12.1-57.5,14.4-57.5,14.4s0.2,0.3,0.3,0.4l-1-0.2l-3.8-0.7
			c0,0-11.7-34.6-22.9-28.3s19.3,40.4,19.3,40.4l8.8,0.6l0.9,0.1c-0.3,2.2-0.8,4.5-1.4,6.6l0,0c-0.1,0.4-0.2,0.7-0.2,0.8l0,0
			c0,0,23.2-2.7,42.9-2.3h1.8l1.3-0.1c1,10.8,16.4,32.8,16.4,32.8l9.5,2l0.7,0.2c-3.1,6.4-7,12.3-11.6,17.6l-3.1,17.5l0.3-0.1
			l-0.3,1.4c0.5-0.1,1-0.4,1.5-0.8c-6.1,16.3-16.4,41.7-23.4,50.6c-10.8,13.5-9.4,35-9.4,35s-10.8,56.6-10.3,66.9
			c0.1,5-1.3,9.9-3.9,14.1c-2.1,2.4-4,5.1-5.5,7.9c-8.1,13.9-21.1,13-21.1,13C193.6,814.2,207,820,207,820z M276.3,546.2
			L276.3,546.2l1.2-0.5l0.3-0.1l1.1-0.5l0.2-0.1l1-0.5l0.2-0.1l1.1-0.5l0.3-0.1l1-0.5h0.1l1-0.6l0.2-0.1l1-0.6l0.2-0.1l0.9-0.5
			l0.2-0.1l0.9-0.6l0.2-0.1l0.9-0.6h0.1l0.9-0.6l0.2-0.1l0.8-0.6l0.1-0.1l0.7-0.5l0.2-0.1l0.8-0.6l0.2-0.1l0.7-0.5h0.1l0.7-0.6
			l0.1-0.1l0.7-0.5h0.1l0.6-0.5l0.1-0.1l0.6-0.5l0.1-0.1l0.5-0.5l0,0l0.5-0.5l0.1-0.1l1-1l1.5-0.1c1.2,1.6,1.7,4.5,1.8,7.7
			c-0.1,8.4-2.7,18.8-2.7,18.8c-0.2,5.1-1.1,10.2-2.7,15.1c-1.1-0.1-2.2-0.3-3.2-0.8c0,0-0.1,0.3-0.1,0.9l-0.9-0.2l-4.4-1.1
			C287.3,572.4,283.7,553.9,276.3,546.2L276.3,546.2z"/>
		<path class="st26" d="M398,785.3l8.3,23.2c0,0-22.8,17.5-37.6,13.9c-2.2-0.6-4.5-0.9-6.8-1.1c-3.1-0.2-8.4-2.5-5.1-5.3
			c10.5-9.2,24.5-26.3,24.5-26.3L398,785.3z"/>
		<path class="st26" d="M259.6,783.1l3.9,22.3c0,0-20.2-0.9-54.3,9.6c0,0-13.1-5.7-2.2-12.7c0,0,12.7,0.9,20.6-12.7
			s12.7-11.8,12.7-11.8L259.6,783.1z"/>
		<path class="st27" d="M363.9,621l-3.9,68c-0.4,7.2,2,14.4,6.7,19.9c2.1,2.5,4.6,4.8,7.2,6.8c9.2,6.6,28.9,75.8,28.9,75.8
			s-22.4,1.3-28.5,5.7c0,0-1.3-17.5-4.8-19.3s-29.4-53-29.4-53l-25.9-66.6c0,0-20.6,35.5-38.1,41.6v14.9c0,0-9.6,43.8-13.1,48.6
			s0,24.1,0,24.1s-10.1,12.7-33.3-0.9c0,0,7.4-8.3,7-18.4s10.1-65.3,10.1-65.3s-1.3-21,9.2-34.2c10.5-13.2,28-63.5,28-63.5l12.1-26
			L363.9,621z"/>
		<g class="st28">
			<path d="M398.7,791.5c0,0-19.7-69.2-28.9-75.8c-2.8-2.1-5.4-4.5-7.6-7.2c-4.5-5.4-6.8-12.4-6.3-19.5l3.9-68l-64.6-39.8l0.9-1.9
				l67.7,41.7l-3.9,68c-0.4,7,1.8,14,6.3,19.4c2.2,2.7,4.8,5.1,7.6,7.2c9.2,6.6,28.9,75.8,28.9,75.8s-22.4,1.3-28.5,5.7
				c0,0,0-0.7-0.2-1.8C382.6,792.4,398.7,791.5,398.7,791.5z"/>
			<path d="M258.9,787.5c0,0-3.5-19.3,0-24.1c3.5-4.8,13.1-48.6,13.1-48.6v-14.9c17.5-6.1,38.1-41.6,38.1-41.6l1.5,4
				c-5.9,9.4-21.8,32.7-35.7,37.6v14.9c0,0-9.6,43.8-13.1,48.6s0,24.1,0,24.1s-4.9,6.2-15.7,5.3
				C255.2,792.2,258.9,787.5,258.9,787.5z"/>
		</g>
		<path class="st29" d="M213.1,544.7l8.6,0.6l4.5,0.3v-11l-6-1.1l-3.7-0.7c0,0-11.4-33.7-22.4-27.6S213.1,544.7,213.1,544.7z"/>
		<path class="st29" d="M351.1,454.5c0,0,5.7,21.9,7.5,35.5s-40.8,2.6-40.8,2.6s16.2-19.7,7-30.2L351.1,454.5z"/>
		<path class="st30" d="M305.1,545.6l-0.9,8.3l13.6-0.9l13.6-11.8l13.6-38.1l8.8-13.6l6.6-8.3l-2.6-10.1c0,0-1.2,1-3.2,2.6
			c-6.7,5.1-22.3,15.7-33.8,12.8c-0.5-0.1-1.1-0.3-1.6-0.5l-17.1,29.4L305.1,545.6z"/>
		<path class="st14" d="M354.2,468.5c0,0,7,1.3,11.8,11.8c3.7,8.1,16.2,16.4,21.8,19.9c2.2,1.3,3.7,3.4,4.2,5.9
			c1.1,5,1.6,14.3-4.6,27.7c-9.6,21-16.6,30.2-16.6,30.2s-1.8,21,0.9,27.2s0,39.9,0,39.9s-46,8.8-61.4,0s-13.1-42.6-13.1-42.6
			s-14.5,30.7-19.7,31.6l3-17.1c0,0,17.1-18.4,18-42.1c0,0,5.3-21.5,0.9-27.2c0,0-74.1,6.1-78.4,0.9c0,0,48.6-2.2,56.1-14
			c0,0,21.5-17.1,22.4-28.5c0.3-4.3,2.7-8.2,6.6-10.3c3-1.7,6.4-2.5,9.8-2.2l9.9,0.7c0,0-17.1,30.2-16.2,34.2s-0.9,35.9-0.9,35.9
			s19.7-42.5,28.5-47.3s18.8-24.6,18.8-24.6L354.2,468.5"/>
		<path class="st14" d="M305.1,545.6l-0.9,8.3l13.6-0.9l13.6-11.8l13.6-38.1l8.8-13.6l6.6-8.3l-2.6-10.1c0,0-1.2,1-3.2,2.6l0.6,3.5
			c0,0-10.1,19.8-18.8,24.6s-28.5,47.3-28.5,47.3s1.8-32,0.9-35.9c-0.6-2.7,7.1-17.5,12.1-26.7c-0.5-0.1-1.1-0.3-1.6-0.5l-17.1,29.4
			L305.1,545.6z"/>
		<path class="st14" d="M221.7,545.3l4.5,0.3v-11l-6-1.1C222.4,536.3,222.3,541.2,221.7,545.3z"/>
		<path class="st31" d="M354.2,467.2c0,0,7,1.3,11.8,11.8c3.7,8.1,16.2,16.4,21.8,19.9c2.2,1.3,3.7,3.4,4.2,5.9
			c1.1,5,1.6,14.3-4.6,27.7c-9.6,21-16.6,30.2-16.6,30.2s-1.8,21,0.9,27.2s0,39.9,0,39.9s-46,8.8-61.4,0s-13.1-42.5-13.1-42.5
			s-14.5,30.7-19.7,31.5l3-17.1c0,0,17.1-18.4,18-42.1c0,0,5.3-21.5,0.9-27.2c0,0-17.1,18.4-36.4,18s-42.1,2.2-42.1,2.2
			s4.4-14,0-19.3c0,0,48.6-2.2,56.1-14c0,0,21.5-17.1,22.4-28.5c0.2-4.4,2.7-8.3,6.6-10.4c3-1.7,6.4-2.5,9.8-2.2l9.9,0.7
			c0,0-17.1,30.2-16.2,34.2s-0.9,35.9-0.9,35.9s19.7-42.5,28.5-47.3s18.9-24.6,18.9-24.6L354.2,467.2"/>
		<path class="st14" d="M363.9,513.2c0,0-10.5,35.5-16.6,39.9s-43.4,26.7-54.3,21.5c0,0-2.6,13.2,1.3,16.2c0,0,40.9-1.6,41.2-1.8
			c0,0,26.7-3.5,31.1-16.7s9.6-35.5,9.6-35.5L363.9,513.2z"/>
		<ellipse class="st32" cx="307.8" cy="551.1" rx="1.5" ry="2.2"/>
		<ellipse class="st32" cx="303.4" cy="566.4" rx="1.5" ry="2.2"/>
		<g class="st28">
			<path d="M368.7,629.3c0,0,2.6-33.7,0-39.9s-0.9-27.2-0.9-27.2s7-9.2,16.6-30.2c6.1-13.4,5.7-22.7,4.6-27.7
				c-0.6-2.5-2.1-4.6-4.3-5.9c-5.6-3.4-18.1-11.8-21.8-19.9c-2.7-5.9-6.1-8.9-8.6-10.4l-0.2-1c0,0,7,1.3,11.8,11.8
				c3.7,8.1,16.2,16.4,21.8,19.9c2.2,1.3,3.7,3.4,4.3,5.9c1.1,5,1.6,14.3-4.6,27.7c-9.6,21-16.6,30.2-16.6,30.2s-1.8,21,0.9,27.2
				s0,39.9,0,39.9s-32.9,6.3-52.3,2.9C339.1,635,368.7,629.3,368.7,629.3z"/>
			<path d="M309.6,513.2c0.6,2.7,0,18.6-0.5,28.3c-2.1,4.3-3.5,7.2-3.5,7.2s1.8-32,0.9-35.9c-0.8-3.8,14.6-31.3,16.1-34l3.2,0.2
				C325.8,479,308.6,509.3,309.6,513.2z"/>
			<path d="M260,550c19.3,0.4,36.4-18,36.4-18c0.5,0.7,0.9,1.5,1.1,2.4c-5,4.7-19,16.4-34.4,16c-19.3-0.4-42.1,2.2-42.1,2.2
				s0.1-0.3,0.2-0.8C234.1,550.5,247.1,549.9,260,550z"/>
			<path d="M294.2,586.8c0,0-0.2,2.7-0.1,6.8c-4.6,9-12.9,24.5-16.6,25.1l0.6-3.6C284.6,607.2,294.2,586.8,294.2,586.8z"/>
		</g>
		
			<linearGradient id="SVGID_7_" gradientUnits="userSpaceOnUse" x1="246.875" y1="-1206.14" x2="246.875" y2="-1285.0801" gradientTransform="matrix(1 0 0 1 0 1761.3)">
			<stop  offset="0" style="stop-color:#808080;stop-opacity:0.25"/>
			<stop  offset="0.54" style="stop-color:#808080;stop-opacity:0.12"/>
			<stop  offset="1" style="stop-color:#808080;stop-opacity:0.1"/>
		</linearGradient>
		<rect x="194.5" y="476.2" class="st33" width="104.8" height="78.9"/>
		<rect x="197.2" y="478.3" class="st11" width="99.3" height="74.9"/>
		<rect x="206.9" y="484.7" class="st12" width="33.1" height="18.7"/>
		<rect x="247.9" y="484.7" class="st13" width="38.9" height="4.3"/>
		<rect x="247.9" y="491.9" class="st13" width="27.4" height="4.3"/>
		<rect x="247.9" y="499.1" class="st13" width="38.9" height="4.3"/>
		<rect x="206.9" y="506.3" class="st13" width="79.9" height="4.3"/>
		<rect x="206.9" y="513.5" class="st13" width="79.9" height="4.3"/>
		<rect x="206.9" y="520.7" class="st13" width="79.9" height="4.3"/>
		<rect x="206.9" y="527.9" class="st13" width="73.4" height="4.3"/>
		<rect x="206.9" y="535.1" class="st13" width="79.9" height="4.3"/>
		<rect x="206.9" y="542.3" class="st13" width="79.9" height="4.3"/>
		<path class="st29" d="M281.9,582.4l9.3,2l7.3,1.5l-3.9-11l-2.7-0.7l-4.3-1.1c0,0-6.1-30.7-18.4-28.5S281.9,582.4,281.9,582.4z"/>
		<path class="st14" d="M291.2,584.4l7.3,1.5l-3.9-11l-2.7-0.7C291.3,577.6,291,581,291.2,584.4z"/>
		<path class="st31" d="M363.9,512.3c0,0-10.5,35.5-16.6,39.9s-43.4,26.7-54.3,21.5c0,0-2.6,13.2,1.3,16.2c0,0,40.9-1.6,41.2-1.8
			c0,0,26.7-3.5,31.1-16.7s9.6-35.5,9.6-35.5L363.9,512.3z"/>
		<path class="st14" d="M350.7,455.4c0,0,0.9,3.4,2.1,8.4c-5,9.4-15.7,14.4-26.1,12c1-4.5,0.8-9-2.3-12.6L350.7,455.4z"/>
		<circle class="st29" cx="332.3" cy="451.9" r="23.7"/>
		<path class="st14" d="M311.8,445.3c-1.7,0.5-3.5,0.6-5.3,0.3c-3.7-0.8-6.3-4.5-6.4-8.3c0.1-3.8,1.9-7.4,4.9-9.8
			c2-1.7,4.4-2.9,6.2-4.7c2.2-2.2,3.4-5.2,5-7.8c2.8-4.3,7-7.6,11.9-9.2c3.6-1.2,8.1-1.4,10.9,1.3c1.4,1.4,2.3,3.3,3.9,4.4
			c2.3,1.6,5.5,1.2,8.3,1.5c5.2,0.8,9.7,4.2,11.9,9c2.1,4.8,2.6,10.1,1.2,15.2c-0.5,2.1-1.4,4.2-1.9,6.4c-1.2,4.5-1.5,9.1-2.9,13.5
			s-4.4,8.7-8.8,10c0.4-4.9-0.6-9.9-2.8-14.3c-0.4-1-1.1-1.8-2-2.2c-0.8-0.2-1.6-0.2-2.4,0c-5.5,0.8-11.2-0.3-16-3.2
			c-1.7-1-4.3-4.5-6.1-4.9C318.9,442,314.2,444.8,311.8,445.3z"/>
		<path class="st34" d="M311.8,444.5c-1.7,0.5-3.5,0.6-5.3,0.3c-3.7-0.8-6.3-4.5-6.4-8.3c0.1-3.8,1.9-7.4,4.9-9.8
			c2-1.7,4.4-2.9,6.2-4.7c2.2-2.2,3.4-5.2,5-7.8c2.8-4.3,7-7.5,11.9-9.2c3.6-1.2,8.1-1.4,10.9,1.3c1.4,1.4,2.3,3.3,3.9,4.4
			c2.3,1.6,5.5,1.2,8.3,1.5c5.2,0.8,9.7,4.1,11.9,8.9c2.1,4.8,2.6,10.1,1.2,15.2c-0.5,2.1-1.4,4.2-1.9,6.4
			c-1.2,4.5-1.5,9.1-2.9,13.5s-4.4,8.7-8.8,10c0.4-4.9-0.6-9.9-2.8-14.3c-0.4-1-1.1-1.8-2-2.2c-0.8-0.2-1.6-0.2-2.4,0
			c-5.5,0.8-11.2-0.3-16-3.2c-1.7-1-4.3-4.5-6.1-4.9C318.9,441.1,314.2,443.9,311.8,444.5z"/>
		<path class="st3" d="M129.3,799c1.8-1.5,3.2-3.5,3.8-5.8c0.5-2.3-0.5-5-2.7-5.9c-2.5-0.9-5.1,0.8-7.1,2.5s-4.3,3.7-6.9,3.3
			c2.7-2.5,4-6.2,3.2-9.8c-0.1-0.7-0.4-1.4-0.9-2c-1.4-1.5-3.8-0.8-5.5,0.3c-5.2,3.7-6.7,10.7-6.7,17.1c-0.5-2.3-0.1-4.7-0.1-7
			s-0.7-5-2.6-6.2c-1.2-0.7-2.6-1-4-1c-2.3-0.1-4.9,0.2-6.5,1.9c-2,2.1-1.5,5.7,0.3,8s4.3,3.8,6.8,5.4c1.9,1.2,3.6,2.7,4.8,4.6
			c0.1,0.3,0.3,0.5,0.4,0.8h14.6C123.5,803.5,126.6,801.4,129.3,799z"/>
		<path class="st3" d="M998.3,660c1.8-1.5,3.2-3.5,3.8-5.8c0.5-2.3-0.5-5-2.7-5.9c-2.5-0.9-5.1,0.8-7.1,2.5s-4.3,3.7-6.9,3.3
			c2.7-2.5,4-6.2,3.2-9.8c-0.1-0.7-0.4-1.4-0.9-2c-1.4-1.5-3.8-0.8-5.5,0.3c-5.2,3.7-6.7,10.7-6.7,17.1c-0.5-2.3-0.1-4.7-0.1-7
			s-0.7-5-2.6-6.2c-1.2-0.7-2.6-1-4-1c-2.3-0.1-4.9,0.2-6.5,1.9c-2,2.1-1.5,5.7,0.3,8s4.3,3.8,6.8,5.4c1.9,1.2,3.6,2.7,4.8,4.6
			c0.1,0.3,0.3,0.5,0.4,0.8h14.7C992.6,664.5,995.6,662.4,998.3,660z"/>
		
			<linearGradient id="SVGID_8_" gradientUnits="userSpaceOnUse" x1="1104.9288" y1="-1014.0601" x2="1104.9288" y2="-1433.49" gradientTransform="matrix(1 0 0 1 -56.59 1706.1799)">
			<stop  offset="0" style="stop-color:#808080;stop-opacity:0.25"/>
			<stop  offset="0.54" style="stop-color:#808080;stop-opacity:0.12"/>
			<stop  offset="1" style="stop-color:#808080;stop-opacity:0.1"/>
		</linearGradient>
		<path class="st35" d="M1128.3,359.4c-2.1-6.1-5.1-13.7-7.4-15.5c-0.1-0.1-0.3-0.2-0.5-0.3h-0.3V336l-5.6,0.9
			c-0.9-2.7-1.6-5.5-2-8.3c1.1,1.1,2.8,1.4,4.2,0.8c-0.1-0.1-0.2-0.3-0.3-0.5l0.3-0.1c-0.9-1.5-1.3-3.3-1.3-5.1
			c0-1.6,0.3-3.2,0.8-4.8c1-3.5,2.7-6.7,3.6-10.1c0.6-2.2,0.9-4.5,0.8-6.9c0-3.9-0.9-7.8-2.6-11.3c-0.4-1-1.1-1.9-2-2.6
			c-0.8-0.4-1.6-0.8-2.4-1.2c-1.4-0.9-2.6-2.1-3.5-3.5c-4-4.8-9.3-8.4-15.3-10.2c-1.6-0.6-3.2-0.7-4.9-0.4c-3.8,1-5.1,5.6-8.2,8.1
			c-2.7,2.1-6.4,2.4-9.7,3.1c-3.4,0.6-6.6,2.2-9.1,4.8c-1.6,1.8-2.4,4.1-2.4,6.5c-0.2,2.3,0.8,4.5,2.7,5.9c2.1,1.4,4.7,1.7,7.1,1
			c-3.7,12.8,3.6,26.2,16.4,30c0,0,0,0,0.1,0c0.6,0.2,1.2,0.3,1.8,0.5l0.7,1.2l0,0c2,3.7,3.5,7.7,4.5,11.9
			c-5.1,2.9-10.8,5.6-14.1,5.9c-0.1,1.3-0.4,2.6-0.7,3.9c-0.8,3.2-2.3,6.2-4.4,8.8c-4.6,5.2-25.3,44.3-25.3,44.3s-0.7,1.6-1.7,4.2
			c-12.9,1.6-33.9,3.9-39.7,2.7l-23-21.9c0,0-7.4,5.7-6.8,12.6l-4.2-3.9c0,0-21.9,16.7,12.7,27.6l52.6,6.1
			c-5,15.1-9.7,32.7-8.2,42.3h0.4c1,0,2-0.1,3-0.2l-0.1,1.7l-5.1,90.7c0,0-1.2,16.7,14.4,24.2c0,0,19,55.8,11.5,62.2
			c0,0,0.9,0.5,2.4,1.1l-15.6,13.8c0,0-11.5,2.9-17.8,2.3c-2.3-0.3-4.5,1.1-5,3.4c0,0.1,0,0.2-0.1,0.4v1.1c0,0.1,0,0.3,0.1,0.4v0.1
			c0,0.1,0.1,0.3,0.1,0.4l0,0.1c0.1,0.1,0.1,0.3,0.2,0.4v0.1c0.1,0.1,0.2,0.3,0.2,0.4l0.1,0.1c0.1,0.1,0.2,0.3,0.3,0.4l0.1,0.1
			c0.1,0.1,0.3,0.3,0.4,0.4h0.1l0.4,0.4l0.1,0.1c0.2,0.1,0.3,0.3,0.5,0.4l0.1,0.1c0.2,0.1,0.4,0.2,0.6,0.3h0.1l0.7,0.3h0.1l0.8,0.3
			l0.2,0.1l0.8,0.3h0.1l0.9,0.2h0.1l1,0.2h0.2l1.1,0.2h0.2l1.2,0.1c2.4,0.2,5.6,0.3,9.3,0.2l0,0v0.6c0,0.1,0,0.3,0.1,0.4v0.1
			c0,0.1,0.1,0.3,0.1,0.4l0.1,0.1c0.1,0.1,0.1,0.3,0.2,0.4v0.1c0.1,0.1,0.2,0.3,0.2,0.4l0.1,0.1c0.1,0.1,0.2,0.3,0.3,0.4l0.1,0.1
			c0.1,0.1,0.3,0.3,0.4,0.4h0.1l0.4,0.4l0.1,0.1c0.2,0.1,0.3,0.3,0.5,0.4l0.1,0.1c0.2,0.1,0.4,0.2,0.6,0.3h0.1l0.7,0.3h0.1l0.8,0.3
			l0.2,0.1l0.8,0.3h0.1l0.9,0.2h0.1l1,0.2h0.2l1.1,0.2h0.2l1.2,0.1c15,1.2,62.8-2.3,62.8-2.3l0,0l0,0v-0.2l0,0
			c0.5-2.2,2.8-15.2-5.4-24.8c0.2-0.3,0.5-0.5,0.7-0.8c0,0-6.3-10.9-2.9-14.4s-17.3-63.3-17.3-63.3s-10.9-17.3-4.6-36.8
			s-0.6-40.9-0.6-40.9s15.1-4.5,15.4-23.1V483c0.3,0,0.7,0.1,1,0.1c0.2,0,0.4,0,0.6,0c0,0-2.9-10.4,0.6-17.9s10.9-0.6,17.8-31.1
			c5-22.1,9.4-47.5,11.4-59.8C1130.1,369.3,1129.8,364.2,1128.3,359.4z M996.9,424.1l-5.3-5c1.7,0.7,3.7,1.4,5.8,2.1l19.8,2.3
			C1008.4,424.3,1000.3,424.8,996.9,424.1L996.9,424.1z"/>
		<path class="st36" d="M1047,421.2c0,0-40.7,5.7-49.2,4l-22.6-21.5c0,0-21.5,16.4,12.5,27.1l63.4,7.4L1047,421.2z"/>
		<path class="st19" d="M1047,421.2c0,0-40.7,5.7-49.2,4l-22.6-21.5c0,0-21.5,16.4,12.5,27.1l63.4,7.4L1047,421.2z"/>
		<path class="st37" d="M1061.7,650.9l-19.8,17.5c0,0-11.3,2.8-17.5,2.3s-9,9.6,5.7,10.8c14.7,1.1,61.7-2.3,61.7-2.3
			s4.5-18.1-9.1-28.3H1061.7z"/>
		<path class="st19" d="M1061.7,650.9l-19.8,17.5c0,0-11.3,2.8-17.5,2.3s-9,9.6,5.7,10.8c14.7,1.1,61.7-2.3,61.7-2.3
			s4.5-18.1-9.1-28.3H1061.7z"/>
		<path class="st38" d="M1092.4,671.3c0,2.1-0.3,4.1-0.7,6.1c0,0-47,3.4-61.7,2.3c-7.1-0.5-10.1-3.2-10.6-5.7
			c-0.6,2.9,1.9,6.7,10.6,7.4c14.7,1.1,61.7-2.3,61.7-2.3C1092.3,676.6,1092.5,673.9,1092.4,671.3z"/>
		<path class="st36" d="M1084.9,330.1c0,0,12.4,17.5,7.9,29.4s23.7-12.5,23.7-12.5s-9.1-15.8-4.5-32.8L1084.9,330.1z"/>
		<path class="st37" d="M1081.6,657.7l-19.8,17.5c0,0-11.3,2.8-17.5,2.3s-9.1,9.6,5.7,10.8s61.7-2.3,61.7-2.3s4.5-18.1-9.1-28.3
			H1081.6z"/>
		<path class="st39" d="M1087.2,653.7c-2.9,3.6-7.1,5-11.5,5.3c-9.9,0.5-20.8-5.3-20.8-5.3c7.3-6.2-11.3-61.1-11.3-61.1
			c-15.3-7.3-14.1-23.8-14.1-23.8l5-89.1l1.3-22.4l15.8-9.6l12.5,9.6l11.8,9.1c0.8,2.9,1.3,5.8,1.5,8.8
			c1.4,20.8-15.1,25.7-15.1,25.7s6.8,20.9,0.6,40.2s4.5,36.2,4.5,36.2s20.4,58.8,17,62.2S1087.2,653.7,1087.2,653.7z"/>
		<path class="st19" d="M1087.2,653.7c-2.9,3.6-7.1,5-11.5,5.3c-9.9,0.5-20.8-5.3-20.8-5.3c7.3-6.2-11.3-61.1-11.3-61.1
			c-15.3-7.3-14.1-23.8-14.1-23.8l5-89.1l1.3-22.4l15.8-9.6l12.5,9.6l11.8,9.1c0.8,2.9,1.3,5.8,1.5,8.8
			c1.4,20.8-15.1,25.7-15.1,25.7s6.8,20.9,0.6,40.2s4.5,36.2,4.5,36.2s20.4,58.8,17,62.2S1087.2,653.7,1087.2,653.7z"/>
		<path class="st39" d="M1107,660.5c-9.6,11.9-32.2,0-32.2,0c0.5-0.4,0.8-0.9,1-1.5c4.2-11.3-14-65.2-14-65.2
			c-15.3-7.3-17-24.9-17-24.9l-4-90.6l-0.5-11.7l23.8-9.1l7.3-2.8l24.3,18.7c1.1,3.9,1.6,7.8,1.6,11.8
			c-0.3,18.3-15.1,22.7-15.1,22.7s6.8,20.9,0.6,40.2s4.5,36.2,4.5,36.2s20.4,58.8,17,62.2S1107,660.5,1107,660.5z"/>
		<path class="st14" d="M1097.2,485.1c-4.9-0.7-14.8-6.6-19.9-9.8l-3.2-2c0,0-5.1-14.1-18.7-3.4c-4.4,3.6-9.4,6.4-14.8,8.3
			c-2,0.7-4.2,1.3-6.3,1.6l1.3-22.4l15.8-9.6l12.5,9.6l7.3-2.8l24.3,18.7C1096.7,477.1,1097.2,481.1,1097.2,485.1z"/>
		<path class="st40" d="M1127.8,376.5c-2,12.1-6.3,37.1-11.3,58.8c-6.8,30-14.1,23.2-17.5,30.5s-0.6,17.5-0.6,17.5
			c-5.7,0.6-24.3-11.9-24.3-11.9s-5.1-14.1-18.7-3.4s-24.3,10.2-24.3,10.2c-2.8-18.7,18.1-68.4,18.1-68.4s20.4-38.5,24.9-43.6
			c2.1-2.5,3.6-5.4,4.4-8.6c0.3-1.3,0.6-2.5,0.7-3.9c7.3-0.6,25.5-13,25.5-13l14.1-2.3v7.4c0.2,0.1,0.3,0.2,0.5,0.3
			c2.3,1.8,5.3,9.3,7.3,15.3C1128.2,366.4,1128.7,371.5,1127.8,376.5z"/>
		<path class="st14" d="M1116.6,353.3c0,0-14.7-11.9-36.8,26.6s-27.2,32.2-27.2,32.2s4.5,17,2.3,20.4c0,0,15.3-1.1,20.9,0
			s40.7-43,40.7-43S1134.7,364.6,1116.6,353.3z"/>
		<path class="st14" d="M1116,351c0,0-14.7-11.9-36.8,26.6s-27.2,32.2-27.2,32.2s17.5,19.2,23.2,20.4s40.7-43,40.7-43
			S1134.1,362.4,1116,351z"/>
		<path class="st14" d="M1054.4,428.8c0.2-4.2-1.3-11.6-2.3-15.4l5.6-0.8l4,17L1054.4,428.8z"/>
		<path class="st14" d="M1112.6,315.4l-27.2,15.8c1.1,1.7,2.2,3.4,3.2,5.2c1.6,0.3,3.2,0.5,4.8,0.5c7.3,0,10.6-7.6,15-12.7
			C1108.1,320.1,1111.4,320,1112.6,315.4z"/>
		<circle class="st36" cx="1092.8" cy="312" r="23.8"/>
		
			<linearGradient id="SVGID_9_" gradientUnits="userSpaceOnUse" x1="960.445" y1="-1278.01" x2="960.445" y2="-1422.2101" gradientTransform="matrix(1 0 0 1 0 1761.3)">
			<stop  offset="0" style="stop-color:#808080;stop-opacity:0.25"/>
			<stop  offset="0.54" style="stop-color:#808080;stop-opacity:0.12"/>
			<stop  offset="1" style="stop-color:#808080;stop-opacity:0.1"/>
		</linearGradient>
		<rect x="864.8" y="339.1" class="st41" width="191.3" height="144.2"/>
		<rect x="869.1" y="342.3" class="st11" width="182.8" height="137.7"/>
		<rect x="886.9" y="354.2" class="st12" width="60.9" height="34.4"/>
		<rect x="962.4" y="354.2" class="st13" width="71.5" height="8"/>
		<rect x="962.4" y="367.5" class="st13" width="50.3" height="8"/>
		<rect x="962.4" y="380.7" class="st13" width="71.5" height="8"/>
		<rect x="886.9" y="394" class="st13" width="147" height="8"/>
		<rect x="886.9" y="407.2" class="st13" width="147" height="8"/>
		<rect x="886.9" y="420.5" class="st13" width="147" height="8"/>
		<rect x="886.9" y="433.7" class="st13" width="135.1" height="8"/>
		<rect x="886.9" y="447" class="st13" width="147" height="8"/>
		<rect x="886.9" y="460.2" class="st13" width="147" height="8"/>
		<path class="st14" d="M1062.8,292.8c2.4-2.5,5.5-4.1,8.9-4.7c3.3-0.7,6.9-0.9,9.6-3c3-2.4,4.3-6.9,8-7.9c1.6-0.3,3.3-0.2,4.8,0.4
			c5.9,1.8,11.1,5.3,15,10c0.9,1.4,2.1,2.5,3.4,3.5c0.8,0.3,1.6,0.7,2.4,1.2c0.8,0.7,1.5,1.5,1.9,2.5c2.7,5.4,3.3,11.5,1.7,17.3
			c-0.9,3.4-2.6,6.6-3.6,10s-1.2,7.2,0.6,10.3c-1.7,0.9-3.9-0.2-5-1.9s-1.4-3.6-2-5.5c-1.1-3.7-3.3-7-6.1-9.5
			c-1.8-1.6-5-2.6-6.2-0.6c-0.5,0.8-0.4,1.8-0.9,2.6c-0.8,1.6-3.2,1.9-4.7,1c-1.5-1-2.5-2.6-2.9-4.4c-2.3-7.9-6.3-12.8-14.7-9.5
			c-3.1,1.3-6.8,2.1-9.9,0C1059.2,301.6,1059.9,296,1062.8,292.8z"/>
		<path class="st24" d="M1062.8,292.2c2.4-2.5,5.5-4.1,8.9-4.7c3.3-0.7,6.9-0.9,9.6-3c3-2.4,4.3-6.9,8-7.9c1.6-0.3,3.3-0.2,4.8,0.4
			c5.9,1.8,11.1,5.3,15,10c0.9,1.4,2.1,2.5,3.4,3.5c0.8,0.3,1.6,0.7,2.4,1.2c0.8,0.7,1.5,1.5,1.9,2.5c2.7,5.4,3.3,11.5,1.7,17.3
			c-0.9,3.4-2.6,6.6-3.6,10s-1.2,7.2,0.6,10.3c-1.7,0.9-3.9-0.2-5-1.9s-1.4-3.6-2-5.5c-1.1-3.7-3.3-7-6.1-9.5
			c-1.8-1.6-5-2.6-6.2-0.6c-0.5,0.8-0.4,1.8-0.9,2.6c-0.8,1.6-3.2,1.9-4.7,1c-1.5-1-2.5-2.6-2.9-4.4c-2.3-7.9-6.3-12.8-14.7-9.5
			c-3.1,1.3-6.8,2.1-9.9,0C1059.2,301.1,1059.9,295.5,1062.8,292.2z"/>
		<path class="st19" d="M1119.3,346.2h-11.5c0,0-22.6,11.3-23.2,10.8c-0.4-0.4-3.9,0.3-6.1,0.7c0.3-1.3,0.6-2.5,0.7-3.9
			c7.3-0.6,25.5-13,25.5-13l14.1-2.3v7.4C1119,346.1,1119.2,346.1,1119.3,346.2z"/>
		<path class="st38" d="M1112.2,678.1c0,2.1-0.3,4.1-0.7,6.1c0,0-47,3.4-61.7,2.3c-7.1-0.5-10.1-3.2-10.6-5.7
			c-0.6,2.9,1.9,6.7,10.6,7.4c14.7,1.1,61.7-2.3,61.7-2.3C1112.1,683.4,1112.3,680.7,1112.2,678.1z"/>
		<g class="st42">
			<path d="M1050.1,467.5c-7.6,6-14.4,8.5-18.8,9.5c0,0.4,0.1,0.8,0.1,1.2c0,0,10.8,0.6,24.3-10.2c2.1-1.8,4.6-3.1,7.3-3.8
				C1060.1,462.9,1055.9,463,1050.1,467.5z"/>
			<path d="M1126.9,361.5c-2-6-5-13.5-7.3-15.3c-0.1-0.1-0.3-0.2-0.5-0.3c0,0-4.7,0.2-4.5,0.3c2.3,1.8,4.6,8.8,6.6,14.7
				c1.6,4.8,2.1,10,1.2,15c-2,12.1-6.3,37.1-11.3,58.8c-6.8,30-14.1,23.2-17.5,30.5c-2.8,6-1.4,13.9-0.8,16.6c2.4,1,4.5,1.6,5.9,1.5
				c0,0-2.8-10.2,0.6-17.5s10.8-0.6,17.5-30.5c4.9-21.7,9.2-46.6,11.3-58.8C1129,371.5,1128.5,366.4,1126.9,361.5z"/>
		</g>
		<path class="st36" d="M1061.7,429.7l-7.3-0.9l-56-6.5c-33.9-10.7-12.4-27.1-12.4-27.1l22.6,21.5c6.5,1.3,32.1-1.7,43.6-3.2
			l5.6-0.8L1061.7,429.7z"/>
		<path class="st40" d="M1116.6,352.2c0,0-14.7-11.9-36.8,26.6s-27.2,32.2-27.2,32.2s4.5,17,2.3,20.4c0,0,15.3-1.1,20.9,0
			s40.7-43,40.7-43S1134.7,363.5,1116.6,352.2z"/>
	</g>
</g>
</svg>
