<?xml version="1.0" encoding="utf-8"?>
<!-- Generator: Adobe Illustrator 22.0.0, SVG Export Plug-In . SVG Version: 6.00 Build 0)  -->
<svg version="1.1" id="图层_1" xmlns="http://www.w3.org/2000/svg" xmlns:xlink="http://www.w3.org/1999/xlink" x="0px" y="0px"
	 viewBox="0 0 64 52.1" style="enable-background:new 0 0 64 52.1;" xml:space="preserve">
<style type="text/css">
	.st0{fill:#631C1C;}
</style>
<title>3</title>
<g id="图层_2_1_">
	<g id="图层_1-2">
		<path class="st0" d="M43.3,15.8c0.7,0,1.5,0.1,2.2,0.1C43.5,6.8,33.8,0,22.6,0C10.2,0,0,8.5,0,19.3c0,6.2,3.4,11.3,9.1,15.3
			l-2.3,6.8l7.9-4c2.6,0.6,5.3,1,7.9,1.1c0.7,0,1.4,0,2.1-0.1c-0.5-1.5-0.7-3.1-0.7-4.8C24.1,23.8,32.6,15.7,43.3,15.8 M31.1,9.6
			c1.5-0.1,2.8,1,2.9,2.5c0,0.1,0,0.2,0,0.4c0.1,1.5-1,2.7-2.5,2.8c-0.1,0-0.2,0-0.3,0c-1.7,0-3.4-1.1-3.4-2.8S29.5,9.6,31.1,9.6
			 M15.3,15.3c-1.7,0-3.4-1.1-3.4-2.8s1.7-2.8,3.4-2.8c1.5-0.1,2.7,1,2.8,2.5c0,0.1,0,0.2,0,0.4c0.1,1.5-1,2.7-2.5,2.8
			C15.5,15.3,15.4,15.3,15.3,15.3"/>
		<path class="st0" d="M64,33.4c0-9-9.1-16.4-19.2-16.4C34,17,25.5,24.4,25.5,33.4S34,49.9,44.8,49.9c2.3-0.1,4.6-0.5,6.8-1.1
			l6.2,3.4l-1.7-5.7C60.6,43.1,64,38.5,64,33.4 M38.5,30.6c-1.2-0.1-2.2-1-2.3-2.3c0.1-1.2,1-2.2,2.3-2.3c1.4-0.2,2.7,0.9,2.8,2.3
			C41.2,29.7,39.9,30.7,38.5,30.6 M51,30.6c-1.2-0.1-2.2-1.1-2.3-2.3c0.1-1.2,1.1-2.2,2.3-2.3c1.4-0.1,2.7,0.9,2.8,2.3
			C53.7,29.7,52.4,30.7,51,30.6"/>
	</g>
</g>
</svg>
