<?xml version="1.0" encoding="utf-8"?>
<!-- Generator: Adobe Illustrator 22.0.0, SVG Export Plug-In . SVG Version: 6.00 Build 0)  -->
<svg version="1.1" id="图层_1" xmlns="http://www.w3.org/2000/svg" xmlns:xlink="http://www.w3.org/1999/xlink" x="0px" y="0px"
	 viewBox="0 0 64 51.8" style="enable-background:new 0 0 64 51.8;" xml:space="preserve">
<style type="text/css">
	.st0{fill:#631C1C;}
</style>
<title>33</title>
<g id="图层_2_1_">
	<g id="图层_1-2">
		<path class="st0" d="M51.7,26.6c-1.1-0.7-2.4-1.3-3.7-1.7l-0.6-0.2c-0.2-0.1-0.3-0.2-0.4-0.3c-0.2-0.1-0.2-0.3-0.2-0.5
			c0.1-0.2,0.1-0.5,0.2-0.7c1.1-2.7,1.1-4.9,0-6.4s-2.9-2.2-5.5-2.2c-3,0.1-6,0.8-8.8,2.1l-0.2,0.1c-0.2,0-0.3,0.1-0.5,0.1
			s-0.3,0-0.5,0s-0.3-0.1-0.4-0.3c-0.1-0.2-0.1-0.5,0-0.7c1.1-3.5,0.8-5.9-0.7-7.5c-1.7-1.8-4.7-1.8-8.8-0.2
			C17,10.1,12.8,13,9.4,16.6c-2.8,2.7-5.2,5.8-7.1,9.2c-1.5,2.7-2.4,5.7-2.5,8.8c0,2.6,0.8,5.1,2.3,7.1C3.9,44.2,6,46,8.4,47.3
			c2.7,1.5,5.6,2.6,8.6,3.3c3.2,0.8,6.5,1.2,9.8,1.2s6.5-0.4,9.7-1.1c2.8-0.6,5.5-1.7,8.1-3c2.2-1.2,4.2-2.6,6-4.2
			c1.6-1.4,2.9-3,3.9-4.9c0.8-1.5,1.3-3.3,1.3-5c0-1.5-0.4-2.9-1.2-4.2C53.8,28.3,52.9,27.4,51.7,26.6z M40.1,43
			c-3.8,2.9-8.4,4.7-13.2,5c-3.3,0.3-6.6,0.1-9.8-0.8c-2.8-0.7-5.3-2-7.4-3.8c-1.8-1.5-2.9-3.7-3.2-6.1c-0.3-3.5,1.2-6.6,4.7-9.4
			c3.8-2.9,8.4-4.7,13.2-5c3.3-0.3,6.6-0.1,9.8,0.8c2.8,0.7,5.3,2,7.4,3.9c1.8,1.5,2.9,3.7,3.2,6.1C45.1,37,43.6,40.2,40.1,43z"/>
		<path class="st0" d="M27.9,28.2c-2.5-0.6-5.2-0.4-7.5,0.7c-2.3,1-4.3,2.7-5.4,5c-1.1,2.1-1.2,4.5-0.2,6.7s2.9,3.8,5.2,4.4
			c2.6,0.9,5.5,0.7,8-0.4c2.5-1,4.5-2.9,5.6-5.4c1.1-2.1,1-4.7-0.1-6.8C32.4,30.3,30.3,28.7,27.9,28.2z M24.1,39.8
			c-0.5,0.8-1.3,1.4-2.2,1.7c-0.9,0.3-1.8,0.3-2.7-0.1c-0.8-0.3-1.3-1-1.5-1.8s0-1.7,0.5-2.4c0.5-0.8,1.3-1.4,2.1-1.6
			c0.8-0.3,1.8-0.3,2.6,0c0.8,0.3,1.4,1,1.6,1.8C24.7,38.1,24.6,39,24.1,39.8z M27.5,35.4c-0.2,0.3-0.5,0.5-0.8,0.7
			c-0.3,0.1-0.7,0.1-1,0c-0.7-0.3-0.9-0.9-0.5-1.6c0.2-0.3,0.4-0.5,0.8-0.7c0.3-0.1,0.7-0.1,1,0s0.5,0.4,0.6,0.7
			C27.7,34.8,27.7,35.2,27.5,35.4z"/>
		<path class="st0" d="M51,19.8c0.2,0.5,0.7,0.9,1.2,1c0.5,0.2,1.1,0.1,1.6-0.1s0.9-0.7,1-1.2c0.5-1.4,0.5-2.8,0.2-4.2
			s-1-2.8-1.9-3.9c-1-1.1-2.2-1.9-3.6-2.3c-1.4-0.4-2.8-0.5-4.3-0.2c-0.5,0.1-1,0.4-1.3,0.9s-0.4,1-0.3,1.6c0.1,0.6,0.4,1,0.9,1.3
			s1,0.4,1.6,0.3c1.4-0.3,2.9,0.1,3.8,1.2c1,1.1,1.4,2.6,0.9,4C50.7,18.7,50.7,19.3,51,19.8z"/>
		<path class="st0" d="M63.6,13.5c-0.6-3-2-5.7-4-7.9c-2-2.3-4.6-3.9-7.4-4.8c-2.8-0.9-5.8-1-8.7-0.4c-0.6,0.1-1.2,0.5-1.5,1
			c-0.4,0.5-0.5,1.2-0.3,1.8c0.1,0.6,0.5,1.2,1.1,1.5C43.3,5.1,44,5.2,44.7,5c2.1-0.4,4.2-0.3,6.2,0.3s3.9,1.8,5.3,3.4
			c1.5,1.6,2.4,3.5,2.9,5.6c0.4,2,0.3,4.2-0.4,6.1c-0.4,1.3,0.3,2.6,1.6,3.1c0.6,0.2,1.3,0.2,1.9-0.1c0.6-0.3,1-0.8,1.2-1.4
			C64.1,19.4,64.3,16.4,63.6,13.5z"/>
	</g>
</g>
</svg>
